solid OpenSCAD_Model
  facet normal 0.662818 0.748781 -0
    outer loop
      vertex 72.8088 78.9337 0
      vertex 72.7757 78.963 2.4
      vertex 72.8088 78.9337 2.4
    endloop
  endfacet
  facet normal 0.662818 0.748781 0
    outer loop
      vertex 72.7757 78.963 2.4
      vertex 72.8088 78.9337 0
      vertex 72.7757 78.963 0
    endloop
  endfacet
  facet normal 1 -0 0
    outer loop
      vertex 73.4 -79.4 2.4
      vertex 73.4 77.6 0
      vertex 73.4 77.6 2.4
    endloop
  endfacet
  facet normal 1 0 0
    outer loop
      vertex 73.4 77.6 0
      vertex 73.4 -79.4 2.4
      vertex 73.4 -79.4 0
    endloop
  endfacet
  facet normal 0 -1 0
    outer loop
      vertex -70 -22 0
      vertex 70 -22 2.4
      vertex -70 -22 2.4
    endloop
  endfacet
  facet normal 0 -1 -0
    outer loop
      vertex 70 -22 2.4
      vertex -70 -22 0
      vertex 70 -22 0
    endloop
  endfacet
  facet normal 0.643298 0.765616 -0
    outer loop
      vertex 72.7757 78.963 0
      vertex 72.7419 78.9914 2.4
      vertex 72.7757 78.963 2.4
    endloop
  endfacet
  facet normal 0.643298 0.765616 0
    outer loop
      vertex 72.7419 78.9914 2.4
      vertex 72.7757 78.963 0
      vertex 72.7419 78.9914 0
    endloop
  endfacet
  facet normal 0.30124 0.953548 -0
    outer loop
      vertex 72.1646 79.3092 0
      vertex 72.1225 79.3225 2.4
      vertex 72.1646 79.3092 2.4
    endloop
  endfacet
  facet normal 0.30124 0.953548 0
    outer loop
      vertex 72.1225 79.3225 2.4
      vertex 72.1646 79.3092 0
      vertex 72.1225 79.3225 0
    endloop
  endfacet
  facet normal 0 1 -0
    outer loop
      vertex 71.6 79.4 0
      vertex -71.6 79.4 2.4
      vertex 71.6 79.4 2.4
    endloop
  endfacet
  facet normal 0 1 0
    outer loop
      vertex -71.6 79.4 2.4
      vertex 71.6 79.4 0
      vertex -71.6 79.4 0
    endloop
  endfacet
  facet normal 0.18306 0.983102 -0
    outer loop
      vertex 71.9512 79.3654 0
      vertex 71.9077 79.3735 2.4
      vertex 71.9512 79.3654 2.4
    endloop
  endfacet
  facet normal 0.18306 0.983102 0
    outer loop
      vertex 71.9077 79.3735 2.4
      vertex 71.9512 79.3654 0
      vertex 71.9077 79.3735 0
    endloop
  endfacet
  facet normal -0.439048 0.898464 0
    outer loop
      vertex -72.3696 79.2272 0
      vertex -72.4093 79.2078 2.4
      vertex -72.3696 79.2272 2.4
    endloop
  endfacet
  facet normal -0.439048 0.898464 0
    outer loop
      vertex -72.4093 79.2078 2.4
      vertex -72.3696 79.2272 0
      vertex -72.4093 79.2078 0
    endloop
  endfacet
  facet normal -1 0 0
    outer loop
      vertex -73.4 -79.4 0
      vertex -73.4 77.6 2.4
      vertex -73.4 77.6 0
    endloop
  endfacet
  facet normal -1 -0 0
    outer loop
      vertex -73.4 77.6 2.4
      vertex -73.4 -79.4 0
      vertex -73.4 -79.4 2.4
    endloop
  endfacet
  facet normal 0.0113115 0.999936 -0
    outer loop
      vertex 71.6442 79.3995 0
      vertex 71.6 79.4 2.4
      vertex 71.6442 79.3995 2.4
    endloop
  endfacet
  facet normal 0.0113115 0.999936 0
    outer loop
      vertex 71.6 79.4 2.4
      vertex 71.6442 79.3995 0
      vertex 71.6 79.4 0
    endloop
  endfacet
  facet normal -0.371391 0.928477 0
    outer loop
      vertex -72.2478 79.2794 0
      vertex -72.2888 79.263 2.4
      vertex -72.2478 79.2794 2.4
    endloop
  endfacet
  facet normal -0.371391 0.928477 0
    outer loop
      vertex -72.2888 79.263 2.4
      vertex -72.2478 79.2794 0
      vertex -72.2888 79.263 0
    endloop
  endfacet
  facet normal 0.748781 0.662818 0
    outer loop
      vertex 72.963 78.7757 2.4
      vertex 72.9337 78.8088 0
      vertex 72.9337 78.8088 2.4
    endloop
  endfacet
  facet normal 0.748781 0.662818 0
    outer loop
      vertex 72.9337 78.8088 0
      vertex 72.963 78.7757 2.4
      vertex 72.963 78.7757 0
    endloop
  endfacet
  facet normal 0.826084 0.563547 0
    outer loop
      vertex 73.0966 78.6 2.4
      vertex 73.0717 78.6365 0
      vertex 73.0717 78.6365 2.4
    endloop
  endfacet
  facet normal 0.826084 0.563547 0
    outer loop
      vertex 73.0717 78.6365 0
      vertex 73.0966 78.6 2.4
      vertex 73.0966 78.6 0
    endloop
  endfacet
  facet normal -0.525107 0.851036 0
    outer loop
      vertex -72.5254 79.1439 0
      vertex -72.563 79.1207 2.4
      vertex -72.5254 79.1439 2.4
    endloop
  endfacet
  facet normal -0.525107 0.851036 0
    outer loop
      vertex -72.563 79.1207 2.4
      vertex -72.5254 79.1439 0
      vertex -72.563 79.1207 0
    endloop
  endfacet
  facet normal 0.898464 0.439048 0
    outer loop
      vertex 73.2272 78.3696 2.4
      vertex 73.2078 78.4093 0
      vertex 73.2078 78.4093 2.4
    endloop
  endfacet
  facet normal 0.898464 0.439048 0
    outer loop
      vertex 73.2078 78.4093 0
      vertex 73.2272 78.3696 2.4
      vertex 73.2272 78.3696 0
    endloop
  endfacet
  facet normal -0.416187 0.909279 0
    outer loop
      vertex -72.3294 79.2456 0
      vertex -72.3696 79.2272 2.4
      vertex -72.3294 79.2456 2.4
    endloop
  endfacet
  facet normal -0.416187 0.909279 0
    outer loop
      vertex -72.3696 79.2272 2.4
      vertex -72.3294 79.2456 0
      vertex -72.3696 79.2272 0
    endloop
  endfacet
  facet normal -0.973 0.230805 0
    outer loop
      vertex -73.3563 77.9944 0
      vertex -73.3461 78.0374 2.4
      vertex -73.3461 78.0374 0
    endloop
  endfacet
  facet normal -0.973 0.230805 0
    outer loop
      vertex -73.3461 78.0374 2.4
      vertex -73.3563 77.9944 0
      vertex -73.3563 77.9944 2.4
    endloop
  endfacet
  facet normal -0.662818 0.748781 0
    outer loop
      vertex -72.7757 78.963 0
      vertex -72.8088 78.9337 2.4
      vertex -72.7757 78.963 2.4
    endloop
  endfacet
  facet normal -0.662818 0.748781 0
    outer loop
      vertex -72.8088 78.9337 2.4
      vertex -72.7757 78.963 0
      vertex -72.8088 78.9337 0
    endloop
  endfacet
  facet normal 0.876072 0.482179 0
    outer loop
      vertex 73.1875 78.4485 2.4
      vertex 73.1662 78.4872 0
      vertex 73.1662 78.4872 2.4
    endloop
  endfacet
  facet normal 0.876072 0.482179 0
    outer loop
      vertex 73.1662 78.4872 0
      vertex 73.1875 78.4485 2.4
      vertex 73.1875 78.4485 0
    endloop
  endfacet
  facet normal 0.999936 0.0113115 0
    outer loop
      vertex 73.4 77.6 2.4
      vertex 73.3995 77.6442 0
      vertex 73.3995 77.6442 2.4
    endloop
  endfacet
  facet normal 0.999936 0.0113115 0
    outer loop
      vertex 73.3995 77.6442 0
      vertex 73.4 77.6 2.4
      vertex 73.4 77.6 0
    endloop
  endfacet
  facet normal -0.937256 0.348641 0
    outer loop
      vertex -73.2948 78.2064 0
      vertex -73.2794 78.2478 2.4
      vertex -73.2794 78.2478 0
    endloop
  endfacet
  facet normal -0.937256 0.348641 0
    outer loop
      vertex -73.2794 78.2478 2.4
      vertex -73.2948 78.2064 0
      vertex -73.2948 78.2064 2.4
    endloop
  endfacet
  facet normal -0.278608 0.960405 0
    outer loop
      vertex -72.0801 79.3348 0
      vertex -72.1225 79.3225 2.4
      vertex -72.0801 79.3348 2.4
    endloop
  endfacet
  facet normal -0.278608 0.960405 0
    outer loop
      vertex -72.1225 79.3225 2.4
      vertex -72.0801 79.3348 0
      vertex -72.1225 79.3225 0
    endloop
  endfacet
  facet normal 0.851036 0.525107 0
    outer loop
      vertex 73.1439 78.5254 2.4
      vertex 73.1207 78.563 0
      vertex 73.1207 78.563 2.4
    endloop
  endfacet
  facet normal 0.851036 0.525107 0
    outer loop
      vertex 73.1207 78.563 0
      vertex 73.1439 78.5254 2.4
      vertex 73.1439 78.5254 0
    endloop
  endfacet
  facet normal -0.563547 0.826084 0
    outer loop
      vertex -72.6 79.0966 0
      vertex -72.6365 79.0717 2.4
      vertex -72.6 79.0966 2.4
    endloop
  endfacet
  facet normal -0.563547 0.826084 0
    outer loop
      vertex -72.6365 79.0717 2.4
      vertex -72.6 79.0966 0
      vertex -72.6365 79.0717 0
    endloop
  endfacet
  facet normal -0.643298 0.765616 0
    outer loop
      vertex -72.7419 78.9914 0
      vertex -72.7757 78.963 2.4
      vertex -72.7419 78.9914 2.4
    endloop
  endfacet
  facet normal -0.643298 0.765616 0
    outer loop
      vertex -72.7757 78.963 2.4
      vertex -72.7419 78.9914 0
      vertex -72.7757 78.963 0
    endloop
  endfacet
  facet normal -0.876072 0.482179 0
    outer loop
      vertex -73.1875 78.4485 0
      vertex -73.1662 78.4872 2.4
      vertex -73.1662 78.4872 0
    endloop
  endfacet
  facet normal -0.876072 0.482179 0
    outer loop
      vertex -73.1662 78.4872 2.4
      vertex -73.1875 78.4485 0
      vertex -73.1875 78.4485 2.4
    endloop
  endfacet
  facet normal -0.732632 0.680625 0
    outer loop
      vertex -72.9337 78.8088 0
      vertex -72.9036 78.8412 2.4
      vertex -72.9036 78.8412 0
    endloop
  endfacet
  facet normal -0.732632 0.680625 0
    outer loop
      vertex -72.9036 78.8412 2.4
      vertex -72.9337 78.8088 0
      vertex -72.9337 78.8088 2.4
    endloop
  endfacet
  facet normal 0.973 0.230805 0
    outer loop
      vertex 73.3563 77.9944 2.4
      vertex 73.3461 78.0374 0
      vertex 73.3461 78.0374 2.4
    endloop
  endfacet
  facet normal 0.973 0.230805 0
    outer loop
      vertex 73.3461 78.0374 0
      vertex 73.3563 77.9944 2.4
      vertex 73.3563 77.9944 0
    endloop
  endfacet
  facet normal -0.998131 0.0611101 0
    outer loop
      vertex -73.3978 77.6883 0
      vertex -73.3951 77.7324 2.4
      vertex -73.3951 77.7324 0
    endloop
  endfacet
  facet normal -0.998131 0.0611101 0
    outer loop
      vertex -73.3951 77.7324 2.4
      vertex -73.3978 77.6883 0
      vertex -73.3978 77.6883 2.4
    endloop
  endfacet
  facet normal 0.887994 0.459854 0
    outer loop
      vertex 73.2078 78.4093 2.4
      vertex 73.1875 78.4485 0
      vertex 73.1875 78.4485 2.4
    endloop
  endfacet
  facet normal 0.887994 0.459854 0
    outer loop
      vertex 73.1875 78.4485 0
      vertex 73.2078 78.4093 2.4
      vertex 73.2078 78.4093 0
    endloop
  endfacet
  facet normal 0.108692 0.994076 -0
    outer loop
      vertex 71.8203 79.3865 0
      vertex 71.7764 79.3913 2.4
      vertex 71.8203 79.3865 2.4
    endloop
  endfacet
  facet normal 0.108692 0.994076 0
    outer loop
      vertex 71.7764 79.3913 2.4
      vertex 71.8203 79.3865 0
      vertex 71.7764 79.3913 0
    endloop
  endfacet
  facet normal 0.990747 0.135719 0
    outer loop
      vertex 73.3865 77.8203 2.4
      vertex 73.3805 77.8641 0
      vertex 73.3805 77.8641 2.4
    endloop
  endfacet
  facet normal 0.990747 0.135719 0
    outer loop
      vertex 73.3805 77.8641 0
      vertex 73.3865 77.8203 2.4
      vertex 73.3865 77.8203 0
    endloop
  endfacet
  facet normal -0.909279 0.416187 0
    outer loop
      vertex -73.2456 78.3294 0
      vertex -73.2272 78.3696 2.4
      vertex -73.2272 78.3696 0
    endloop
  endfacet
  facet normal -0.909279 0.416187 0
    outer loop
      vertex -73.2272 78.3696 2.4
      vertex -73.2456 78.3294 0
      vertex -73.2456 78.3294 2.4
    endloop
  endfacet
  facet normal -0.606862 0.794808 0
    outer loop
      vertex -72.6723 79.0458 0
      vertex -72.7074 79.019 2.4
      vertex -72.6723 79.0458 2.4
    endloop
  endfacet
  facet normal -0.606862 0.794808 0
    outer loop
      vertex -72.7074 79.019 2.4
      vertex -72.6723 79.0458 0
      vertex -72.7074 79.019 0
    endloop
  endfacet
  facet normal 0.439048 0.898464 -0
    outer loop
      vertex 72.4093 79.2078 0
      vertex 72.3696 79.2272 2.4
      vertex 72.4093 79.2078 2.4
    endloop
  endfacet
  facet normal 0.439048 0.898464 0
    outer loop
      vertex 72.3696 79.2272 2.4
      vertex 72.4093 79.2078 0
      vertex 72.3696 79.2272 0
    endloop
  endfacet
  facet normal 0.998131 0.0611101 0
    outer loop
      vertex 73.3978 77.6883 2.4
      vertex 73.3951 77.7324 0
      vertex 73.3951 77.7324 2.4
    endloop
  endfacet
  facet normal 0.998131 0.0611101 0
    outer loop
      vertex 73.3951 77.7324 0
      vertex 73.3978 77.6883 2.4
      vertex 73.3978 77.6883 0
    endloop
  endfacet
  facet normal 0.348641 0.937256 -0
    outer loop
      vertex 72.2478 79.2794 0
      vertex 72.2064 79.2948 2.4
      vertex 72.2478 79.2794 2.4
    endloop
  endfacet
  facet normal 0.348641 0.937256 0
    outer loop
      vertex 72.2064 79.2948 2.4
      vertex 72.2478 79.2794 0
      vertex 72.2064 79.2948 0
    endloop
  endfacet
  facet normal 0.978526 0.206125 0
    outer loop
      vertex 73.3654 77.9512 2.4
      vertex 73.3563 77.9944 0
      vertex 73.3563 77.9944 2.4
    endloop
  endfacet
  facet normal 0.978526 0.206125 0
    outer loop
      vertex 73.3563 77.9944 0
      vertex 73.3654 77.9512 2.4
      vertex 73.3654 77.9512 0
    endloop
  endfacet
  facet normal -0.586151 0.810202 0
    outer loop
      vertex -72.6365 79.0717 0
      vertex -72.6723 79.0458 2.4
      vertex -72.6365 79.0717 2.4
    endloop
  endfacet
  facet normal -0.586151 0.810202 0
    outer loop
      vertex -72.6723 79.0458 2.4
      vertex -72.6365 79.0717 0
      vertex -72.6723 79.0458 0
    endloop
  endfacet
  facet normal -0.0113115 0.999936 0
    outer loop
      vertex -71.6 79.4 0
      vertex -71.6442 79.3995 2.4
      vertex -71.6 79.4 2.4
    endloop
  endfacet
  facet normal -0.0113115 0.999936 0
    outer loop
      vertex -71.6442 79.3995 2.4
      vertex -71.6 79.4 0
      vertex -71.6442 79.3995 0
    endloop
  endfacet
  facet normal 0.25583 0.966722 -0
    outer loop
      vertex 72.0801 79.3348 0
      vertex 72.0374 79.3461 2.4
      vertex 72.0801 79.3348 2.4
    endloop
  endfacet
  facet normal 0.25583 0.966722 0
    outer loop
      vertex 72.0374 79.3461 2.4
      vertex 72.0801 79.3348 0
      vertex 72.0374 79.3461 0
    endloop
  endfacet
  facet normal 0.960405 0.278608 0
    outer loop
      vertex 73.3348 78.0801 2.4
      vertex 73.3225 78.1225 0
      vertex 73.3225 78.1225 2.4
    endloop
  endfacet
  facet normal 0.960405 0.278608 0
    outer loop
      vertex 73.3225 78.1225 0
      vertex 73.3348 78.0801 2.4
      vertex 73.3348 78.0801 0
    endloop
  endfacet
  facet normal -0.459854 0.887994 0
    outer loop
      vertex -72.4093 79.2078 0
      vertex -72.4485 79.1875 2.4
      vertex -72.4093 79.2078 2.4
    endloop
  endfacet
  facet normal -0.459854 0.887994 0
    outer loop
      vertex -72.4485 79.1875 2.4
      vertex -72.4093 79.2078 0
      vertex -72.4485 79.1875 0
    endloop
  endfacet
  facet normal -0.765616 0.643298 0
    outer loop
      vertex -72.9914 78.7419 0
      vertex -72.963 78.7757 2.4
      vertex -72.963 78.7757 0
    endloop
  endfacet
  facet normal -0.765616 0.643298 0
    outer loop
      vertex -72.963 78.7757 2.4
      vertex -72.9914 78.7419 0
      vertex -72.9914 78.7419 2.4
    endloop
  endfacet
  facet normal -0.945469 0.325712 0
    outer loop
      vertex -73.3092 78.1646 0
      vertex -73.2948 78.2064 2.4
      vertex -73.2948 78.2064 0
    endloop
  endfacet
  facet normal -0.945469 0.325712 0
    outer loop
      vertex -73.2948 78.2064 2.4
      vertex -73.3092 78.1646 0
      vertex -73.3092 78.1646 2.4
    endloop
  endfacet
  facet normal -0.30124 0.953548 0
    outer loop
      vertex -72.1225 79.3225 0
      vertex -72.1646 79.3092 2.4
      vertex -72.1225 79.3225 2.4
    endloop
  endfacet
  facet normal -0.30124 0.953548 0
    outer loop
      vertex -72.1646 79.3092 2.4
      vertex -72.1225 79.3225 0
      vertex -72.1646 79.3092 0
    endloop
  endfacet
  facet normal -0.716113 0.697984 0
    outer loop
      vertex -72.9036 78.8412 0
      vertex -72.8728 78.8728 2.4
      vertex -72.8728 78.8728 0
    endloop
  endfacet
  facet normal -0.716113 0.697984 0
    outer loop
      vertex -72.8728 78.8728 2.4
      vertex -72.9036 78.8412 0
      vertex -72.9036 78.8412 2.4
    endloop
  endfacet
  facet normal 0.810202 0.586151 0
    outer loop
      vertex 73.0717 78.6365 2.4
      vertex 73.0458 78.6723 0
      vertex 73.0458 78.6723 2.4
    endloop
  endfacet
  facet normal 0.810202 0.586151 0
    outer loop
      vertex 73.0458 78.6723 0
      vertex 73.0717 78.6365 2.4
      vertex 73.0717 78.6365 0
    endloop
  endfacet
  facet normal -0.135719 0.990747 0
    outer loop
      vertex -71.8203 79.3865 0
      vertex -71.8641 79.3805 2.4
      vertex -71.8203 79.3865 2.4
    endloop
  endfacet
  facet normal -0.135719 0.990747 0
    outer loop
      vertex -71.8641 79.3805 2.4
      vertex -71.8203 79.3865 0
      vertex -71.8641 79.3805 0
    endloop
  endfacet
  facet normal -0.826084 0.563547 0
    outer loop
      vertex -73.0966 78.6 0
      vertex -73.0717 78.6365 2.4
      vertex -73.0717 78.6365 0
    endloop
  endfacet
  facet normal -0.826084 0.563547 0
    outer loop
      vertex -73.0717 78.6365 2.4
      vertex -73.0966 78.6 0
      vertex -73.0966 78.6 2.4
    endloop
  endfacet
  facet normal -0.545784 0.837926 0
    outer loop
      vertex -72.563 79.1207 0
      vertex -72.6 79.0966 2.4
      vertex -72.563 79.1207 2.4
    endloop
  endfacet
  facet normal -0.545784 0.837926 0
    outer loop
      vertex -72.6 79.0966 2.4
      vertex -72.563 79.1207 0
      vertex -72.6 79.0966 0
    endloop
  endfacet
  facet normal 0.393919 0.919145 -0
    outer loop
      vertex 72.3294 79.2456 0
      vertex 72.2888 79.263 2.4
      vertex 72.3294 79.2456 2.4
    endloop
  endfacet
  facet normal 0.393919 0.919145 0
    outer loop
      vertex 72.2888 79.263 2.4
      vertex 72.3294 79.2456 0
      vertex 72.2888 79.263 0
    endloop
  endfacet
  facet normal 0.371391 0.928477 -0
    outer loop
      vertex 72.2888 79.263 0
      vertex 72.2478 79.2794 2.4
      vertex 72.2888 79.263 2.4
    endloop
  endfacet
  facet normal 0.371391 0.928477 0
    outer loop
      vertex 72.2478 79.2794 2.4
      vertex 72.2888 79.263 0
      vertex 72.2478 79.2794 0
    endloop
  endfacet
  facet normal 0.624695 0.780869 -0
    outer loop
      vertex 72.7419 78.9914 0
      vertex 72.7074 79.019 2.4
      vertex 72.7419 78.9914 2.4
    endloop
  endfacet
  facet normal 0.624695 0.780869 0
    outer loop
      vertex 72.7074 79.019 2.4
      vertex 72.7419 78.9914 0
      vertex 72.7074 79.019 0
    endloop
  endfacet
  facet normal 0.525107 0.851036 -0
    outer loop
      vertex 72.563 79.1207 0
      vertex 72.5254 79.1439 2.4
      vertex 72.563 79.1207 2.4
    endloop
  endfacet
  facet normal 0.525107 0.851036 0
    outer loop
      vertex 72.5254 79.1439 2.4
      vertex 72.563 79.1207 0
      vertex 72.5254 79.1439 0
    endloop
  endfacet
  facet normal 0.459854 0.887994 -0
    outer loop
      vertex 72.4485 79.1875 0
      vertex 72.4093 79.2078 2.4
      vertex 72.4485 79.1875 2.4
    endloop
  endfacet
  facet normal 0.459854 0.887994 0
    outer loop
      vertex 72.4093 79.2078 2.4
      vertex 72.4485 79.1875 0
      vertex 72.4093 79.2078 0
    endloop
  endfacet
  facet normal 0.794808 0.606862 0
    outer loop
      vertex 73.0458 78.6723 2.4
      vertex 73.019 78.7074 0
      vertex 73.019 78.7074 2.4
    endloop
  endfacet
  facet normal 0.794808 0.606862 0
    outer loop
      vertex 73.019 78.7074 0
      vertex 73.0458 78.6723 2.4
      vertex 73.0458 78.6723 0
    endloop
  endfacet
  facet normal -0.810202 0.586151 0
    outer loop
      vertex -73.0717 78.6365 0
      vertex -73.0458 78.6723 2.4
      vertex -73.0458 78.6723 0
    endloop
  endfacet
  facet normal -0.810202 0.586151 0
    outer loop
      vertex -73.0458 78.6723 2.4
      vertex -73.0717 78.6365 0
      vertex -73.0717 78.6365 2.4
    endloop
  endfacet
  facet normal -0.794808 0.606862 0
    outer loop
      vertex -73.0458 78.6723 0
      vertex -73.019 78.7074 2.4
      vertex -73.019 78.7074 0
    endloop
  endfacet
  facet normal -0.794808 0.606862 0
    outer loop
      vertex -73.019 78.7074 2.4
      vertex -73.0458 78.6723 0
      vertex -73.0458 78.6723 2.4
    endloop
  endfacet
  facet normal -0.953548 0.30124 0
    outer loop
      vertex -73.3225 78.1225 0
      vertex -73.3092 78.1646 2.4
      vertex -73.3092 78.1646 0
    endloop
  endfacet
  facet normal -0.953548 0.30124 0
    outer loop
      vertex -73.3092 78.1646 2.4
      vertex -73.3225 78.1225 0
      vertex -73.3225 78.1225 2.4
    endloop
  endfacet
  facet normal 0.937256 0.348641 0
    outer loop
      vertex 73.2948 78.2064 2.4
      vertex 73.2794 78.2478 0
      vertex 73.2794 78.2478 2.4
    endloop
  endfacet
  facet normal 0.937256 0.348641 0
    outer loop
      vertex 73.2794 78.2478 0
      vertex 73.2948 78.2064 2.4
      vertex 73.2948 78.2064 0
    endloop
  endfacet
  facet normal 0.999258 0.0385201 0
    outer loop
      vertex 73.3995 77.6442 2.4
      vertex 73.3978 77.6883 0
      vertex 73.3978 77.6883 2.4
    endloop
  endfacet
  facet normal 0.999258 0.0385201 0
    outer loop
      vertex 73.3978 77.6883 0
      vertex 73.3995 77.6442 2.4
      vertex 73.3995 77.6442 0
    endloop
  endfacet
  facet normal -0.0385201 0.999258 0
    outer loop
      vertex -71.6442 79.3995 0
      vertex -71.6883 79.3978 2.4
      vertex -71.6442 79.3995 2.4
    endloop
  endfacet
  facet normal -0.0385201 0.999258 0
    outer loop
      vertex -71.6883 79.3978 2.4
      vertex -71.6442 79.3995 0
      vertex -71.6883 79.3978 0
    endloop
  endfacet
  facet normal 0.697984 0.716113 -0
    outer loop
      vertex 72.8728 78.8728 0
      vertex 72.8412 78.9036 2.4
      vertex 72.8728 78.8728 2.4
    endloop
  endfacet
  facet normal 0.697984 0.716113 0
    outer loop
      vertex 72.8412 78.9036 2.4
      vertex 72.8728 78.8728 0
      vertex 72.8412 78.9036 0
    endloop
  endfacet
  facet normal 0.919145 0.393919 0
    outer loop
      vertex 73.263 78.2888 2.4
      vertex 73.2456 78.3294 0
      vertex 73.2456 78.3294 2.4
    endloop
  endfacet
  facet normal 0.919145 0.393919 0
    outer loop
      vertex 73.2456 78.3294 0
      vertex 73.263 78.2888 2.4
      vertex 73.263 78.2888 0
    endloop
  endfacet
  facet normal -0.999936 0.0113115 0
    outer loop
      vertex -73.4 77.6 0
      vertex -73.3995 77.6442 2.4
      vertex -73.3995 77.6442 0
    endloop
  endfacet
  facet normal -0.999936 0.0113115 0
    outer loop
      vertex -73.3995 77.6442 2.4
      vertex -73.4 77.6 0
      vertex -73.4 77.6 2.4
    endloop
  endfacet
  facet normal -0.0860433 0.996291 0
    outer loop
      vertex -71.7324 79.3951 0
      vertex -71.7764 79.3913 2.4
      vertex -71.7324 79.3951 2.4
    endloop
  endfacet
  facet normal -0.0860433 0.996291 0
    outer loop
      vertex -71.7764 79.3913 2.4
      vertex -71.7324 79.3951 0
      vertex -71.7764 79.3913 0
    endloop
  endfacet
  facet normal -0.348641 0.937256 0
    outer loop
      vertex -72.2064 79.2948 0
      vertex -72.2478 79.2794 2.4
      vertex -72.2064 79.2948 2.4
    endloop
  endfacet
  facet normal -0.348641 0.937256 0
    outer loop
      vertex -72.2478 79.2794 2.4
      vertex -72.2064 79.2948 0
      vertex -72.2478 79.2794 0
    endloop
  endfacet
  facet normal 0.680625 0.732632 -0
    outer loop
      vertex 72.8412 78.9036 0
      vertex 72.8088 78.9337 2.4
      vertex 72.8412 78.9036 2.4
    endloop
  endfacet
  facet normal 0.680625 0.732632 0
    outer loop
      vertex 72.8088 78.9337 2.4
      vertex 72.8412 78.9036 0
      vertex 72.8088 78.9337 0
    endloop
  endfacet
  facet normal -0.393919 0.919145 0
    outer loop
      vertex -72.2888 79.263 0
      vertex -72.3294 79.2456 2.4
      vertex -72.2888 79.263 2.4
    endloop
  endfacet
  facet normal -0.393919 0.919145 0
    outer loop
      vertex -72.3294 79.2456 2.4
      vertex -72.2888 79.263 0
      vertex -72.3294 79.2456 0
    endloop
  endfacet
  facet normal -0.863615 0.504152 0
    outer loop
      vertex -73.1662 78.4872 0
      vertex -73.1439 78.5254 2.4
      vertex -73.1439 78.5254 0
    endloop
  endfacet
  facet normal -0.863615 0.504152 0
    outer loop
      vertex -73.1439 78.5254 2.4
      vertex -73.1662 78.4872 0
      vertex -73.1662 78.4872 2.4
    endloop
  endfacet
  facet normal -0.851036 0.525107 0
    outer loop
      vertex -73.1439 78.5254 0
      vertex -73.1207 78.563 2.4
      vertex -73.1207 78.563 0
    endloop
  endfacet
  facet normal -0.851036 0.525107 0
    outer loop
      vertex -73.1207 78.563 2.4
      vertex -73.1439 78.5254 0
      vertex -73.1439 78.5254 2.4
    endloop
  endfacet
  facet normal -0.230805 0.973 0
    outer loop
      vertex -71.9944 79.3563 0
      vertex -72.0374 79.3461 2.4
      vertex -71.9944 79.3563 2.4
    endloop
  endfacet
  facet normal -0.230805 0.973 0
    outer loop
      vertex -72.0374 79.3461 2.4
      vertex -71.9944 79.3563 0
      vertex -72.0374 79.3461 0
    endloop
  endfacet
  facet normal 0.953548 0.30124 0
    outer loop
      vertex 73.3225 78.1225 2.4
      vertex 73.3092 78.1646 0
      vertex 73.3092 78.1646 2.4
    endloop
  endfacet
  facet normal 0.953548 0.30124 0
    outer loop
      vertex 73.3092 78.1646 0
      vertex 73.3225 78.1225 2.4
      vertex 73.3225 78.1225 0
    endloop
  endfacet
  facet normal -0.108692 0.994076 0
    outer loop
      vertex -71.7764 79.3913 0
      vertex -71.8203 79.3865 2.4
      vertex -71.7764 79.3913 2.4
    endloop
  endfacet
  facet normal -0.108692 0.994076 0
    outer loop
      vertex -71.8203 79.3865 2.4
      vertex -71.7764 79.3913 0
      vertex -71.8203 79.3865 0
    endloop
  endfacet
  facet normal -0.624695 0.780869 0
    outer loop
      vertex -72.7074 79.019 0
      vertex -72.7419 78.9914 2.4
      vertex -72.7074 79.019 2.4
    endloop
  endfacet
  facet normal -0.624695 0.780869 0
    outer loop
      vertex -72.7419 78.9914 2.4
      vertex -72.7074 79.019 0
      vertex -72.7419 78.9914 0
    endloop
  endfacet
  facet normal 0.0385201 0.999258 -0
    outer loop
      vertex 71.6883 79.3978 0
      vertex 71.6442 79.3995 2.4
      vertex 71.6883 79.3978 2.4
    endloop
  endfacet
  facet normal 0.0385201 0.999258 0
    outer loop
      vertex 71.6442 79.3995 2.4
      vertex 71.6883 79.3978 0
      vertex 71.6442 79.3995 0
    endloop
  endfacet
  facet normal -0.482179 0.876072 0
    outer loop
      vertex -72.4485 79.1875 0
      vertex -72.4872 79.1662 2.4
      vertex -72.4485 79.1875 2.4
    endloop
  endfacet
  facet normal -0.482179 0.876072 0
    outer loop
      vertex -72.4872 79.1662 2.4
      vertex -72.4485 79.1875 0
      vertex -72.4872 79.1662 0
    endloop
  endfacet
  facet normal -0.325712 0.945469 0
    outer loop
      vertex -72.1646 79.3092 0
      vertex -72.2064 79.2948 2.4
      vertex -72.1646 79.3092 2.4
    endloop
  endfacet
  facet normal -0.325712 0.945469 0
    outer loop
      vertex -72.2064 79.2948 2.4
      vertex -72.1646 79.3092 0
      vertex -72.2064 79.2948 0
    endloop
  endfacet
  facet normal -0.0611101 0.998131 0
    outer loop
      vertex -71.6883 79.3978 0
      vertex -71.7324 79.3951 2.4
      vertex -71.6883 79.3978 2.4
    endloop
  endfacet
  facet normal -0.0611101 0.998131 0
    outer loop
      vertex -71.7324 79.3951 2.4
      vertex -71.6883 79.3978 0
      vertex -71.7324 79.3951 0
    endloop
  endfacet
  facet normal -0.748781 0.662818 0
    outer loop
      vertex -72.963 78.7757 0
      vertex -72.9337 78.8088 2.4
      vertex -72.9337 78.8088 0
    endloop
  endfacet
  facet normal -0.748781 0.662818 0
    outer loop
      vertex -72.9337 78.8088 2.4
      vertex -72.963 78.7757 0
      vertex -72.963 78.7757 2.4
    endloop
  endfacet
  facet normal 0.416187 0.909279 -0
    outer loop
      vertex 72.3696 79.2272 0
      vertex 72.3294 79.2456 2.4
      vertex 72.3696 79.2272 2.4
    endloop
  endfacet
  facet normal 0.416187 0.909279 0
    outer loop
      vertex 72.3294 79.2456 2.4
      vertex 72.3696 79.2272 0
      vertex 72.3294 79.2456 0
    endloop
  endfacet
  facet normal 0.837926 0.545784 0
    outer loop
      vertex 73.1207 78.563 2.4
      vertex 73.0966 78.6 0
      vertex 73.0966 78.6 2.4
    endloop
  endfacet
  facet normal 0.837926 0.545784 0
    outer loop
      vertex 73.0966 78.6 0
      vertex 73.1207 78.563 2.4
      vertex 73.1207 78.563 0
    endloop
  endfacet
  facet normal 0.504152 0.863615 -0
    outer loop
      vertex 72.5254 79.1439 0
      vertex 72.4872 79.1662 2.4
      vertex 72.5254 79.1439 2.4
    endloop
  endfacet
  facet normal 0.504152 0.863615 0
    outer loop
      vertex 72.4872 79.1662 2.4
      vertex 72.5254 79.1439 0
      vertex 72.4872 79.1662 0
    endloop
  endfacet
  facet normal -0.206125 0.978526 0
    outer loop
      vertex -71.9512 79.3654 0
      vertex -71.9944 79.3563 2.4
      vertex -71.9512 79.3654 2.4
    endloop
  endfacet
  facet normal -0.206125 0.978526 0
    outer loop
      vertex -71.9944 79.3563 2.4
      vertex -71.9512 79.3654 0
      vertex -71.9944 79.3563 0
    endloop
  endfacet
  facet normal -0.15852 0.987356 0
    outer loop
      vertex -71.8641 79.3805 0
      vertex -71.9077 79.3735 2.4
      vertex -71.8641 79.3805 2.4
    endloop
  endfacet
  facet normal -0.15852 0.987356 0
    outer loop
      vertex -71.9077 79.3735 2.4
      vertex -71.8641 79.3805 0
      vertex -71.9077 79.3735 0
    endloop
  endfacet
  facet normal -0.697984 0.716113 0
    outer loop
      vertex -72.8412 78.9036 0
      vertex -72.8728 78.8728 2.4
      vertex -72.8412 78.9036 2.4
    endloop
  endfacet
  facet normal -0.697984 0.716113 0
    outer loop
      vertex -72.8728 78.8728 2.4
      vertex -72.8412 78.9036 0
      vertex -72.8728 78.8728 0
    endloop
  endfacet
  facet normal 0.987356 0.15852 0
    outer loop
      vertex 73.3805 77.8641 2.4
      vertex 73.3735 77.9077 0
      vertex 73.3735 77.9077 2.4
    endloop
  endfacet
  facet normal 0.987356 0.15852 0
    outer loop
      vertex 73.3735 77.9077 0
      vertex 73.3805 77.8641 2.4
      vertex 73.3805 77.8641 0
    endloop
  endfacet
  facet normal 0.732632 0.680625 0
    outer loop
      vertex 72.9337 78.8088 2.4
      vertex 72.9036 78.8412 0
      vertex 72.9036 78.8412 2.4
    endloop
  endfacet
  facet normal 0.732632 0.680625 0
    outer loop
      vertex 72.9036 78.8412 0
      vertex 72.9337 78.8088 2.4
      vertex 72.9337 78.8088 0
    endloop
  endfacet
  facet normal 0.716113 0.697984 0
    outer loop
      vertex 72.9036 78.8412 2.4
      vertex 72.8728 78.8728 0
      vertex 72.8728 78.8728 2.4
    endloop
  endfacet
  facet normal 0.716113 0.697984 0
    outer loop
      vertex 72.8728 78.8728 0
      vertex 72.9036 78.8412 2.4
      vertex 72.9036 78.8412 0
    endloop
  endfacet
  facet normal 0.586151 0.810202 -0
    outer loop
      vertex 72.6723 79.0458 0
      vertex 72.6365 79.0717 2.4
      vertex 72.6723 79.0458 2.4
    endloop
  endfacet
  facet normal 0.586151 0.810202 0
    outer loop
      vertex 72.6365 79.0717 2.4
      vertex 72.6723 79.0458 0
      vertex 72.6365 79.0717 0
    endloop
  endfacet
  facet normal 0.563547 0.826084 -0
    outer loop
      vertex 72.6365 79.0717 0
      vertex 72.6 79.0966 2.4
      vertex 72.6365 79.0717 2.4
    endloop
  endfacet
  facet normal 0.563547 0.826084 0
    outer loop
      vertex 72.6 79.0966 2.4
      vertex 72.6365 79.0717 0
      vertex 72.6 79.0966 0
    endloop
  endfacet
  facet normal 0.863615 0.504152 0
    outer loop
      vertex 73.1662 78.4872 2.4
      vertex 73.1439 78.5254 0
      vertex 73.1439 78.5254 2.4
    endloop
  endfacet
  facet normal 0.863615 0.504152 0
    outer loop
      vertex 73.1439 78.5254 0
      vertex 73.1662 78.4872 2.4
      vertex 73.1662 78.4872 0
    endloop
  endfacet
  facet normal -0.987356 0.15852 0
    outer loop
      vertex -73.3805 77.8641 0
      vertex -73.3735 77.9077 2.4
      vertex -73.3735 77.9077 0
    endloop
  endfacet
  facet normal -0.987356 0.15852 0
    outer loop
      vertex -73.3735 77.9077 2.4
      vertex -73.3805 77.8641 0
      vertex -73.3805 77.8641 2.4
    endloop
  endfacet
  facet normal -0.990747 0.135719 0
    outer loop
      vertex -73.3865 77.8203 0
      vertex -73.3805 77.8641 2.4
      vertex -73.3805 77.8641 0
    endloop
  endfacet
  facet normal -0.990747 0.135719 0
    outer loop
      vertex -73.3805 77.8641 2.4
      vertex -73.3865 77.8203 0
      vertex -73.3865 77.8203 2.4
    endloop
  endfacet
  facet normal -0.898464 0.439048 0
    outer loop
      vertex -73.2272 78.3696 0
      vertex -73.2078 78.4093 2.4
      vertex -73.2078 78.4093 0
    endloop
  endfacet
  facet normal -0.898464 0.439048 0
    outer loop
      vertex -73.2078 78.4093 2.4
      vertex -73.2272 78.3696 0
      vertex -73.2272 78.3696 2.4
    endloop
  endfacet
  facet normal 0.482179 0.876072 -0
    outer loop
      vertex 72.4872 79.1662 0
      vertex 72.4485 79.1875 2.4
      vertex 72.4872 79.1662 2.4
    endloop
  endfacet
  facet normal 0.482179 0.876072 0
    outer loop
      vertex 72.4485 79.1875 2.4
      vertex 72.4872 79.1662 0
      vertex 72.4485 79.1875 0
    endloop
  endfacet
  facet normal -0.983102 0.18306 0
    outer loop
      vertex -73.3735 77.9077 0
      vertex -73.3654 77.9512 2.4
      vertex -73.3654 77.9512 0
    endloop
  endfacet
  facet normal -0.983102 0.18306 0
    outer loop
      vertex -73.3654 77.9512 2.4
      vertex -73.3735 77.9077 0
      vertex -73.3735 77.9077 2.4
    endloop
  endfacet
  facet normal -0.978526 0.206125 0
    outer loop
      vertex -73.3654 77.9512 0
      vertex -73.3563 77.9944 2.4
      vertex -73.3563 77.9944 0
    endloop
  endfacet
  facet normal -0.978526 0.206125 0
    outer loop
      vertex -73.3563 77.9944 2.4
      vertex -73.3654 77.9512 0
      vertex -73.3654 77.9512 2.4
    endloop
  endfacet
  facet normal 0.325712 0.945469 -0
    outer loop
      vertex 72.2064 79.2948 0
      vertex 72.1646 79.3092 2.4
      vertex 72.2064 79.2948 2.4
    endloop
  endfacet
  facet normal 0.325712 0.945469 0
    outer loop
      vertex 72.1646 79.3092 2.4
      vertex 72.2064 79.2948 0
      vertex 72.1646 79.3092 0
    endloop
  endfacet
  facet normal -0.887994 0.459854 0
    outer loop
      vertex -73.2078 78.4093 0
      vertex -73.1875 78.4485 2.4
      vertex -73.1875 78.4485 0
    endloop
  endfacet
  facet normal -0.887994 0.459854 0
    outer loop
      vertex -73.1875 78.4485 2.4
      vertex -73.2078 78.4093 0
      vertex -73.2078 78.4093 2.4
    endloop
  endfacet
  facet normal 0.966722 0.25583 0
    outer loop
      vertex 73.3461 78.0374 2.4
      vertex 73.3348 78.0801 0
      vertex 73.3348 78.0801 2.4
    endloop
  endfacet
  facet normal 0.966722 0.25583 0
    outer loop
      vertex 73.3348 78.0801 0
      vertex 73.3461 78.0374 2.4
      vertex 73.3461 78.0374 0
    endloop
  endfacet
  facet normal -0.25583 0.966722 0
    outer loop
      vertex -72.0374 79.3461 0
      vertex -72.0801 79.3348 2.4
      vertex -72.0374 79.3461 2.4
    endloop
  endfacet
  facet normal -0.25583 0.966722 0
    outer loop
      vertex -72.0801 79.3348 2.4
      vertex -72.0374 79.3461 0
      vertex -72.0801 79.3348 0
    endloop
  endfacet
  facet normal -0.994076 0.108692 0
    outer loop
      vertex -73.3913 77.7764 0
      vertex -73.3865 77.8203 2.4
      vertex -73.3865 77.8203 0
    endloop
  endfacet
  facet normal -0.994076 0.108692 0
    outer loop
      vertex -73.3865 77.8203 2.4
      vertex -73.3913 77.7764 0
      vertex -73.3913 77.7764 2.4
    endloop
  endfacet
  facet normal -0.996291 0.0860433 0
    outer loop
      vertex -73.3951 77.7324 0
      vertex -73.3913 77.7764 2.4
      vertex -73.3913 77.7764 0
    endloop
  endfacet
  facet normal -0.996291 0.0860433 0
    outer loop
      vertex -73.3913 77.7764 2.4
      vertex -73.3951 77.7324 0
      vertex -73.3951 77.7324 2.4
    endloop
  endfacet
  facet normal 0.780869 0.624695 0
    outer loop
      vertex 73.019 78.7074 2.4
      vertex 72.9914 78.7419 0
      vertex 72.9914 78.7419 2.4
    endloop
  endfacet
  facet normal 0.780869 0.624695 0
    outer loop
      vertex 72.9914 78.7419 0
      vertex 73.019 78.7074 2.4
      vertex 73.019 78.7074 0
    endloop
  endfacet
  facet normal 0.765616 0.643298 0
    outer loop
      vertex 72.9914 78.7419 2.4
      vertex 72.963 78.7757 0
      vertex 72.963 78.7757 2.4
    endloop
  endfacet
  facet normal 0.765616 0.643298 0
    outer loop
      vertex 72.963 78.7757 0
      vertex 72.9914 78.7419 2.4
      vertex 72.9914 78.7419 0
    endloop
  endfacet
  facet normal 0 0 -1
    outer loop
      vertex -73.4 -79.4 0
      vertex -70 -22 0
      vertex -70 -79.4 0
    endloop
  endfacet
  facet normal -0 0 -1
    outer loop
      vertex -70 -22 0
      vertex -73.4 -79.4 0
      vertex -70 -18.6 0
    endloop
  endfacet
  facet normal 0 0 -1
    outer loop
      vertex -73.4 77.6 0
      vertex -70 -18.6 0
      vertex -73.4 -79.4 0
    endloop
  endfacet
  facet normal 0 0 -1
    outer loop
      vertex -70 71.4 0
      vertex -73.4 77.6 0
      vertex -71.6 79.4 0
    endloop
  endfacet
  facet normal 0 0 -1
    outer loop
      vertex -71.6 79.4 0
      vertex -73.4 77.6 0
      vertex -71.6442 79.3995 0
    endloop
  endfacet
  facet normal 0 0 -1
    outer loop
      vertex -71.6442 79.3995 0
      vertex -73.4 77.6 0
      vertex -71.6883 79.3978 0
    endloop
  endfacet
  facet normal 0 0 -1
    outer loop
      vertex -71.6883 79.3978 0
      vertex -73.4 77.6 0
      vertex -71.7324 79.3951 0
    endloop
  endfacet
  facet normal 0 0 -1
    outer loop
      vertex -71.7324 79.3951 0
      vertex -73.4 77.6 0
      vertex -71.7764 79.3913 0
    endloop
  endfacet
  facet normal 0 0 -1
    outer loop
      vertex -71.7764 79.3913 0
      vertex -73.4 77.6 0
      vertex -71.8203 79.3865 0
    endloop
  endfacet
  facet normal 0 0 -1
    outer loop
      vertex -71.8203 79.3865 0
      vertex -73.4 77.6 0
      vertex -71.8641 79.3805 0
    endloop
  endfacet
  facet normal 0 0 -1
    outer loop
      vertex -71.8641 79.3805 0
      vertex -73.4 77.6 0
      vertex -71.9077 79.3735 0
    endloop
  endfacet
  facet normal 0 0 -1
    outer loop
      vertex -71.9077 79.3735 0
      vertex -73.4 77.6 0
      vertex -71.9512 79.3654 0
    endloop
  endfacet
  facet normal 0 0 -1
    outer loop
      vertex -71.9512 79.3654 0
      vertex -73.4 77.6 0
      vertex -71.9944 79.3563 0
    endloop
  endfacet
  facet normal 0 0 -1
    outer loop
      vertex -71.9944 79.3563 0
      vertex -73.4 77.6 0
      vertex -72.0374 79.3461 0
    endloop
  endfacet
  facet normal 0 0 -1
    outer loop
      vertex -72.0374 79.3461 0
      vertex -73.4 77.6 0
      vertex -72.0801 79.3348 0
    endloop
  endfacet
  facet normal 0 0 -1
    outer loop
      vertex -72.0801 79.3348 0
      vertex -73.4 77.6 0
      vertex -72.1225 79.3225 0
    endloop
  endfacet
  facet normal 0 0 -1
    outer loop
      vertex -72.1225 79.3225 0
      vertex -73.4 77.6 0
      vertex -72.1646 79.3092 0
    endloop
  endfacet
  facet normal 0 0 -1
    outer loop
      vertex -72.1646 79.3092 0
      vertex -73.4 77.6 0
      vertex -72.2064 79.2948 0
    endloop
  endfacet
  facet normal 0 0 -1
    outer loop
      vertex -72.2064 79.2948 0
      vertex -73.4 77.6 0
      vertex -72.2478 79.2794 0
    endloop
  endfacet
  facet normal 0 0 -1
    outer loop
      vertex -72.2478 79.2794 0
      vertex -73.4 77.6 0
      vertex -72.2888 79.263 0
    endloop
  endfacet
  facet normal 0 0 -1
    outer loop
      vertex -72.2888 79.263 0
      vertex -73.4 77.6 0
      vertex -72.3294 79.2456 0
    endloop
  endfacet
  facet normal 0 0 -1
    outer loop
      vertex -72.3294 79.2456 0
      vertex -73.4 77.6 0
      vertex -72.3696 79.2272 0
    endloop
  endfacet
  facet normal 0 0 -1
    outer loop
      vertex -72.3696 79.2272 0
      vertex -73.4 77.6 0
      vertex -72.4093 79.2078 0
    endloop
  endfacet
  facet normal 0 0 -1
    outer loop
      vertex -72.4093 79.2078 0
      vertex -73.4 77.6 0
      vertex -72.4485 79.1875 0
    endloop
  endfacet
  facet normal 0 0 -1
    outer loop
      vertex -72.4485 79.1875 0
      vertex -73.4 77.6 0
      vertex -72.4872 79.1662 0
    endloop
  endfacet
  facet normal 0 0 -1
    outer loop
      vertex -72.4872 79.1662 0
      vertex -73.4 77.6 0
      vertex -72.5254 79.1439 0
    endloop
  endfacet
  facet normal 0 0 -1
    outer loop
      vertex -72.5254 79.1439 0
      vertex -73.4 77.6 0
      vertex -72.563 79.1207 0
    endloop
  endfacet
  facet normal 0 0 -1
    outer loop
      vertex -72.563 79.1207 0
      vertex -73.4 77.6 0
      vertex -72.6 79.0966 0
    endloop
  endfacet
  facet normal 0 0 -1
    outer loop
      vertex -72.6 79.0966 0
      vertex -73.4 77.6 0
      vertex -72.6365 79.0717 0
    endloop
  endfacet
  facet normal 0 0 -1
    outer loop
      vertex -72.6365 79.0717 0
      vertex -73.4 77.6 0
      vertex -72.6723 79.0458 0
    endloop
  endfacet
  facet normal 0 0 -1
    outer loop
      vertex -72.6723 79.0458 0
      vertex -73.4 77.6 0
      vertex -72.7074 79.019 0
    endloop
  endfacet
  facet normal 0 0 -1
    outer loop
      vertex -72.7074 79.019 0
      vertex -73.4 77.6 0
      vertex -72.7419 78.9914 0
    endloop
  endfacet
  facet normal 0 0 -1
    outer loop
      vertex -72.7419 78.9914 0
      vertex -73.4 77.6 0
      vertex -72.7757 78.963 0
    endloop
  endfacet
  facet normal 0 0 -1
    outer loop
      vertex -72.7757 78.963 0
      vertex -73.4 77.6 0
      vertex -72.8088 78.9337 0
    endloop
  endfacet
  facet normal 0 0 -1
    outer loop
      vertex -72.8088 78.9337 0
      vertex -73.4 77.6 0
      vertex -72.8412 78.9036 0
    endloop
  endfacet
  facet normal 0 0 -1
    outer loop
      vertex -72.8412 78.9036 0
      vertex -73.4 77.6 0
      vertex -72.8728 78.8728 0
    endloop
  endfacet
  facet normal 0 0 -1
    outer loop
      vertex -72.8728 78.8728 0
      vertex -73.4 77.6 0
      vertex -72.9036 78.8412 0
    endloop
  endfacet
  facet normal 0 0 -1
    outer loop
      vertex -72.9036 78.8412 0
      vertex -73.4 77.6 0
      vertex -72.9337 78.8088 0
    endloop
  endfacet
  facet normal 0 0 -1
    outer loop
      vertex -72.9337 78.8088 0
      vertex -73.4 77.6 0
      vertex -72.963 78.7757 0
    endloop
  endfacet
  facet normal 0 0 -1
    outer loop
      vertex -72.963 78.7757 0
      vertex -73.4 77.6 0
      vertex -72.9914 78.7419 0
    endloop
  endfacet
  facet normal 0 0 -1
    outer loop
      vertex -72.9914 78.7419 0
      vertex -73.4 77.6 0
      vertex -73.019 78.7074 0
    endloop
  endfacet
  facet normal 0 0 -1
    outer loop
      vertex -73.019 78.7074 0
      vertex -73.4 77.6 0
      vertex -73.0458 78.6723 0
    endloop
  endfacet
  facet normal 0 0 -1
    outer loop
      vertex -73.0458 78.6723 0
      vertex -73.4 77.6 0
      vertex -73.0717 78.6365 0
    endloop
  endfacet
  facet normal 0 0 -1
    outer loop
      vertex -73.0717 78.6365 0
      vertex -73.4 77.6 0
      vertex -73.0966 78.6 0
    endloop
  endfacet
  facet normal 0 0 -1
    outer loop
      vertex -73.0966 78.6 0
      vertex -73.4 77.6 0
      vertex -73.1207 78.563 0
    endloop
  endfacet
  facet normal 0 0 -1
    outer loop
      vertex -73.1207 78.563 0
      vertex -73.4 77.6 0
      vertex -73.1439 78.5254 0
    endloop
  endfacet
  facet normal 0 0 -1
    outer loop
      vertex -73.1439 78.5254 0
      vertex -73.4 77.6 0
      vertex -73.1662 78.4872 0
    endloop
  endfacet
  facet normal 0 0 -1
    outer loop
      vertex -73.1662 78.4872 0
      vertex -73.4 77.6 0
      vertex -73.1875 78.4485 0
    endloop
  endfacet
  facet normal 0 0 -1
    outer loop
      vertex -73.1875 78.4485 0
      vertex -73.4 77.6 0
      vertex -73.2078 78.4093 0
    endloop
  endfacet
  facet normal 0 0 -1
    outer loop
      vertex -73.2078 78.4093 0
      vertex -73.4 77.6 0
      vertex -73.2272 78.3696 0
    endloop
  endfacet
  facet normal 0 0 -1
    outer loop
      vertex -73.2272 78.3696 0
      vertex -73.4 77.6 0
      vertex -73.2456 78.3294 0
    endloop
  endfacet
  facet normal 0 0 -1
    outer loop
      vertex -73.2456 78.3294 0
      vertex -73.4 77.6 0
      vertex -73.263 78.2888 0
    endloop
  endfacet
  facet normal 0 0 -1
    outer loop
      vertex -73.263 78.2888 0
      vertex -73.4 77.6 0
      vertex -73.2794 78.2478 0
    endloop
  endfacet
  facet normal 0 0 -1
    outer loop
      vertex -73.2794 78.2478 0
      vertex -73.4 77.6 0
      vertex -73.2948 78.2064 0
    endloop
  endfacet
  facet normal 0 0 -1
    outer loop
      vertex -73.2948 78.2064 0
      vertex -73.4 77.6 0
      vertex -73.3092 78.1646 0
    endloop
  endfacet
  facet normal 0 0 -1
    outer loop
      vertex -73.3092 78.1646 0
      vertex -73.4 77.6 0
      vertex -73.3225 78.1225 0
    endloop
  endfacet
  facet normal 0 0 -1
    outer loop
      vertex -73.3225 78.1225 0
      vertex -73.4 77.6 0
      vertex -73.3348 78.0801 0
    endloop
  endfacet
  facet normal 0 0 -1
    outer loop
      vertex -73.3348 78.0801 0
      vertex -73.4 77.6 0
      vertex -73.3461 78.0374 0
    endloop
  endfacet
  facet normal 0 0 -1
    outer loop
      vertex -73.3461 78.0374 0
      vertex -73.4 77.6 0
      vertex -73.3563 77.9944 0
    endloop
  endfacet
  facet normal 0 0 -1
    outer loop
      vertex -73.3563 77.9944 0
      vertex -73.4 77.6 0
      vertex -73.3654 77.9512 0
    endloop
  endfacet
  facet normal 0 0 -1
    outer loop
      vertex -73.3654 77.9512 0
      vertex -73.4 77.6 0
      vertex -73.3735 77.9077 0
    endloop
  endfacet
  facet normal 0 0 -1
    outer loop
      vertex -73.3735 77.9077 0
      vertex -73.4 77.6 0
      vertex -73.3805 77.8641 0
    endloop
  endfacet
  facet normal 0 0 -1
    outer loop
      vertex -73.3805 77.8641 0
      vertex -73.4 77.6 0
      vertex -73.3865 77.8203 0
    endloop
  endfacet
  facet normal 0 0 -1
    outer loop
      vertex -73.3865 77.8203 0
      vertex -73.4 77.6 0
      vertex -73.3913 77.7764 0
    endloop
  endfacet
  facet normal 0 0 -1
    outer loop
      vertex -73.3913 77.7764 0
      vertex -73.4 77.6 0
      vertex -73.3951 77.7324 0
    endloop
  endfacet
  facet normal 0 0 -1
    outer loop
      vertex -73.3951 77.7324 0
      vertex -73.4 77.6 0
      vertex -73.3978 77.6883 0
    endloop
  endfacet
  facet normal 0 0 -1
    outer loop
      vertex -70 -18.6 0
      vertex -73.4 77.6 0
      vertex -70 71.4 0
    endloop
  endfacet
  facet normal 0 0 -1
    outer loop
      vertex -73.3978 77.6883 0
      vertex -73.4 77.6 0
      vertex -73.3995 77.6442 0
    endloop
  endfacet
  facet normal 0 0 -1
    outer loop
      vertex -70 -22 0
      vertex 70 -18.6 0
      vertex 70 -22 0
    endloop
  endfacet
  facet normal -0 0 -1
    outer loop
      vertex 70 -18.6 0
      vertex -70 -22 0
      vertex -70 -18.6 0
    endloop
  endfacet
  facet normal 0 0 -1
    outer loop
      vertex 70 -18.6 0
      vertex 73.4 77.6 0
      vertex 73.4 -79.4 0
    endloop
  endfacet
  facet normal 0 0 -1
    outer loop
      vertex 70 71.4 0
      vertex 73.4 77.6 0
      vertex 70 -18.6 0
    endloop
  endfacet
  facet normal 0 -0 -1
    outer loop
      vertex 71.6 79.4 0
      vertex 73.4 77.6 0
      vertex 70 71.4 0
    endloop
  endfacet
  facet normal 0 0 -1
    outer loop
      vertex 73.4 77.6 0
      vertex 71.6 79.4 0
      vertex 73.3995 77.6442 0
    endloop
  endfacet
  facet normal 0 0 -1
    outer loop
      vertex 73.3995 77.6442 0
      vertex 71.6 79.4 0
      vertex 73.3978 77.6883 0
    endloop
  endfacet
  facet normal 0 0 -1
    outer loop
      vertex 73.3978 77.6883 0
      vertex 71.6 79.4 0
      vertex 73.3951 77.7324 0
    endloop
  endfacet
  facet normal 0 0 -1
    outer loop
      vertex 73.3951 77.7324 0
      vertex 71.6 79.4 0
      vertex 73.3913 77.7764 0
    endloop
  endfacet
  facet normal 0 0 -1
    outer loop
      vertex 73.3913 77.7764 0
      vertex 71.6 79.4 0
      vertex 73.3865 77.8203 0
    endloop
  endfacet
  facet normal 0 0 -1
    outer loop
      vertex 73.3865 77.8203 0
      vertex 71.6 79.4 0
      vertex 73.3805 77.8641 0
    endloop
  endfacet
  facet normal 0 0 -1
    outer loop
      vertex 73.3805 77.8641 0
      vertex 71.6 79.4 0
      vertex 73.3735 77.9077 0
    endloop
  endfacet
  facet normal 0 0 -1
    outer loop
      vertex 73.3735 77.9077 0
      vertex 71.6 79.4 0
      vertex 73.3654 77.9512 0
    endloop
  endfacet
  facet normal 0 0 -1
    outer loop
      vertex 73.3654 77.9512 0
      vertex 71.6 79.4 0
      vertex 73.3563 77.9944 0
    endloop
  endfacet
  facet normal 0 0 -1
    outer loop
      vertex 73.3563 77.9944 0
      vertex 71.6 79.4 0
      vertex 73.3461 78.0374 0
    endloop
  endfacet
  facet normal 0 0 -1
    outer loop
      vertex 73.3461 78.0374 0
      vertex 71.6 79.4 0
      vertex 73.3348 78.0801 0
    endloop
  endfacet
  facet normal 0 0 -1
    outer loop
      vertex 73.3348 78.0801 0
      vertex 71.6 79.4 0
      vertex 73.3225 78.1225 0
    endloop
  endfacet
  facet normal 0 0 -1
    outer loop
      vertex 73.3225 78.1225 0
      vertex 71.6 79.4 0
      vertex 73.3092 78.1646 0
    endloop
  endfacet
  facet normal 0 0 -1
    outer loop
      vertex 73.3092 78.1646 0
      vertex 71.6 79.4 0
      vertex 73.2948 78.2064 0
    endloop
  endfacet
  facet normal 0 0 -1
    outer loop
      vertex 73.2948 78.2064 0
      vertex 71.6 79.4 0
      vertex 73.2794 78.2478 0
    endloop
  endfacet
  facet normal 0 0 -1
    outer loop
      vertex 73.2794 78.2478 0
      vertex 71.6 79.4 0
      vertex 73.263 78.2888 0
    endloop
  endfacet
  facet normal 0 0 -1
    outer loop
      vertex 73.263 78.2888 0
      vertex 71.6 79.4 0
      vertex 73.2456 78.3294 0
    endloop
  endfacet
  facet normal 0 0 -1
    outer loop
      vertex 73.2456 78.3294 0
      vertex 71.6 79.4 0
      vertex 73.2272 78.3696 0
    endloop
  endfacet
  facet normal 0 0 -1
    outer loop
      vertex 73.2272 78.3696 0
      vertex 71.6 79.4 0
      vertex 73.2078 78.4093 0
    endloop
  endfacet
  facet normal 0 0 -1
    outer loop
      vertex 73.2078 78.4093 0
      vertex 71.6 79.4 0
      vertex 73.1875 78.4485 0
    endloop
  endfacet
  facet normal 0 0 -1
    outer loop
      vertex 73.1875 78.4485 0
      vertex 71.6 79.4 0
      vertex 73.1662 78.4872 0
    endloop
  endfacet
  facet normal 0 0 -1
    outer loop
      vertex 73.1662 78.4872 0
      vertex 71.6 79.4 0
      vertex 73.1439 78.5254 0
    endloop
  endfacet
  facet normal 0 0 -1
    outer loop
      vertex 73.1439 78.5254 0
      vertex 71.6 79.4 0
      vertex 73.1207 78.563 0
    endloop
  endfacet
  facet normal 0 0 -1
    outer loop
      vertex 73.1207 78.563 0
      vertex 71.6 79.4 0
      vertex 73.0966 78.6 0
    endloop
  endfacet
  facet normal 0 0 -1
    outer loop
      vertex 73.0966 78.6 0
      vertex 71.6 79.4 0
      vertex 73.0717 78.6365 0
    endloop
  endfacet
  facet normal 0 0 -1
    outer loop
      vertex 73.0717 78.6365 0
      vertex 71.6 79.4 0
      vertex 73.0458 78.6723 0
    endloop
  endfacet
  facet normal 0 0 -1
    outer loop
      vertex 73.0458 78.6723 0
      vertex 71.6 79.4 0
      vertex 73.019 78.7074 0
    endloop
  endfacet
  facet normal 0 0 -1
    outer loop
      vertex 73.019 78.7074 0
      vertex 71.6 79.4 0
      vertex 72.9914 78.7419 0
    endloop
  endfacet
  facet normal 0 0 -1
    outer loop
      vertex 72.9914 78.7419 0
      vertex 71.6 79.4 0
      vertex 72.963 78.7757 0
    endloop
  endfacet
  facet normal 0 0 -1
    outer loop
      vertex 72.963 78.7757 0
      vertex 71.6 79.4 0
      vertex 72.9337 78.8088 0
    endloop
  endfacet
  facet normal 0 0 -1
    outer loop
      vertex 72.9337 78.8088 0
      vertex 71.6 79.4 0
      vertex 72.9036 78.8412 0
    endloop
  endfacet
  facet normal 0 0 -1
    outer loop
      vertex 72.9036 78.8412 0
      vertex 71.6 79.4 0
      vertex 72.8728 78.8728 0
    endloop
  endfacet
  facet normal 0 0 -1
    outer loop
      vertex 72.8728 78.8728 0
      vertex 71.6 79.4 0
      vertex 72.8412 78.9036 0
    endloop
  endfacet
  facet normal 0 0 -1
    outer loop
      vertex 72.8412 78.9036 0
      vertex 71.6 79.4 0
      vertex 72.8088 78.9337 0
    endloop
  endfacet
  facet normal 0 0 -1
    outer loop
      vertex 72.8088 78.9337 0
      vertex 71.6 79.4 0
      vertex 72.7757 78.963 0
    endloop
  endfacet
  facet normal 0 0 -1
    outer loop
      vertex 72.7757 78.963 0
      vertex 71.6 79.4 0
      vertex 72.7419 78.9914 0
    endloop
  endfacet
  facet normal 0 0 -1
    outer loop
      vertex 72.7419 78.9914 0
      vertex 71.6 79.4 0
      vertex 72.7074 79.019 0
    endloop
  endfacet
  facet normal 0 0 -1
    outer loop
      vertex 72.7074 79.019 0
      vertex 71.6 79.4 0
      vertex 72.6723 79.0458 0
    endloop
  endfacet
  facet normal 0 0 -1
    outer loop
      vertex 72.6723 79.0458 0
      vertex 71.6 79.4 0
      vertex 72.6365 79.0717 0
    endloop
  endfacet
  facet normal 0 0 -1
    outer loop
      vertex 72.6365 79.0717 0
      vertex 71.6 79.4 0
      vertex 72.6 79.0966 0
    endloop
  endfacet
  facet normal 0 0 -1
    outer loop
      vertex 72.6 79.0966 0
      vertex 71.6 79.4 0
      vertex 72.563 79.1207 0
    endloop
  endfacet
  facet normal 0 0 -1
    outer loop
      vertex 72.563 79.1207 0
      vertex 71.6 79.4 0
      vertex 72.5254 79.1439 0
    endloop
  endfacet
  facet normal 0 0 -1
    outer loop
      vertex 72.5254 79.1439 0
      vertex 71.6 79.4 0
      vertex 72.4872 79.1662 0
    endloop
  endfacet
  facet normal 0 0 -1
    outer loop
      vertex 72.4872 79.1662 0
      vertex 71.6 79.4 0
      vertex 72.4485 79.1875 0
    endloop
  endfacet
  facet normal 0 0 -1
    outer loop
      vertex 72.4485 79.1875 0
      vertex 71.6 79.4 0
      vertex 72.4093 79.2078 0
    endloop
  endfacet
  facet normal 0 0 -1
    outer loop
      vertex 72.4093 79.2078 0
      vertex 71.6 79.4 0
      vertex 72.3696 79.2272 0
    endloop
  endfacet
  facet normal 0 0 -1
    outer loop
      vertex 72.3696 79.2272 0
      vertex 71.6 79.4 0
      vertex 72.3294 79.2456 0
    endloop
  endfacet
  facet normal 0 0 -1
    outer loop
      vertex 72.3294 79.2456 0
      vertex 71.6 79.4 0
      vertex 72.2888 79.263 0
    endloop
  endfacet
  facet normal 0 0 -1
    outer loop
      vertex 72.2888 79.263 0
      vertex 71.6 79.4 0
      vertex 72.2478 79.2794 0
    endloop
  endfacet
  facet normal 0 0 -1
    outer loop
      vertex 72.2478 79.2794 0
      vertex 71.6 79.4 0
      vertex 72.2064 79.2948 0
    endloop
  endfacet
  facet normal 0 0 -1
    outer loop
      vertex 72.2064 79.2948 0
      vertex 71.6 79.4 0
      vertex 72.1646 79.3092 0
    endloop
  endfacet
  facet normal 0 0 -1
    outer loop
      vertex 72.1646 79.3092 0
      vertex 71.6 79.4 0
      vertex 72.1225 79.3225 0
    endloop
  endfacet
  facet normal 0 0 -1
    outer loop
      vertex 72.1225 79.3225 0
      vertex 71.6 79.4 0
      vertex 72.0801 79.3348 0
    endloop
  endfacet
  facet normal 0 0 -1
    outer loop
      vertex 72.0801 79.3348 0
      vertex 71.6 79.4 0
      vertex 72.0374 79.3461 0
    endloop
  endfacet
  facet normal 0 0 -1
    outer loop
      vertex 72.0374 79.3461 0
      vertex 71.6 79.4 0
      vertex 71.9944 79.3563 0
    endloop
  endfacet
  facet normal 0 0 -1
    outer loop
      vertex 71.9944 79.3563 0
      vertex 71.6 79.4 0
      vertex 71.9512 79.3654 0
    endloop
  endfacet
  facet normal 0 0 -1
    outer loop
      vertex 71.9512 79.3654 0
      vertex 71.6 79.4 0
      vertex 71.9077 79.3735 0
    endloop
  endfacet
  facet normal 0 0 -1
    outer loop
      vertex 71.9077 79.3735 0
      vertex 71.6 79.4 0
      vertex 71.8641 79.3805 0
    endloop
  endfacet
  facet normal 0 0 -1
    outer loop
      vertex 71.8641 79.3805 0
      vertex 71.6 79.4 0
      vertex 71.8203 79.3865 0
    endloop
  endfacet
  facet normal 0 0 -1
    outer loop
      vertex 71.8203 79.3865 0
      vertex 71.6 79.4 0
      vertex 71.7764 79.3913 0
    endloop
  endfacet
  facet normal 0 0 -1
    outer loop
      vertex 71.7764 79.3913 0
      vertex 71.6 79.4 0
      vertex 71.7324 79.3951 0
    endloop
  endfacet
  facet normal 0 0 -1
    outer loop
      vertex 70 -22 0
      vertex 73.4 -79.4 0
      vertex 70 -79.4 0
    endloop
  endfacet
  facet normal 0 0 -1
    outer loop
      vertex 70 -18.6 0
      vertex 73.4 -79.4 0
      vertex 70 -22 0
    endloop
  endfacet
  facet normal 0 0 -1
    outer loop
      vertex 71.7324 79.3951 0
      vertex 71.6 79.4 0
      vertex 71.6883 79.3978 0
    endloop
  endfacet
  facet normal 0 0 -1
    outer loop
      vertex 71.6883 79.3978 0
      vertex 71.6 79.4 0
      vertex 71.6442 79.3995 0
    endloop
  endfacet
  facet normal 0 0 -1
    outer loop
      vertex -70 71.4 0
      vertex 71.6 79.4 0
      vertex 70 71.4 0
    endloop
  endfacet
  facet normal -0 0 -1
    outer loop
      vertex 71.6 79.4 0
      vertex -70 71.4 0
      vertex -71.6 79.4 0
    endloop
  endfacet
  facet normal -0.966722 0.25583 0
    outer loop
      vertex -73.3461 78.0374 0
      vertex -73.3348 78.0801 2.4
      vertex -73.3348 78.0801 0
    endloop
  endfacet
  facet normal -0.966722 0.25583 0
    outer loop
      vertex -73.3348 78.0801 2.4
      vertex -73.3461 78.0374 0
      vertex -73.3461 78.0374 2.4
    endloop
  endfacet
  facet normal 0.983102 0.18306 0
    outer loop
      vertex 73.3735 77.9077 2.4
      vertex 73.3654 77.9512 0
      vertex 73.3654 77.9512 2.4
    endloop
  endfacet
  facet normal 0.983102 0.18306 0
    outer loop
      vertex 73.3654 77.9512 0
      vertex 73.3735 77.9077 2.4
      vertex 73.3735 77.9077 0
    endloop
  endfacet
  facet normal -0.680625 0.732632 0
    outer loop
      vertex -72.8088 78.9337 0
      vertex -72.8412 78.9036 2.4
      vertex -72.8088 78.9337 2.4
    endloop
  endfacet
  facet normal -0.680625 0.732632 0
    outer loop
      vertex -72.8412 78.9036 2.4
      vertex -72.8088 78.9337 0
      vertex -72.8412 78.9036 0
    endloop
  endfacet
  facet normal -0.780869 0.624695 0
    outer loop
      vertex -73.019 78.7074 0
      vertex -72.9914 78.7419 2.4
      vertex -72.9914 78.7419 0
    endloop
  endfacet
  facet normal -0.780869 0.624695 0
    outer loop
      vertex -72.9914 78.7419 2.4
      vertex -73.019 78.7074 0
      vertex -73.019 78.7074 2.4
    endloop
  endfacet
  facet normal 0.996291 0.0860433 0
    outer loop
      vertex 73.3951 77.7324 2.4
      vertex 73.3913 77.7764 0
      vertex 73.3913 77.7764 2.4
    endloop
  endfacet
  facet normal 0.996291 0.0860433 0
    outer loop
      vertex 73.3913 77.7764 0
      vertex 73.3951 77.7324 2.4
      vertex 73.3951 77.7324 0
    endloop
  endfacet
  facet normal 0.994076 0.108692 0
    outer loop
      vertex 73.3913 77.7764 2.4
      vertex 73.3865 77.8203 0
      vertex 73.3865 77.8203 2.4
    endloop
  endfacet
  facet normal 0.994076 0.108692 0
    outer loop
      vertex 73.3865 77.8203 0
      vertex 73.3913 77.7764 2.4
      vertex 73.3913 77.7764 0
    endloop
  endfacet
  facet normal -0.18306 0.983102 0
    outer loop
      vertex -71.9077 79.3735 0
      vertex -71.9512 79.3654 2.4
      vertex -71.9077 79.3735 2.4
    endloop
  endfacet
  facet normal -0.18306 0.983102 0
    outer loop
      vertex -71.9512 79.3654 2.4
      vertex -71.9077 79.3735 0
      vertex -71.9512 79.3654 0
    endloop
  endfacet
  facet normal -0.504152 0.863615 0
    outer loop
      vertex -72.4872 79.1662 0
      vertex -72.5254 79.1439 2.4
      vertex -72.4872 79.1662 2.4
    endloop
  endfacet
  facet normal -0.504152 0.863615 0
    outer loop
      vertex -72.5254 79.1439 2.4
      vertex -72.4872 79.1662 0
      vertex -72.5254 79.1439 0
    endloop
  endfacet
  facet normal 0.945469 0.325712 0
    outer loop
      vertex 73.3092 78.1646 2.4
      vertex 73.2948 78.2064 0
      vertex 73.2948 78.2064 2.4
    endloop
  endfacet
  facet normal 0.945469 0.325712 0
    outer loop
      vertex 73.2948 78.2064 0
      vertex 73.3092 78.1646 2.4
      vertex 73.3092 78.1646 0
    endloop
  endfacet
  facet normal -0.837926 0.545784 0
    outer loop
      vertex -73.1207 78.563 0
      vertex -73.0966 78.6 2.4
      vertex -73.0966 78.6 0
    endloop
  endfacet
  facet normal -0.837926 0.545784 0
    outer loop
      vertex -73.0966 78.6 2.4
      vertex -73.1207 78.563 0
      vertex -73.1207 78.563 2.4
    endloop
  endfacet
  facet normal 0.15852 0.987356 -0
    outer loop
      vertex 71.9077 79.3735 0
      vertex 71.8641 79.3805 2.4
      vertex 71.9077 79.3735 2.4
    endloop
  endfacet
  facet normal 0.15852 0.987356 0
    outer loop
      vertex 71.8641 79.3805 2.4
      vertex 71.9077 79.3735 0
      vertex 71.8641 79.3805 0
    endloop
  endfacet
  facet normal 0.135719 0.990747 -0
    outer loop
      vertex 71.8641 79.3805 0
      vertex 71.8203 79.3865 2.4
      vertex 71.8641 79.3805 2.4
    endloop
  endfacet
  facet normal 0.135719 0.990747 0
    outer loop
      vertex 71.8203 79.3865 2.4
      vertex 71.8641 79.3805 0
      vertex 71.8203 79.3865 0
    endloop
  endfacet
  facet normal 0.0860433 0.996291 -0
    outer loop
      vertex 71.7764 79.3913 0
      vertex 71.7324 79.3951 2.4
      vertex 71.7764 79.3913 2.4
    endloop
  endfacet
  facet normal 0.0860433 0.996291 0
    outer loop
      vertex 71.7324 79.3951 2.4
      vertex 71.7764 79.3913 0
      vertex 71.7324 79.3951 0
    endloop
  endfacet
  facet normal 0.0611101 0.998131 -0
    outer loop
      vertex 71.7324 79.3951 0
      vertex 71.6883 79.3978 2.4
      vertex 71.7324 79.3951 2.4
    endloop
  endfacet
  facet normal 0.0611101 0.998131 0
    outer loop
      vertex 71.6883 79.3978 2.4
      vertex 71.7324 79.3951 0
      vertex 71.6883 79.3978 0
    endloop
  endfacet
  facet normal -0.999258 0.0385201 0
    outer loop
      vertex -73.3995 77.6442 0
      vertex -73.3978 77.6883 2.4
      vertex -73.3978 77.6883 0
    endloop
  endfacet
  facet normal -0.999258 0.0385201 0
    outer loop
      vertex -73.3978 77.6883 2.4
      vertex -73.3995 77.6442 0
      vertex -73.3995 77.6442 2.4
    endloop
  endfacet
  facet normal 0.606862 0.794808 -0
    outer loop
      vertex 72.7074 79.019 0
      vertex 72.6723 79.0458 2.4
      vertex 72.7074 79.019 2.4
    endloop
  endfacet
  facet normal 0.606862 0.794808 0
    outer loop
      vertex 72.6723 79.0458 2.4
      vertex 72.7074 79.019 0
      vertex 72.6723 79.0458 0
    endloop
  endfacet
  facet normal -0.960405 0.278608 0
    outer loop
      vertex -73.3348 78.0801 0
      vertex -73.3225 78.1225 2.4
      vertex -73.3225 78.1225 0
    endloop
  endfacet
  facet normal -0.960405 0.278608 0
    outer loop
      vertex -73.3225 78.1225 2.4
      vertex -73.3348 78.0801 0
      vertex -73.3348 78.0801 2.4
    endloop
  endfacet
  facet normal 0.230805 0.973 -0
    outer loop
      vertex 72.0374 79.3461 0
      vertex 71.9944 79.3563 2.4
      vertex 72.0374 79.3461 2.4
    endloop
  endfacet
  facet normal 0.230805 0.973 0
    outer loop
      vertex 71.9944 79.3563 2.4
      vertex 72.0374 79.3461 0
      vertex 71.9944 79.3563 0
    endloop
  endfacet
  facet normal -0 0 1
    outer loop
      vertex -70 -18.6 2.4
      vertex 70 -22 2.4
      vertex 70 -18.6 2.4
    endloop
  endfacet
  facet normal 0 0 1
    outer loop
      vertex 70 -22 2.4
      vertex -70 -18.6 2.4
      vertex -70 -22 2.4
    endloop
  endfacet
  facet normal 0 0 1
    outer loop
      vertex 71.6 79.4 2.4
      vertex 65.9333 77.8 2.4
      vertex 70 71.4 2.4
    endloop
  endfacet
  facet normal 0 0 1
    outer loop
      vertex 71.6 79.4 2.4
      vertex 52.7333 77.8 2.4
      vertex 65.9333 77.8 2.4
    endloop
  endfacet
  facet normal 0 0 1
    outer loop
      vertex 52.7333 77.8 2.4
      vertex 15.9333 77.8 2.4
      vertex 52.7333 73 2.4
    endloop
  endfacet
  facet normal 0 0 1
    outer loop
      vertex 71.6 79.4 2.4
      vertex 15.9333 77.8 2.4
      vertex 52.7333 77.8 2.4
    endloop
  endfacet
  facet normal 0 0 1
    outer loop
      vertex 71.6 79.4 2.4
      vertex 2.73333 77.8 2.4
      vertex 15.9333 77.8 2.4
    endloop
  endfacet
  facet normal 0 0 1
    outer loop
      vertex 2.73333 77.8 2.4
      vertex -2.73333 77.8 2.4
      vertex 2.73333 73 2.4
    endloop
  endfacet
  facet normal 0 0 1
    outer loop
      vertex 71.6 79.4 2.4
      vertex -2.73333 77.8 2.4
      vertex 2.73333 77.8 2.4
    endloop
  endfacet
  facet normal 0 0 1
    outer loop
      vertex 71.6 79.4 2.4
      vertex -15.9333 77.8 2.4
      vertex -2.73333 77.8 2.4
    endloop
  endfacet
  facet normal 0 0 1
    outer loop
      vertex -15.9333 77.8 2.4
      vertex -52.7333 77.8 2.4
      vertex -15.9333 73 2.4
    endloop
  endfacet
  facet normal -0 0 1
    outer loop
      vertex -71.6 79.4 2.4
      vertex -15.9333 77.8 2.4
      vertex 71.6 79.4 2.4
    endloop
  endfacet
  facet normal 0 0 1
    outer loop
      vertex -15.9333 77.8 2.4
      vertex -71.6 79.4 2.4
      vertex -52.7333 77.8 2.4
    endloop
  endfacet
  facet normal 0 0 1
    outer loop
      vertex -65.9333 77.8 2.4
      vertex -70 71.4 2.4
      vertex -65.9333 73 2.4
    endloop
  endfacet
  facet normal 0 0 1
    outer loop
      vertex -73.4 77.6 2.4
      vertex -70 -18.6 2.4
      vertex -70 71.4 2.4
    endloop
  endfacet
  facet normal 0 0 1
    outer loop
      vertex -73.4 -79.4 2.4
      vertex -70 -18.6 2.4
      vertex -73.4 77.6 2.4
    endloop
  endfacet
  facet normal 0 0 1
    outer loop
      vertex -52.7333 77.8 2.4
      vertex -71.6 79.4 2.4
      vertex -65.9333 77.8 2.4
    endloop
  endfacet
  facet normal 0 0 1
    outer loop
      vertex -71.6 79.4 2.4
      vertex -70 71.4 2.4
      vertex -65.9333 77.8 2.4
    endloop
  endfacet
  facet normal -0 0 1
    outer loop
      vertex -73.4 77.6 2.4
      vertex -70 71.4 2.4
      vertex -71.6 79.4 2.4
    endloop
  endfacet
  facet normal 0 0 1
    outer loop
      vertex -73.4 77.6 2.4
      vertex -71.6 79.4 2.4
      vertex -71.6442 79.3995 2.4
    endloop
  endfacet
  facet normal 0 0 1
    outer loop
      vertex -73.4 77.6 2.4
      vertex -71.6442 79.3995 2.4
      vertex -71.6883 79.3978 2.4
    endloop
  endfacet
  facet normal 0 0 1
    outer loop
      vertex -73.4 77.6 2.4
      vertex -71.6883 79.3978 2.4
      vertex -71.7324 79.3951 2.4
    endloop
  endfacet
  facet normal 0 0 1
    outer loop
      vertex -73.4 77.6 2.4
      vertex -71.7324 79.3951 2.4
      vertex -71.7764 79.3913 2.4
    endloop
  endfacet
  facet normal 0 0 1
    outer loop
      vertex -73.4 77.6 2.4
      vertex -71.7764 79.3913 2.4
      vertex -71.8203 79.3865 2.4
    endloop
  endfacet
  facet normal 0 0 1
    outer loop
      vertex -73.4 77.6 2.4
      vertex -71.8203 79.3865 2.4
      vertex -71.8641 79.3805 2.4
    endloop
  endfacet
  facet normal 0 0 1
    outer loop
      vertex -73.4 77.6 2.4
      vertex -71.8641 79.3805 2.4
      vertex -71.9077 79.3735 2.4
    endloop
  endfacet
  facet normal 0 0 1
    outer loop
      vertex -73.4 77.6 2.4
      vertex -71.9077 79.3735 2.4
      vertex -71.9512 79.3654 2.4
    endloop
  endfacet
  facet normal 0 0 1
    outer loop
      vertex -73.4 77.6 2.4
      vertex -71.9512 79.3654 2.4
      vertex -71.9944 79.3563 2.4
    endloop
  endfacet
  facet normal 0 0 1
    outer loop
      vertex -73.4 77.6 2.4
      vertex -71.9944 79.3563 2.4
      vertex -72.0374 79.3461 2.4
    endloop
  endfacet
  facet normal 0 0 1
    outer loop
      vertex -73.4 77.6 2.4
      vertex -72.0374 79.3461 2.4
      vertex -72.0801 79.3348 2.4
    endloop
  endfacet
  facet normal 0 0 1
    outer loop
      vertex -73.4 77.6 2.4
      vertex -72.0801 79.3348 2.4
      vertex -72.1225 79.3225 2.4
    endloop
  endfacet
  facet normal 0 0 1
    outer loop
      vertex -73.4 77.6 2.4
      vertex -72.1225 79.3225 2.4
      vertex -72.1646 79.3092 2.4
    endloop
  endfacet
  facet normal 0 0 1
    outer loop
      vertex -73.4 77.6 2.4
      vertex -72.1646 79.3092 2.4
      vertex -72.2064 79.2948 2.4
    endloop
  endfacet
  facet normal 0 0 1
    outer loop
      vertex -73.4 77.6 2.4
      vertex -72.2064 79.2948 2.4
      vertex -72.2478 79.2794 2.4
    endloop
  endfacet
  facet normal 0 0 1
    outer loop
      vertex -73.4 77.6 2.4
      vertex -72.2478 79.2794 2.4
      vertex -72.2888 79.263 2.4
    endloop
  endfacet
  facet normal 0 0 1
    outer loop
      vertex -73.4 77.6 2.4
      vertex -72.2888 79.263 2.4
      vertex -72.3294 79.2456 2.4
    endloop
  endfacet
  facet normal 0 0 1
    outer loop
      vertex -73.4 77.6 2.4
      vertex -72.3294 79.2456 2.4
      vertex -72.3696 79.2272 2.4
    endloop
  endfacet
  facet normal 0 0 1
    outer loop
      vertex -73.4 77.6 2.4
      vertex -72.3696 79.2272 2.4
      vertex -72.4093 79.2078 2.4
    endloop
  endfacet
  facet normal 0 0 1
    outer loop
      vertex -73.4 77.6 2.4
      vertex -72.4093 79.2078 2.4
      vertex -72.4485 79.1875 2.4
    endloop
  endfacet
  facet normal 0 0 1
    outer loop
      vertex -73.4 77.6 2.4
      vertex -72.4485 79.1875 2.4
      vertex -72.4872 79.1662 2.4
    endloop
  endfacet
  facet normal 0 0 1
    outer loop
      vertex -73.4 77.6 2.4
      vertex -72.4872 79.1662 2.4
      vertex -72.5254 79.1439 2.4
    endloop
  endfacet
  facet normal 0 0 1
    outer loop
      vertex -73.4 77.6 2.4
      vertex -72.5254 79.1439 2.4
      vertex -72.563 79.1207 2.4
    endloop
  endfacet
  facet normal 0 0 1
    outer loop
      vertex -73.4 77.6 2.4
      vertex -72.563 79.1207 2.4
      vertex -72.6 79.0966 2.4
    endloop
  endfacet
  facet normal 0 0 1
    outer loop
      vertex -73.4 77.6 2.4
      vertex -72.6 79.0966 2.4
      vertex -72.6365 79.0717 2.4
    endloop
  endfacet
  facet normal 0 0 1
    outer loop
      vertex -73.4 77.6 2.4
      vertex -72.6365 79.0717 2.4
      vertex -72.6723 79.0458 2.4
    endloop
  endfacet
  facet normal 0 0 1
    outer loop
      vertex -73.4 77.6 2.4
      vertex -72.6723 79.0458 2.4
      vertex -72.7074 79.019 2.4
    endloop
  endfacet
  facet normal 0 0 1
    outer loop
      vertex -73.4 77.6 2.4
      vertex -72.7074 79.019 2.4
      vertex -72.7419 78.9914 2.4
    endloop
  endfacet
  facet normal 0 0 1
    outer loop
      vertex -73.4 77.6 2.4
      vertex -72.7419 78.9914 2.4
      vertex -72.7757 78.963 2.4
    endloop
  endfacet
  facet normal 0 0 1
    outer loop
      vertex -73.4 77.6 2.4
      vertex -72.7757 78.963 2.4
      vertex -72.8088 78.9337 2.4
    endloop
  endfacet
  facet normal 0 0 1
    outer loop
      vertex -73.4 77.6 2.4
      vertex -72.8088 78.9337 2.4
      vertex -72.8412 78.9036 2.4
    endloop
  endfacet
  facet normal 0 0 1
    outer loop
      vertex -73.4 77.6 2.4
      vertex -72.8412 78.9036 2.4
      vertex -72.8728 78.8728 2.4
    endloop
  endfacet
  facet normal 0 0 1
    outer loop
      vertex -73.4 77.6 2.4
      vertex -72.8728 78.8728 2.4
      vertex -72.9036 78.8412 2.4
    endloop
  endfacet
  facet normal 0 0 1
    outer loop
      vertex -73.4 77.6 2.4
      vertex -72.9036 78.8412 2.4
      vertex -72.9337 78.8088 2.4
    endloop
  endfacet
  facet normal 0 0 1
    outer loop
      vertex -73.4 77.6 2.4
      vertex -72.9337 78.8088 2.4
      vertex -72.963 78.7757 2.4
    endloop
  endfacet
  facet normal 0 0 1
    outer loop
      vertex -73.4 77.6 2.4
      vertex -72.963 78.7757 2.4
      vertex -72.9914 78.7419 2.4
    endloop
  endfacet
  facet normal 0 0 1
    outer loop
      vertex -73.4 77.6 2.4
      vertex -72.9914 78.7419 2.4
      vertex -73.019 78.7074 2.4
    endloop
  endfacet
  facet normal 0 0 1
    outer loop
      vertex -73.4 77.6 2.4
      vertex -73.019 78.7074 2.4
      vertex -73.0458 78.6723 2.4
    endloop
  endfacet
  facet normal 0 0 1
    outer loop
      vertex -73.4 77.6 2.4
      vertex -73.0458 78.6723 2.4
      vertex -73.0717 78.6365 2.4
    endloop
  endfacet
  facet normal 0 0 1
    outer loop
      vertex -73.4 77.6 2.4
      vertex -73.0717 78.6365 2.4
      vertex -73.0966 78.6 2.4
    endloop
  endfacet
  facet normal 0 0 1
    outer loop
      vertex -73.4 77.6 2.4
      vertex -73.0966 78.6 2.4
      vertex -73.1207 78.563 2.4
    endloop
  endfacet
  facet normal 0 0 1
    outer loop
      vertex -73.4 77.6 2.4
      vertex -73.1207 78.563 2.4
      vertex -73.1439 78.5254 2.4
    endloop
  endfacet
  facet normal 0 0 1
    outer loop
      vertex -73.4 77.6 2.4
      vertex -73.1439 78.5254 2.4
      vertex -73.1662 78.4872 2.4
    endloop
  endfacet
  facet normal 0 0 1
    outer loop
      vertex -73.4 77.6 2.4
      vertex -73.1662 78.4872 2.4
      vertex -73.1875 78.4485 2.4
    endloop
  endfacet
  facet normal 0 0 1
    outer loop
      vertex -73.4 77.6 2.4
      vertex -73.1875 78.4485 2.4
      vertex -73.2078 78.4093 2.4
    endloop
  endfacet
  facet normal 0 0 1
    outer loop
      vertex -73.4 77.6 2.4
      vertex -73.2078 78.4093 2.4
      vertex -73.2272 78.3696 2.4
    endloop
  endfacet
  facet normal 0 0 1
    outer loop
      vertex -73.4 77.6 2.4
      vertex -73.2272 78.3696 2.4
      vertex -73.2456 78.3294 2.4
    endloop
  endfacet
  facet normal 0 0 1
    outer loop
      vertex -73.4 77.6 2.4
      vertex -73.2456 78.3294 2.4
      vertex -73.263 78.2888 2.4
    endloop
  endfacet
  facet normal 0 0 1
    outer loop
      vertex -73.4 77.6 2.4
      vertex -73.263 78.2888 2.4
      vertex -73.2794 78.2478 2.4
    endloop
  endfacet
  facet normal 0 0 1
    outer loop
      vertex -73.4 77.6 2.4
      vertex -73.2794 78.2478 2.4
      vertex -73.2948 78.2064 2.4
    endloop
  endfacet
  facet normal 0 0 1
    outer loop
      vertex -73.4 77.6 2.4
      vertex -73.2948 78.2064 2.4
      vertex -73.3092 78.1646 2.4
    endloop
  endfacet
  facet normal 0 0 1
    outer loop
      vertex -73.4 77.6 2.4
      vertex -73.3092 78.1646 2.4
      vertex -73.3225 78.1225 2.4
    endloop
  endfacet
  facet normal 0 0 1
    outer loop
      vertex -73.4 77.6 2.4
      vertex -73.3225 78.1225 2.4
      vertex -73.3348 78.0801 2.4
    endloop
  endfacet
  facet normal 0 0 1
    outer loop
      vertex -73.4 77.6 2.4
      vertex -73.3348 78.0801 2.4
      vertex -73.3461 78.0374 2.4
    endloop
  endfacet
  facet normal 0 0 1
    outer loop
      vertex -73.4 77.6 2.4
      vertex -73.3461 78.0374 2.4
      vertex -73.3563 77.9944 2.4
    endloop
  endfacet
  facet normal 0 0 1
    outer loop
      vertex -73.4 77.6 2.4
      vertex -73.3563 77.9944 2.4
      vertex -73.3654 77.9512 2.4
    endloop
  endfacet
  facet normal 0 0 1
    outer loop
      vertex -73.4 77.6 2.4
      vertex -73.3654 77.9512 2.4
      vertex -73.3735 77.9077 2.4
    endloop
  endfacet
  facet normal 0 0 1
    outer loop
      vertex -73.4 77.6 2.4
      vertex -73.3735 77.9077 2.4
      vertex -73.3805 77.8641 2.4
    endloop
  endfacet
  facet normal 0 0 1
    outer loop
      vertex -73.4 77.6 2.4
      vertex -73.3805 77.8641 2.4
      vertex -73.3865 77.8203 2.4
    endloop
  endfacet
  facet normal 0 0 1
    outer loop
      vertex -73.4 77.6 2.4
      vertex -73.3865 77.8203 2.4
      vertex -73.3913 77.7764 2.4
    endloop
  endfacet
  facet normal 0 0 1
    outer loop
      vertex -73.4 77.6 2.4
      vertex -73.3913 77.7764 2.4
      vertex -73.3951 77.7324 2.4
    endloop
  endfacet
  facet normal 0 0 1
    outer loop
      vertex -73.4 77.6 2.4
      vertex -73.3951 77.7324 2.4
      vertex -73.3978 77.6883 2.4
    endloop
  endfacet
  facet normal 0 0 1
    outer loop
      vertex -73.4 77.6 2.4
      vertex -73.3978 77.6883 2.4
      vertex -73.3995 77.6442 2.4
    endloop
  endfacet
  facet normal 0 0 1
    outer loop
      vertex -70 -18.6 2.4
      vertex -73.4 -79.4 2.4
      vertex -70 -22 2.4
    endloop
  endfacet
  facet normal 0 0 1
    outer loop
      vertex -70 -22 2.4
      vertex -73.4 -79.4 2.4
      vertex -70 -79.4 2.4
    endloop
  endfacet
  facet normal 0 0 1
    outer loop
      vertex 71.6 79.4 2.4
      vertex 73.4 77.6 2.4
      vertex 73.3995 77.6442 2.4
    endloop
  endfacet
  facet normal 0 0 1
    outer loop
      vertex 71.6 79.4 2.4
      vertex 73.3995 77.6442 2.4
      vertex 73.3978 77.6883 2.4
    endloop
  endfacet
  facet normal 0 0 1
    outer loop
      vertex 71.6 79.4 2.4
      vertex 73.3978 77.6883 2.4
      vertex 73.3951 77.7324 2.4
    endloop
  endfacet
  facet normal 0 0 1
    outer loop
      vertex 71.6 79.4 2.4
      vertex 73.3951 77.7324 2.4
      vertex 73.3913 77.7764 2.4
    endloop
  endfacet
  facet normal 0 0 1
    outer loop
      vertex 71.6 79.4 2.4
      vertex 73.3913 77.7764 2.4
      vertex 73.3865 77.8203 2.4
    endloop
  endfacet
  facet normal 0 0 1
    outer loop
      vertex 71.6 79.4 2.4
      vertex 73.3865 77.8203 2.4
      vertex 73.3805 77.8641 2.4
    endloop
  endfacet
  facet normal 0 0 1
    outer loop
      vertex 71.6 79.4 2.4
      vertex 73.3805 77.8641 2.4
      vertex 73.3735 77.9077 2.4
    endloop
  endfacet
  facet normal 0 0 1
    outer loop
      vertex 71.6 79.4 2.4
      vertex 73.3735 77.9077 2.4
      vertex 73.3654 77.9512 2.4
    endloop
  endfacet
  facet normal 0 0 1
    outer loop
      vertex 71.6 79.4 2.4
      vertex 73.3654 77.9512 2.4
      vertex 73.3563 77.9944 2.4
    endloop
  endfacet
  facet normal 0 0 1
    outer loop
      vertex 71.6 79.4 2.4
      vertex 73.3563 77.9944 2.4
      vertex 73.3461 78.0374 2.4
    endloop
  endfacet
  facet normal 0 0 1
    outer loop
      vertex 71.6 79.4 2.4
      vertex 73.3461 78.0374 2.4
      vertex 73.3348 78.0801 2.4
    endloop
  endfacet
  facet normal 0 0 1
    outer loop
      vertex 71.6 79.4 2.4
      vertex 73.3348 78.0801 2.4
      vertex 73.3225 78.1225 2.4
    endloop
  endfacet
  facet normal 0 0 1
    outer loop
      vertex 71.6 79.4 2.4
      vertex 73.3225 78.1225 2.4
      vertex 73.3092 78.1646 2.4
    endloop
  endfacet
  facet normal 0 0 1
    outer loop
      vertex 71.6 79.4 2.4
      vertex 73.3092 78.1646 2.4
      vertex 73.2948 78.2064 2.4
    endloop
  endfacet
  facet normal 0 0 1
    outer loop
      vertex 71.6 79.4 2.4
      vertex 73.2948 78.2064 2.4
      vertex 73.2794 78.2478 2.4
    endloop
  endfacet
  facet normal 0 0 1
    outer loop
      vertex 71.6 79.4 2.4
      vertex 73.2794 78.2478 2.4
      vertex 73.263 78.2888 2.4
    endloop
  endfacet
  facet normal 0 0 1
    outer loop
      vertex 71.6 79.4 2.4
      vertex 73.263 78.2888 2.4
      vertex 73.2456 78.3294 2.4
    endloop
  endfacet
  facet normal 0 0 1
    outer loop
      vertex 71.6 79.4 2.4
      vertex 73.2456 78.3294 2.4
      vertex 73.2272 78.3696 2.4
    endloop
  endfacet
  facet normal 0 0 1
    outer loop
      vertex 71.6 79.4 2.4
      vertex 73.2272 78.3696 2.4
      vertex 73.2078 78.4093 2.4
    endloop
  endfacet
  facet normal 0 0 1
    outer loop
      vertex 71.6 79.4 2.4
      vertex 73.2078 78.4093 2.4
      vertex 73.1875 78.4485 2.4
    endloop
  endfacet
  facet normal 0 0 1
    outer loop
      vertex 71.6 79.4 2.4
      vertex 73.1875 78.4485 2.4
      vertex 73.1662 78.4872 2.4
    endloop
  endfacet
  facet normal 0 0 1
    outer loop
      vertex 71.6 79.4 2.4
      vertex 73.1662 78.4872 2.4
      vertex 73.1439 78.5254 2.4
    endloop
  endfacet
  facet normal 0 0 1
    outer loop
      vertex 71.6 79.4 2.4
      vertex 73.1439 78.5254 2.4
      vertex 73.1207 78.563 2.4
    endloop
  endfacet
  facet normal 0 0 1
    outer loop
      vertex 71.6 79.4 2.4
      vertex 73.1207 78.563 2.4
      vertex 73.0966 78.6 2.4
    endloop
  endfacet
  facet normal 0 0 1
    outer loop
      vertex 71.6 79.4 2.4
      vertex 73.0966 78.6 2.4
      vertex 73.0717 78.6365 2.4
    endloop
  endfacet
  facet normal 0 0 1
    outer loop
      vertex 71.6 79.4 2.4
      vertex 73.0717 78.6365 2.4
      vertex 73.0458 78.6723 2.4
    endloop
  endfacet
  facet normal 0 0 1
    outer loop
      vertex 71.6 79.4 2.4
      vertex 73.0458 78.6723 2.4
      vertex 73.019 78.7074 2.4
    endloop
  endfacet
  facet normal 0 0 1
    outer loop
      vertex 71.6 79.4 2.4
      vertex 73.019 78.7074 2.4
      vertex 72.9914 78.7419 2.4
    endloop
  endfacet
  facet normal 0 0 1
    outer loop
      vertex 71.6 79.4 2.4
      vertex 72.9914 78.7419 2.4
      vertex 72.963 78.7757 2.4
    endloop
  endfacet
  facet normal 0 0 1
    outer loop
      vertex 71.6 79.4 2.4
      vertex 72.963 78.7757 2.4
      vertex 72.9337 78.8088 2.4
    endloop
  endfacet
  facet normal 0 0 1
    outer loop
      vertex 71.6 79.4 2.4
      vertex 72.9337 78.8088 2.4
      vertex 72.9036 78.8412 2.4
    endloop
  endfacet
  facet normal 0 0 1
    outer loop
      vertex 71.6 79.4 2.4
      vertex 72.9036 78.8412 2.4
      vertex 72.8728 78.8728 2.4
    endloop
  endfacet
  facet normal 0 0 1
    outer loop
      vertex 71.6 79.4 2.4
      vertex 72.8728 78.8728 2.4
      vertex 72.8412 78.9036 2.4
    endloop
  endfacet
  facet normal 0 0 1
    outer loop
      vertex 71.6 79.4 2.4
      vertex 72.8412 78.9036 2.4
      vertex 72.8088 78.9337 2.4
    endloop
  endfacet
  facet normal 0 0 1
    outer loop
      vertex 71.6 79.4 2.4
      vertex 72.8088 78.9337 2.4
      vertex 72.7757 78.963 2.4
    endloop
  endfacet
  facet normal 0 0 1
    outer loop
      vertex 71.6 79.4 2.4
      vertex 72.7757 78.963 2.4
      vertex 72.7419 78.9914 2.4
    endloop
  endfacet
  facet normal 0 0 1
    outer loop
      vertex 71.6 79.4 2.4
      vertex 72.7419 78.9914 2.4
      vertex 72.7074 79.019 2.4
    endloop
  endfacet
  facet normal 0 0 1
    outer loop
      vertex 71.6 79.4 2.4
      vertex 72.7074 79.019 2.4
      vertex 72.6723 79.0458 2.4
    endloop
  endfacet
  facet normal 0 0 1
    outer loop
      vertex 71.6 79.4 2.4
      vertex 72.6723 79.0458 2.4
      vertex 72.6365 79.0717 2.4
    endloop
  endfacet
  facet normal 0 0 1
    outer loop
      vertex 71.6 79.4 2.4
      vertex 72.6365 79.0717 2.4
      vertex 72.6 79.0966 2.4
    endloop
  endfacet
  facet normal 0 0 1
    outer loop
      vertex 71.6 79.4 2.4
      vertex 72.6 79.0966 2.4
      vertex 72.563 79.1207 2.4
    endloop
  endfacet
  facet normal 0 0 1
    outer loop
      vertex 71.6 79.4 2.4
      vertex 72.563 79.1207 2.4
      vertex 72.5254 79.1439 2.4
    endloop
  endfacet
  facet normal 0 0 1
    outer loop
      vertex 71.6 79.4 2.4
      vertex 72.5254 79.1439 2.4
      vertex 72.4872 79.1662 2.4
    endloop
  endfacet
  facet normal 0 0 1
    outer loop
      vertex 71.6 79.4 2.4
      vertex 72.4872 79.1662 2.4
      vertex 72.4485 79.1875 2.4
    endloop
  endfacet
  facet normal 0 0 1
    outer loop
      vertex 71.6 79.4 2.4
      vertex 72.4485 79.1875 2.4
      vertex 72.4093 79.2078 2.4
    endloop
  endfacet
  facet normal 0 0 1
    outer loop
      vertex 71.6 79.4 2.4
      vertex 72.4093 79.2078 2.4
      vertex 72.3696 79.2272 2.4
    endloop
  endfacet
  facet normal 0 0 1
    outer loop
      vertex 71.6 79.4 2.4
      vertex 72.3696 79.2272 2.4
      vertex 72.3294 79.2456 2.4
    endloop
  endfacet
  facet normal 0 0 1
    outer loop
      vertex 71.6 79.4 2.4
      vertex 72.3294 79.2456 2.4
      vertex 72.2888 79.263 2.4
    endloop
  endfacet
  facet normal 0 0 1
    outer loop
      vertex 71.6 79.4 2.4
      vertex 72.2888 79.263 2.4
      vertex 72.2478 79.2794 2.4
    endloop
  endfacet
  facet normal 0 0 1
    outer loop
      vertex 71.6 79.4 2.4
      vertex 72.2478 79.2794 2.4
      vertex 72.2064 79.2948 2.4
    endloop
  endfacet
  facet normal 0 0 1
    outer loop
      vertex 71.6 79.4 2.4
      vertex 72.2064 79.2948 2.4
      vertex 72.1646 79.3092 2.4
    endloop
  endfacet
  facet normal 0 0 1
    outer loop
      vertex 71.6 79.4 2.4
      vertex 72.1646 79.3092 2.4
      vertex 72.1225 79.3225 2.4
    endloop
  endfacet
  facet normal 0 0 1
    outer loop
      vertex 71.6 79.4 2.4
      vertex 72.1225 79.3225 2.4
      vertex 72.0801 79.3348 2.4
    endloop
  endfacet
  facet normal 0 0 1
    outer loop
      vertex 71.6 79.4 2.4
      vertex 72.0801 79.3348 2.4
      vertex 72.0374 79.3461 2.4
    endloop
  endfacet
  facet normal 0 0 1
    outer loop
      vertex 71.6 79.4 2.4
      vertex 72.0374 79.3461 2.4
      vertex 71.9944 79.3563 2.4
    endloop
  endfacet
  facet normal 0 0 1
    outer loop
      vertex 71.6 79.4 2.4
      vertex 71.9944 79.3563 2.4
      vertex 71.9512 79.3654 2.4
    endloop
  endfacet
  facet normal 0 0 1
    outer loop
      vertex 71.6 79.4 2.4
      vertex 71.9512 79.3654 2.4
      vertex 71.9077 79.3735 2.4
    endloop
  endfacet
  facet normal 0 0 1
    outer loop
      vertex 71.6 79.4 2.4
      vertex 71.9077 79.3735 2.4
      vertex 71.8641 79.3805 2.4
    endloop
  endfacet
  facet normal 0 0 1
    outer loop
      vertex 71.6 79.4 2.4
      vertex 71.8641 79.3805 2.4
      vertex 71.8203 79.3865 2.4
    endloop
  endfacet
  facet normal 0 0 1
    outer loop
      vertex 71.6 79.4 2.4
      vertex 71.8203 79.3865 2.4
      vertex 71.7764 79.3913 2.4
    endloop
  endfacet
  facet normal 0 0 1
    outer loop
      vertex 71.6 79.4 2.4
      vertex 71.7764 79.3913 2.4
      vertex 71.7324 79.3951 2.4
    endloop
  endfacet
  facet normal 0 0 1
    outer loop
      vertex 71.6 79.4 2.4
      vertex 71.7324 79.3951 2.4
      vertex 71.6883 79.3978 2.4
    endloop
  endfacet
  facet normal 0 0 1
    outer loop
      vertex 71.6 79.4 2.4
      vertex 71.6883 79.3978 2.4
      vertex 71.6442 79.3995 2.4
    endloop
  endfacet
  facet normal 0 0 1
    outer loop
      vertex 73.4 77.6 2.4
      vertex 71.6 79.4 2.4
      vertex 70 71.4 2.4
    endloop
  endfacet
  facet normal 0 0 1
    outer loop
      vertex 73.4 77.6 2.4
      vertex 70 71.4 2.4
      vertex 70 -18.6 2.4
    endloop
  endfacet
  facet normal 0 0 1
    outer loop
      vertex 73.4 77.6 2.4
      vertex 70 -18.6 2.4
      vertex 73.4 -79.4 2.4
    endloop
  endfacet
  facet normal -0 0 1
    outer loop
      vertex 70 -22 2.4
      vertex 73.4 -79.4 2.4
      vertex 70 -18.6 2.4
    endloop
  endfacet
  facet normal 0 0 1
    outer loop
      vertex 73.4 -79.4 2.4
      vertex 70 -22 2.4
      vertex 70 -79.4 2.4
    endloop
  endfacet
  facet normal -0 0 1
    outer loop
      vertex 65.9333 73 2.4
      vertex 70 71.4 2.4
      vertex 65.9333 77.8 2.4
    endloop
  endfacet
  facet normal -0 0 1
    outer loop
      vertex 52.7333 73 2.4
      vertex 70 71.4 2.4
      vertex 65.9333 73 2.4
    endloop
  endfacet
  facet normal 0 0 1
    outer loop
      vertex 15.9333 73 2.4
      vertex 52.7333 73 2.4
      vertex 15.9333 77.8 2.4
    endloop
  endfacet
  facet normal -0 0 1
    outer loop
      vertex 15.9333 73 2.4
      vertex 70 71.4 2.4
      vertex 52.7333 73 2.4
    endloop
  endfacet
  facet normal -0 0 1
    outer loop
      vertex 2.73333 73 2.4
      vertex 70 71.4 2.4
      vertex 15.9333 73 2.4
    endloop
  endfacet
  facet normal 0 0 1
    outer loop
      vertex -2.73333 73 2.4
      vertex 2.73333 73 2.4
      vertex -2.73333 77.8 2.4
    endloop
  endfacet
  facet normal -0 0 1
    outer loop
      vertex -2.73333 73 2.4
      vertex 70 71.4 2.4
      vertex 2.73333 73 2.4
    endloop
  endfacet
  facet normal -0 0 1
    outer loop
      vertex -15.9333 73 2.4
      vertex 70 71.4 2.4
      vertex -2.73333 73 2.4
    endloop
  endfacet
  facet normal 0 0 1
    outer loop
      vertex -52.7333 73 2.4
      vertex -15.9333 73 2.4
      vertex -52.7333 77.8 2.4
    endloop
  endfacet
  facet normal 0 0 1
    outer loop
      vertex -70 71.4 2.4
      vertex -15.9333 73 2.4
      vertex -52.7333 73 2.4
    endloop
  endfacet
  facet normal 0 0 1
    outer loop
      vertex -70 71.4 2.4
      vertex -52.7333 73 2.4
      vertex -65.9333 73 2.4
    endloop
  endfacet
  facet normal 0 0 1
    outer loop
      vertex -15.9333 73 2.4
      vertex -70 71.4 2.4
      vertex 70 71.4 2.4
    endloop
  endfacet
  facet normal 0.928477 0.371391 0
    outer loop
      vertex 73.2794 78.2478 2.4
      vertex 73.263 78.2888 0
      vertex 73.263 78.2888 2.4
    endloop
  endfacet
  facet normal 0.928477 0.371391 0
    outer loop
      vertex 73.263 78.2888 0
      vertex 73.2794 78.2478 2.4
      vertex 73.2794 78.2478 0
    endloop
  endfacet
  facet normal 0.278608 0.960405 -0
    outer loop
      vertex 72.1225 79.3225 0
      vertex 72.0801 79.3348 2.4
      vertex 72.1225 79.3225 2.4
    endloop
  endfacet
  facet normal 0.278608 0.960405 0
    outer loop
      vertex 72.0801 79.3348 2.4
      vertex 72.1225 79.3225 0
      vertex 72.0801 79.3348 0
    endloop
  endfacet
  facet normal 0.909279 0.416187 0
    outer loop
      vertex 73.2456 78.3294 2.4
      vertex 73.2272 78.3696 0
      vertex 73.2272 78.3696 2.4
    endloop
  endfacet
  facet normal 0.909279 0.416187 0
    outer loop
      vertex 73.2272 78.3696 0
      vertex 73.2456 78.3294 2.4
      vertex 73.2456 78.3294 0
    endloop
  endfacet
  facet normal -0.928477 0.371391 0
    outer loop
      vertex -73.2794 78.2478 0
      vertex -73.263 78.2888 2.4
      vertex -73.263 78.2888 0
    endloop
  endfacet
  facet normal -0.928477 0.371391 0
    outer loop
      vertex -73.263 78.2888 2.4
      vertex -73.2794 78.2478 0
      vertex -73.2794 78.2478 2.4
    endloop
  endfacet
  facet normal 0.545784 0.837926 -0
    outer loop
      vertex 72.6 79.0966 0
      vertex 72.563 79.1207 2.4
      vertex 72.6 79.0966 2.4
    endloop
  endfacet
  facet normal 0.545784 0.837926 0
    outer loop
      vertex 72.563 79.1207 2.4
      vertex 72.6 79.0966 0
      vertex 72.563 79.1207 0
    endloop
  endfacet
  facet normal -0.919145 0.393919 0
    outer loop
      vertex -73.263 78.2888 0
      vertex -73.2456 78.3294 2.4
      vertex -73.2456 78.3294 0
    endloop
  endfacet
  facet normal -0.919145 0.393919 0
    outer loop
      vertex -73.2456 78.3294 2.4
      vertex -73.263 78.2888 0
      vertex -73.263 78.2888 2.4
    endloop
  endfacet
  facet normal 0.206125 0.978526 -0
    outer loop
      vertex 71.9944 79.3563 0
      vertex 71.9512 79.3654 2.4
      vertex 71.9944 79.3563 2.4
    endloop
  endfacet
  facet normal 0.206125 0.978526 0
    outer loop
      vertex 71.9512 79.3654 2.4
      vertex 71.9944 79.3563 0
      vertex 71.9512 79.3654 0
    endloop
  endfacet
  facet normal -1 0 0
    outer loop
      vertex 70 -18.6 0
      vertex 70 71.4 2.4
      vertex 70 71.4 0
    endloop
  endfacet
  facet normal -1 -0 0
    outer loop
      vertex 70 71.4 2.4
      vertex 70 -18.6 0
      vertex 70 -18.6 2.4
    endloop
  endfacet
  facet normal 1 -0 0
    outer loop
      vertex -70 -18.6 2.4
      vertex -70 71.4 0
      vertex -70 71.4 2.4
    endloop
  endfacet
  facet normal 1 0 0
    outer loop
      vertex -70 71.4 0
      vertex -70 -18.6 2.4
      vertex -70 -18.6 0
    endloop
  endfacet
  facet normal 0 1 -0
    outer loop
      vertex 70 -18.6 0
      vertex -70 -18.6 2.4
      vertex 70 -18.6 2.4
    endloop
  endfacet
  facet normal 0 1 0
    outer loop
      vertex -70 -18.6 2.4
      vertex 70 -18.6 0
      vertex -70 -18.6 0
    endloop
  endfacet
  facet normal -1 0 0
    outer loop
      vertex 70 -79.4 0
      vertex 70 -22 2.4
      vertex 70 -22 0
    endloop
  endfacet
  facet normal -1 -0 0
    outer loop
      vertex 70 -22 2.4
      vertex 70 -79.4 0
      vertex 70 -79.4 2.4
    endloop
  endfacet
  facet normal 0 -1 0
    outer loop
      vertex 70 -79.4 0
      vertex 73.4 -79.4 2.4
      vertex 70 -79.4 2.4
    endloop
  endfacet
  facet normal 0 -1 -0
    outer loop
      vertex 73.4 -79.4 2.4
      vertex 70 -79.4 0
      vertex 73.4 -79.4 0
    endloop
  endfacet
  facet normal 1 -0 0
    outer loop
      vertex -70 -79.4 2.4
      vertex -70 -22 0
      vertex -70 -22 2.4
    endloop
  endfacet
  facet normal 1 0 0
    outer loop
      vertex -70 -22 0
      vertex -70 -79.4 2.4
      vertex -70 -79.4 0
    endloop
  endfacet
  facet normal 0 -1 0
    outer loop
      vertex -73.4 -79.4 0
      vertex -70 -79.4 2.4
      vertex -73.4 -79.4 2.4
    endloop
  endfacet
  facet normal 0 -1 -0
    outer loop
      vertex -70 -79.4 2.4
      vertex -73.4 -79.4 0
      vertex -70 -79.4 0
    endloop
  endfacet
  facet normal 0 -1 0
    outer loop
      vertex -70 71.4 0
      vertex 70 71.4 2.4
      vertex -70 71.4 2.4
    endloop
  endfacet
  facet normal 0 -1 -0
    outer loop
      vertex 70 71.4 2.4
      vertex -70 71.4 0
      vertex 70 71.4 0
    endloop
  endfacet
  facet normal -1 0 0
    outer loop
      vertex -52.7333 73 0.999999
      vertex -52.7333 77.8 2.4
      vertex -52.7333 77.8 0.999999
    endloop
  endfacet
  facet normal -1 -0 0
    outer loop
      vertex -52.7333 77.8 2.4
      vertex -52.7333 73 0.999999
      vertex -52.7333 73 2.4
    endloop
  endfacet
  facet normal -0 0 1
    outer loop
      vertex -65.9333 77.8 0.999999
      vertex -52.7333 73 0.999999
      vertex -52.7333 77.8 0.999999
    endloop
  endfacet
  facet normal 0 0 1
    outer loop
      vertex -52.7333 73 0.999999
      vertex -65.9333 77.8 0.999999
      vertex -65.9333 73 0.999999
    endloop
  endfacet
  facet normal 1 -0 0
    outer loop
      vertex -65.9333 73 2.4
      vertex -65.9333 77.8 0.999999
      vertex -65.9333 77.8 2.4
    endloop
  endfacet
  facet normal 1 0 0
    outer loop
      vertex -65.9333 77.8 0.999999
      vertex -65.9333 73 2.4
      vertex -65.9333 73 0.999999
    endloop
  endfacet
  facet normal 0 -1 0
    outer loop
      vertex -65.9333 77.8 0.999999
      vertex -52.7333 77.8 2.4
      vertex -65.9333 77.8 2.4
    endloop
  endfacet
  facet normal 0 -1 -0
    outer loop
      vertex -52.7333 77.8 2.4
      vertex -65.9333 77.8 0.999999
      vertex -52.7333 77.8 0.999999
    endloop
  endfacet
  facet normal 0 1 -0
    outer loop
      vertex -52.7333 73 0.999999
      vertex -65.9333 73 2.4
      vertex -52.7333 73 2.4
    endloop
  endfacet
  facet normal 0 1 0
    outer loop
      vertex -65.9333 73 2.4
      vertex -52.7333 73 0.999999
      vertex -65.9333 73 0.999999
    endloop
  endfacet
  facet normal -1 0 0
    outer loop
      vertex -2.73333 73 0.999999
      vertex -2.73333 77.8 2.4
      vertex -2.73333 77.8 0.999999
    endloop
  endfacet
  facet normal -1 -0 0
    outer loop
      vertex -2.73333 77.8 2.4
      vertex -2.73333 73 0.999999
      vertex -2.73333 73 2.4
    endloop
  endfacet
  facet normal -0 0 1
    outer loop
      vertex -15.9333 77.8 0.999999
      vertex -2.73333 73 0.999999
      vertex -2.73333 77.8 0.999999
    endloop
  endfacet
  facet normal 0 0 1
    outer loop
      vertex -2.73333 73 0.999999
      vertex -15.9333 77.8 0.999999
      vertex -15.9333 73 0.999999
    endloop
  endfacet
  facet normal 1 -0 0
    outer loop
      vertex -15.9333 73 2.4
      vertex -15.9333 77.8 0.999999
      vertex -15.9333 77.8 2.4
    endloop
  endfacet
  facet normal 1 0 0
    outer loop
      vertex -15.9333 77.8 0.999999
      vertex -15.9333 73 2.4
      vertex -15.9333 73 0.999999
    endloop
  endfacet
  facet normal 0 -1 0
    outer loop
      vertex -15.9333 77.8 0.999999
      vertex -2.73333 77.8 2.4
      vertex -15.9333 77.8 2.4
    endloop
  endfacet
  facet normal 0 -1 -0
    outer loop
      vertex -2.73333 77.8 2.4
      vertex -15.9333 77.8 0.999999
      vertex -2.73333 77.8 0.999999
    endloop
  endfacet
  facet normal 0 1 -0
    outer loop
      vertex -2.73333 73 0.999999
      vertex -15.9333 73 2.4
      vertex -2.73333 73 2.4
    endloop
  endfacet
  facet normal 0 1 0
    outer loop
      vertex -15.9333 73 2.4
      vertex -2.73333 73 0.999999
      vertex -15.9333 73 0.999999
    endloop
  endfacet
  facet normal -1 0 0
    outer loop
      vertex 15.9333 73 0.999999
      vertex 15.9333 77.8 2.4
      vertex 15.9333 77.8 0.999999
    endloop
  endfacet
  facet normal -1 -0 0
    outer loop
      vertex 15.9333 77.8 2.4
      vertex 15.9333 73 0.999999
      vertex 15.9333 73 2.4
    endloop
  endfacet
  facet normal -0 0 1
    outer loop
      vertex 2.73333 77.8 0.999999
      vertex 15.9333 73 0.999999
      vertex 15.9333 77.8 0.999999
    endloop
  endfacet
  facet normal 0 0 1
    outer loop
      vertex 15.9333 73 0.999999
      vertex 2.73333 77.8 0.999999
      vertex 2.73333 73 0.999999
    endloop
  endfacet
  facet normal 1 -0 0
    outer loop
      vertex 2.73333 73 2.4
      vertex 2.73333 77.8 0.999999
      vertex 2.73333 77.8 2.4
    endloop
  endfacet
  facet normal 1 0 0
    outer loop
      vertex 2.73333 77.8 0.999999
      vertex 2.73333 73 2.4
      vertex 2.73333 73 0.999999
    endloop
  endfacet
  facet normal 0 -1 0
    outer loop
      vertex 2.73333 77.8 0.999999
      vertex 15.9333 77.8 2.4
      vertex 2.73333 77.8 2.4
    endloop
  endfacet
  facet normal 0 -1 -0
    outer loop
      vertex 15.9333 77.8 2.4
      vertex 2.73333 77.8 0.999999
      vertex 15.9333 77.8 0.999999
    endloop
  endfacet
  facet normal 0 1 -0
    outer loop
      vertex 15.9333 73 0.999999
      vertex 2.73333 73 2.4
      vertex 15.9333 73 2.4
    endloop
  endfacet
  facet normal 0 1 0
    outer loop
      vertex 2.73333 73 2.4
      vertex 15.9333 73 0.999999
      vertex 2.73333 73 0.999999
    endloop
  endfacet
  facet normal -1 0 0
    outer loop
      vertex 65.9333 73 0.999999
      vertex 65.9333 77.8 2.4
      vertex 65.9333 77.8 0.999999
    endloop
  endfacet
  facet normal -1 -0 0
    outer loop
      vertex 65.9333 77.8 2.4
      vertex 65.9333 73 0.999999
      vertex 65.9333 73 2.4
    endloop
  endfacet
  facet normal -0 0 1
    outer loop
      vertex 52.7333 77.8 0.999999
      vertex 65.9333 73 0.999999
      vertex 65.9333 77.8 0.999999
    endloop
  endfacet
  facet normal 0 0 1
    outer loop
      vertex 65.9333 73 0.999999
      vertex 52.7333 77.8 0.999999
      vertex 52.7333 73 0.999999
    endloop
  endfacet
  facet normal 1 -0 0
    outer loop
      vertex 52.7333 73 2.4
      vertex 52.7333 77.8 0.999999
      vertex 52.7333 77.8 2.4
    endloop
  endfacet
  facet normal 1 0 0
    outer loop
      vertex 52.7333 77.8 0.999999
      vertex 52.7333 73 2.4
      vertex 52.7333 73 0.999999
    endloop
  endfacet
  facet normal 0 -1 0
    outer loop
      vertex 52.7333 77.8 0.999999
      vertex 65.9333 77.8 2.4
      vertex 52.7333 77.8 2.4
    endloop
  endfacet
  facet normal 0 -1 -0
    outer loop
      vertex 65.9333 77.8 2.4
      vertex 52.7333 77.8 0.999999
      vertex 65.9333 77.8 0.999999
    endloop
  endfacet
  facet normal 0 1 -0
    outer loop
      vertex 65.9333 73 0.999999
      vertex 52.7333 73 2.4
      vertex 65.9333 73 2.4
    endloop
  endfacet
  facet normal 0 1 0
    outer loop
      vertex 52.7333 73 2.4
      vertex 65.9333 73 0.999999
      vertex 52.7333 73 0.999999
    endloop
  endfacet
endsolid OpenSCAD_Model
