solid OpenSCAD_Model
  facet normal 1 -0 0
    outer loop
      vertex 83.6 -83.6 3.6
      vertex 83.6 83.6 0
      vertex 83.6 83.6 3.6
    endloop
  endfacet
  facet normal 1 0 0
    outer loop
      vertex 83.6 83.6 0
      vertex 83.6 -83.6 3.6
      vertex 83.6 -83.6 0
    endloop
  endfacet
  facet normal -0 0 1
    outer loop
      vertex -83.6 83.6 3.6
      vertex -78.6 35.3 3.6
      vertex -78.6 83.6 3.6
    endloop
  endfacet
  facet normal 0 0 1
    outer loop
      vertex -78.6 35.3 3.6
      vertex -83.6 83.6 3.6
      vertex -78.6 22.7 3.6
    endloop
  endfacet
  facet normal 0 0 1
    outer loop
      vertex -78.6 22.7 3.6
      vertex -83.6 83.6 3.6
      vertex -78.6 -6.7 3.6
    endloop
  endfacet
  facet normal 0 0 1
    outer loop
      vertex -83.6 -83.6 3.6
      vertex -78.6 -6.7 3.6
      vertex -83.6 83.6 3.6
    endloop
  endfacet
  facet normal 0 0 1
    outer loop
      vertex -78.6 -6.7 3.6
      vertex -83.6 -83.6 3.6
      vertex -78.6 -20.4 3.6
    endloop
  endfacet
  facet normal 0 0 1
    outer loop
      vertex -78.6 -20.4 3.6
      vertex -83.6 -83.6 3.6
      vertex -78.6 -83.6 3.6
    endloop
  endfacet
  facet normal 0 0 1
    outer loop
      vertex 64.16 -16.9 3.6
      vertex 78.6 -6.7 3.6
      vertex 64.16 -9.1 3.6
    endloop
  endfacet
  facet normal 0 0 1
    outer loop
      vertex 78.6 -6.7 3.6
      vertex 60.16 -9.1 3.6
      vertex 64.16 -9.1 3.6
    endloop
  endfacet
  facet normal 0 0 1
    outer loop
      vertex 60.16 -9.1 3.6
      vertex 26.72 -9.1 3.6
      vertex 60.16 -16.9 3.6
    endloop
  endfacet
  facet normal 0 0 1
    outer loop
      vertex 78.6 -6.7 3.6
      vertex 26.72 -9.1 3.6
      vertex 60.16 -9.1 3.6
    endloop
  endfacet
  facet normal 0 0 1
    outer loop
      vertex 78.6 -6.7 3.6
      vertex 22.72 -9.1 3.6
      vertex 26.72 -9.1 3.6
    endloop
  endfacet
  facet normal 0 0 1
    outer loop
      vertex 22.72 -9.1 3.6
      vertex -10.72 -9.1 3.6
      vertex 22.72 -16.9 3.6
    endloop
  endfacet
  facet normal 0 0 1
    outer loop
      vertex 78.6 -6.7 3.6
      vertex -10.72 -9.1 3.6
      vertex 22.72 -9.1 3.6
    endloop
  endfacet
  facet normal -0 0 1
    outer loop
      vertex -78.6 -6.7 3.6
      vertex -10.72 -9.1 3.6
      vertex 78.6 -6.7 3.6
    endloop
  endfacet
  facet normal 0 0 1
    outer loop
      vertex -14.72 -9.1 3.6
      vertex -48.16 -9.1 3.6
      vertex -14.72 -16.9 3.6
    endloop
  endfacet
  facet normal 0 0 1
    outer loop
      vertex -10.72 -9.1 3.6
      vertex -78.6 -6.7 3.6
      vertex -14.72 -9.1 3.6
    endloop
  endfacet
  facet normal 0 0 1
    outer loop
      vertex -14.72 -9.1 3.6
      vertex -78.6 -6.7 3.6
      vertex -48.16 -9.1 3.6
    endloop
  endfacet
  facet normal 0 0 1
    outer loop
      vertex -52.16 -9.1 3.6
      vertex -78.6 -6.7 3.6
      vertex -52.16 -16.9 3.6
    endloop
  endfacet
  facet normal 0 0 1
    outer loop
      vertex -48.16 -9.1 3.6
      vertex -78.6 -6.7 3.6
      vertex -52.16 -9.1 3.6
    endloop
  endfacet
  facet normal 0 0 1
    outer loop
      vertex 78.6 35.3 3.6
      vertex 64.16 32.9 3.6
      vertex 78.6 22.7 3.6
    endloop
  endfacet
  facet normal 0 0 1
    outer loop
      vertex 78.6 35.3 3.6
      vertex 60.16 32.9 3.6
      vertex 64.16 32.9 3.6
    endloop
  endfacet
  facet normal 0 0 1
    outer loop
      vertex 60.16 32.9 3.6
      vertex 26.72 32.9 3.6
      vertex 60.16 25.1 3.6
    endloop
  endfacet
  facet normal 0 0 1
    outer loop
      vertex 78.6 35.3 3.6
      vertex 26.72 32.9 3.6
      vertex 60.16 32.9 3.6
    endloop
  endfacet
  facet normal 0 0 1
    outer loop
      vertex 78.6 35.3 3.6
      vertex 22.72 32.9 3.6
      vertex 26.72 32.9 3.6
    endloop
  endfacet
  facet normal 0 0 1
    outer loop
      vertex 22.72 32.9 3.6
      vertex -10.72 32.9 3.6
      vertex 22.72 25.1 3.6
    endloop
  endfacet
  facet normal 0 0 1
    outer loop
      vertex 78.6 35.3 3.6
      vertex -10.72 32.9 3.6
      vertex 22.72 32.9 3.6
    endloop
  endfacet
  facet normal -0 0 1
    outer loop
      vertex -78.6 35.3 3.6
      vertex -10.72 32.9 3.6
      vertex 78.6 35.3 3.6
    endloop
  endfacet
  facet normal 0 0 1
    outer loop
      vertex -14.72 32.9 3.6
      vertex -48.16 32.9 3.6
      vertex -14.72 25.1 3.6
    endloop
  endfacet
  facet normal 0 0 1
    outer loop
      vertex -10.72 32.9 3.6
      vertex -78.6 35.3 3.6
      vertex -14.72 32.9 3.6
    endloop
  endfacet
  facet normal 0 0 1
    outer loop
      vertex -14.72 32.9 3.6
      vertex -78.6 35.3 3.6
      vertex -48.16 32.9 3.6
    endloop
  endfacet
  facet normal 0 0 1
    outer loop
      vertex -52.16 32.9 3.6
      vertex -78.6 35.3 3.6
      vertex -52.16 25.1 3.6
    endloop
  endfacet
  facet normal 0 0 1
    outer loop
      vertex -48.16 32.9 3.6
      vertex -78.6 35.3 3.6
      vertex -52.16 32.9 3.6
    endloop
  endfacet
  facet normal 0 0 1
    outer loop
      vertex 78.6 35.3 3.6
      vertex 83.6 83.6 3.6
      vertex 78.6 83.6 3.6
    endloop
  endfacet
  facet normal 0 0 1
    outer loop
      vertex 78.6 22.7 3.6
      vertex 83.6 83.6 3.6
      vertex 78.6 35.3 3.6
    endloop
  endfacet
  facet normal 0 0 1
    outer loop
      vertex 78.6 -6.7 3.6
      vertex 83.6 83.6 3.6
      vertex 78.6 22.7 3.6
    endloop
  endfacet
  facet normal 0 0 1
    outer loop
      vertex 83.6 83.6 3.6
      vertex 78.6 -6.7 3.6
      vertex 83.6 -83.6 3.6
    endloop
  endfacet
  facet normal -0 0 1
    outer loop
      vertex 78.6 -20.4 3.6
      vertex 83.6 -83.6 3.6
      vertex 78.6 -6.7 3.6
    endloop
  endfacet
  facet normal 0 0 1
    outer loop
      vertex 83.6 -83.6 3.6
      vertex 78.6 -20.4 3.6
      vertex 78.6 -83.6 3.6
    endloop
  endfacet
  facet normal -0 0 1
    outer loop
      vertex 64.16 25.1 3.6
      vertex 78.6 22.7 3.6
      vertex 64.16 32.9 3.6
    endloop
  endfacet
  facet normal -0 0 1
    outer loop
      vertex 60.16 25.1 3.6
      vertex 78.6 22.7 3.6
      vertex 64.16 25.1 3.6
    endloop
  endfacet
  facet normal 0 0 1
    outer loop
      vertex 26.72 25.1 3.6
      vertex 60.16 25.1 3.6
      vertex 26.72 32.9 3.6
    endloop
  endfacet
  facet normal -0 0 1
    outer loop
      vertex 26.72 25.1 3.6
      vertex 78.6 22.7 3.6
      vertex 60.16 25.1 3.6
    endloop
  endfacet
  facet normal -0 0 1
    outer loop
      vertex 22.72 25.1 3.6
      vertex 78.6 22.7 3.6
      vertex 26.72 25.1 3.6
    endloop
  endfacet
  facet normal 0 0 1
    outer loop
      vertex -10.72 25.1 3.6
      vertex 22.72 25.1 3.6
      vertex -10.72 32.9 3.6
    endloop
  endfacet
  facet normal -0 0 1
    outer loop
      vertex -10.72 25.1 3.6
      vertex 78.6 22.7 3.6
      vertex 22.72 25.1 3.6
    endloop
  endfacet
  facet normal 0 0 1
    outer loop
      vertex -78.6 22.7 3.6
      vertex -10.72 25.1 3.6
      vertex -14.72 25.1 3.6
    endloop
  endfacet
  facet normal 0 0 1
    outer loop
      vertex -48.16 25.1 3.6
      vertex -14.72 25.1 3.6
      vertex -48.16 32.9 3.6
    endloop
  endfacet
  facet normal 0 0 1
    outer loop
      vertex -78.6 22.7 3.6
      vertex -14.72 25.1 3.6
      vertex -48.16 25.1 3.6
    endloop
  endfacet
  facet normal 0 0 1
    outer loop
      vertex -78.6 22.7 3.6
      vertex -48.16 25.1 3.6
      vertex -52.16 25.1 3.6
    endloop
  endfacet
  facet normal 0 0 1
    outer loop
      vertex -10.72 25.1 3.6
      vertex -78.6 22.7 3.6
      vertex 78.6 22.7 3.6
    endloop
  endfacet
  facet normal 0 0 1
    outer loop
      vertex -78.6 22.7 3.6
      vertex -52.16 25.1 3.6
      vertex -78.6 35.3 3.6
    endloop
  endfacet
  facet normal 0 0 1
    outer loop
      vertex 78.6 -6.7 3.6
      vertex 64.16 -16.9 3.6
      vertex 78.6 -20.4 3.6
    endloop
  endfacet
  facet normal -0 0 1
    outer loop
      vertex 60.16 -16.9 3.6
      vertex 78.6 -20.4 3.6
      vertex 64.16 -16.9 3.6
    endloop
  endfacet
  facet normal 0 0 1
    outer loop
      vertex 26.72 -16.9 3.6
      vertex 60.16 -16.9 3.6
      vertex 26.72 -9.1 3.6
    endloop
  endfacet
  facet normal -0 0 1
    outer loop
      vertex 26.72 -16.9 3.6
      vertex 78.6 -20.4 3.6
      vertex 60.16 -16.9 3.6
    endloop
  endfacet
  facet normal -0 0 1
    outer loop
      vertex 22.72 -16.9 3.6
      vertex 78.6 -20.4 3.6
      vertex 26.72 -16.9 3.6
    endloop
  endfacet
  facet normal 0 0 1
    outer loop
      vertex -10.72 -16.9 3.6
      vertex 22.72 -16.9 3.6
      vertex -10.72 -9.1 3.6
    endloop
  endfacet
  facet normal -0 0 1
    outer loop
      vertex -10.72 -16.9 3.6
      vertex 78.6 -20.4 3.6
      vertex 22.72 -16.9 3.6
    endloop
  endfacet
  facet normal 0 0 1
    outer loop
      vertex -78.6 -20.4 3.6
      vertex -10.72 -16.9 3.6
      vertex -14.72 -16.9 3.6
    endloop
  endfacet
  facet normal 0 0 1
    outer loop
      vertex -48.16 -16.9 3.6
      vertex -14.72 -16.9 3.6
      vertex -48.16 -9.1 3.6
    endloop
  endfacet
  facet normal 0 0 1
    outer loop
      vertex -78.6 -20.4 3.6
      vertex -14.72 -16.9 3.6
      vertex -48.16 -16.9 3.6
    endloop
  endfacet
  facet normal 0 0 1
    outer loop
      vertex -78.6 -20.4 3.6
      vertex -48.16 -16.9 3.6
      vertex -52.16 -16.9 3.6
    endloop
  endfacet
  facet normal 0 0 1
    outer loop
      vertex -10.72 -16.9 3.6
      vertex -78.6 -20.4 3.6
      vertex 78.6 -20.4 3.6
    endloop
  endfacet
  facet normal 0 0 1
    outer loop
      vertex -78.6 -20.4 3.6
      vertex -52.16 -16.9 3.6
      vertex -78.6 -6.7 3.6
    endloop
  endfacet
  facet normal 0 0 -1
    outer loop
      vertex -83.6 -83.6 0
      vertex -78.6 -20.4 0
      vertex -78.6 -83.6 0
    endloop
  endfacet
  facet normal -0 0 -1
    outer loop
      vertex -78.6 -20.4 0
      vertex -83.6 -83.6 0
      vertex -78.6 -6.7 0
    endloop
  endfacet
  facet normal 0 0 -1
    outer loop
      vertex -83.6 83.6 0
      vertex -78.6 -6.7 0
      vertex -83.6 -83.6 0
    endloop
  endfacet
  facet normal 0 0 -1
    outer loop
      vertex -78.6 -6.7 0
      vertex -83.6 83.6 0
      vertex -78.6 22.7 0
    endloop
  endfacet
  facet normal 0 0 -1
    outer loop
      vertex -78.6 22.7 0
      vertex -83.6 83.6 0
      vertex -78.6 35.3 0
    endloop
  endfacet
  facet normal 0 0 -1
    outer loop
      vertex -78.6 35.3 0
      vertex -83.6 83.6 0
      vertex -78.6 83.6 0
    endloop
  endfacet
  facet normal 0 0 -1
    outer loop
      vertex -78.6 22.7 0
      vertex 78.6 35.3 0
      vertex 78.6 22.7 0
    endloop
  endfacet
  facet normal -0 0 -1
    outer loop
      vertex 78.6 35.3 0
      vertex -78.6 22.7 0
      vertex -78.6 35.3 0
    endloop
  endfacet
  facet normal 0 0 -1
    outer loop
      vertex -78.6 -20.4 0
      vertex 78.6 -6.7 0
      vertex 78.6 -20.4 0
    endloop
  endfacet
  facet normal -0 0 -1
    outer loop
      vertex 78.6 -6.7 0
      vertex -78.6 -20.4 0
      vertex -78.6 -6.7 0
    endloop
  endfacet
  facet normal 0 0 -1
    outer loop
      vertex 78.6 -20.4 0
      vertex 83.6 -83.6 0
      vertex 78.6 -83.6 0
    endloop
  endfacet
  facet normal 0 0 -1
    outer loop
      vertex 78.6 -6.7 0
      vertex 83.6 -83.6 0
      vertex 78.6 -20.4 0
    endloop
  endfacet
  facet normal 0 0 -1
    outer loop
      vertex 83.6 -83.6 0
      vertex 78.6 -6.7 0
      vertex 83.6 83.6 0
    endloop
  endfacet
  facet normal 0 0 -1
    outer loop
      vertex 78.6 22.7 0
      vertex 83.6 83.6 0
      vertex 78.6 -6.7 0
    endloop
  endfacet
  facet normal 0 0 -1
    outer loop
      vertex 78.6 35.3 0
      vertex 83.6 83.6 0
      vertex 78.6 22.7 0
    endloop
  endfacet
  facet normal -0 0 -1
    outer loop
      vertex 83.6 83.6 0
      vertex 78.6 35.3 0
      vertex 78.6 83.6 0
    endloop
  endfacet
  facet normal -1 0 0
    outer loop
      vertex 78.6 35.3 0
      vertex 78.6 83.6 3.6
      vertex 78.6 83.6 0
    endloop
  endfacet
  facet normal -1 -0 0
    outer loop
      vertex 78.6 83.6 3.6
      vertex 78.6 35.3 0
      vertex 78.6 35.3 3.6
    endloop
  endfacet
  facet normal -1 0 0
    outer loop
      vertex 78.6 -83.6 0
      vertex 78.6 -20.4 3.6
      vertex 78.6 -20.4 0
    endloop
  endfacet
  facet normal -1 -0 0
    outer loop
      vertex 78.6 -20.4 3.6
      vertex 78.6 -83.6 0
      vertex 78.6 -83.6 3.6
    endloop
  endfacet
  facet normal -1 0 0
    outer loop
      vertex 78.6 -6.7 0
      vertex 78.6 22.7 3.6
      vertex 78.6 22.7 0
    endloop
  endfacet
  facet normal -1 -0 0
    outer loop
      vertex 78.6 22.7 3.6
      vertex 78.6 -6.7 0
      vertex 78.6 -6.7 3.6
    endloop
  endfacet
  facet normal 0 1 -0
    outer loop
      vertex 83.6 83.6 0
      vertex 78.6 83.6 3.6
      vertex 83.6 83.6 3.6
    endloop
  endfacet
  facet normal 0 1 0
    outer loop
      vertex 78.6 83.6 3.6
      vertex 83.6 83.6 0
      vertex 78.6 83.6 0
    endloop
  endfacet
  facet normal 0 -1 0
    outer loop
      vertex 78.6 -83.6 0
      vertex 83.6 -83.6 3.6
      vertex 78.6 -83.6 3.6
    endloop
  endfacet
  facet normal 0 -1 -0
    outer loop
      vertex 83.6 -83.6 3.6
      vertex 78.6 -83.6 0
      vertex 83.6 -83.6 0
    endloop
  endfacet
  facet normal 1 -0 0
    outer loop
      vertex -78.6 35.3 3.6
      vertex -78.6 83.6 0
      vertex -78.6 83.6 3.6
    endloop
  endfacet
  facet normal 1 0 0
    outer loop
      vertex -78.6 83.6 0
      vertex -78.6 35.3 3.6
      vertex -78.6 35.3 0
    endloop
  endfacet
  facet normal 1 -0 0
    outer loop
      vertex -78.6 -83.6 3.6
      vertex -78.6 -20.4 0
      vertex -78.6 -20.4 3.6
    endloop
  endfacet
  facet normal 1 0 0
    outer loop
      vertex -78.6 -20.4 0
      vertex -78.6 -83.6 3.6
      vertex -78.6 -83.6 0
    endloop
  endfacet
  facet normal 1 -0 0
    outer loop
      vertex -78.6 -6.7 3.6
      vertex -78.6 22.7 0
      vertex -78.6 22.7 3.6
    endloop
  endfacet
  facet normal 1 0 0
    outer loop
      vertex -78.6 22.7 0
      vertex -78.6 -6.7 3.6
      vertex -78.6 -6.7 0
    endloop
  endfacet
  facet normal -1 0 0
    outer loop
      vertex -83.6 -83.6 0
      vertex -83.6 83.6 3.6
      vertex -83.6 83.6 0
    endloop
  endfacet
  facet normal -1 -0 0
    outer loop
      vertex -83.6 83.6 3.6
      vertex -83.6 -83.6 0
      vertex -83.6 -83.6 3.6
    endloop
  endfacet
  facet normal 0 1 -0
    outer loop
      vertex -78.6 83.6 0
      vertex -83.6 83.6 3.6
      vertex -78.6 83.6 3.6
    endloop
  endfacet
  facet normal 0 1 0
    outer loop
      vertex -83.6 83.6 3.6
      vertex -78.6 83.6 0
      vertex -83.6 83.6 0
    endloop
  endfacet
  facet normal 0 -1 0
    outer loop
      vertex -83.6 -83.6 0
      vertex -78.6 -83.6 3.6
      vertex -83.6 -83.6 3.6
    endloop
  endfacet
  facet normal 0 -1 -0
    outer loop
      vertex -78.6 -83.6 3.6
      vertex -83.6 -83.6 0
      vertex -78.6 -83.6 0
    endloop
  endfacet
  facet normal 0 1 -0
    outer loop
      vertex 78.6 -6.7 0
      vertex -78.6 -6.7 3.6
      vertex 78.6 -6.7 3.6
    endloop
  endfacet
  facet normal 0 1 0
    outer loop
      vertex -78.6 -6.7 3.6
      vertex 78.6 -6.7 0
      vertex -78.6 -6.7 0
    endloop
  endfacet
  facet normal 0 1 -0
    outer loop
      vertex 78.6 35.3 0
      vertex -78.6 35.3 3.6
      vertex 78.6 35.3 3.6
    endloop
  endfacet
  facet normal 0 1 0
    outer loop
      vertex -78.6 35.3 3.6
      vertex 78.6 35.3 0
      vertex -78.6 35.3 0
    endloop
  endfacet
  facet normal 0 -1 0
    outer loop
      vertex -78.6 22.7 0
      vertex 78.6 22.7 3.6
      vertex -78.6 22.7 3.6
    endloop
  endfacet
  facet normal 0 -1 -0
    outer loop
      vertex 78.6 22.7 3.6
      vertex -78.6 22.7 0
      vertex 78.6 22.7 0
    endloop
  endfacet
  facet normal 0 -1 0
    outer loop
      vertex -78.6 -20.4 0
      vertex 78.6 -20.4 3.6
      vertex -78.6 -20.4 3.6
    endloop
  endfacet
  facet normal 0 -1 -0
    outer loop
      vertex 78.6 -20.4 3.6
      vertex -78.6 -20.4 0
      vertex 78.6 -20.4 0
    endloop
  endfacet
  facet normal -1 0 0
    outer loop
      vertex -48.16 -16.9 1.6
      vertex -48.16 -9.1 3.6
      vertex -48.16 -9.1 1.6
    endloop
  endfacet
  facet normal -1 -0 0
    outer loop
      vertex -48.16 -9.1 3.6
      vertex -48.16 -16.9 1.6
      vertex -48.16 -16.9 3.6
    endloop
  endfacet
  facet normal -0 0 1
    outer loop
      vertex -52.16 -9.1 1.6
      vertex -48.16 -16.9 1.6
      vertex -48.16 -9.1 1.6
    endloop
  endfacet
  facet normal 0 0 1
    outer loop
      vertex -48.16 -16.9 1.6
      vertex -52.16 -9.1 1.6
      vertex -52.16 -16.9 1.6
    endloop
  endfacet
  facet normal 1 -0 0
    outer loop
      vertex -52.16 -16.9 3.6
      vertex -52.16 -9.1 1.6
      vertex -52.16 -9.1 3.6
    endloop
  endfacet
  facet normal 1 0 0
    outer loop
      vertex -52.16 -9.1 1.6
      vertex -52.16 -16.9 3.6
      vertex -52.16 -16.9 1.6
    endloop
  endfacet
  facet normal 0 -1 0
    outer loop
      vertex -52.16 -9.1 1.6
      vertex -48.16 -9.1 3.6
      vertex -52.16 -9.1 3.6
    endloop
  endfacet
  facet normal 0 -1 -0
    outer loop
      vertex -48.16 -9.1 3.6
      vertex -52.16 -9.1 1.6
      vertex -48.16 -9.1 1.6
    endloop
  endfacet
  facet normal 0 1 -0
    outer loop
      vertex -48.16 -16.9 1.6
      vertex -52.16 -16.9 3.6
      vertex -48.16 -16.9 3.6
    endloop
  endfacet
  facet normal 0 1 0
    outer loop
      vertex -52.16 -16.9 3.6
      vertex -48.16 -16.9 1.6
      vertex -52.16 -16.9 1.6
    endloop
  endfacet
  facet normal -1 0 0
    outer loop
      vertex -48.16 25.1 1.6
      vertex -48.16 32.9 3.6
      vertex -48.16 32.9 1.6
    endloop
  endfacet
  facet normal -1 -0 0
    outer loop
      vertex -48.16 32.9 3.6
      vertex -48.16 25.1 1.6
      vertex -48.16 25.1 3.6
    endloop
  endfacet
  facet normal -0 0 1
    outer loop
      vertex -52.16 32.9 1.6
      vertex -48.16 25.1 1.6
      vertex -48.16 32.9 1.6
    endloop
  endfacet
  facet normal 0 0 1
    outer loop
      vertex -48.16 25.1 1.6
      vertex -52.16 32.9 1.6
      vertex -52.16 25.1 1.6
    endloop
  endfacet
  facet normal 1 -0 0
    outer loop
      vertex -52.16 25.1 3.6
      vertex -52.16 32.9 1.6
      vertex -52.16 32.9 3.6
    endloop
  endfacet
  facet normal 1 0 0
    outer loop
      vertex -52.16 32.9 1.6
      vertex -52.16 25.1 3.6
      vertex -52.16 25.1 1.6
    endloop
  endfacet
  facet normal 0 -1 0
    outer loop
      vertex -52.16 32.9 1.6
      vertex -48.16 32.9 3.6
      vertex -52.16 32.9 3.6
    endloop
  endfacet
  facet normal 0 -1 -0
    outer loop
      vertex -48.16 32.9 3.6
      vertex -52.16 32.9 1.6
      vertex -48.16 32.9 1.6
    endloop
  endfacet
  facet normal 0 1 -0
    outer loop
      vertex -48.16 25.1 1.6
      vertex -52.16 25.1 3.6
      vertex -48.16 25.1 3.6
    endloop
  endfacet
  facet normal 0 1 0
    outer loop
      vertex -52.16 25.1 3.6
      vertex -48.16 25.1 1.6
      vertex -52.16 25.1 1.6
    endloop
  endfacet
  facet normal -1 0 0
    outer loop
      vertex -10.72 -16.9 1.6
      vertex -10.72 -9.1 3.6
      vertex -10.72 -9.1 1.6
    endloop
  endfacet
  facet normal -1 -0 0
    outer loop
      vertex -10.72 -9.1 3.6
      vertex -10.72 -16.9 1.6
      vertex -10.72 -16.9 3.6
    endloop
  endfacet
  facet normal -0 0 1
    outer loop
      vertex -14.72 -9.1 1.6
      vertex -10.72 -16.9 1.6
      vertex -10.72 -9.1 1.6
    endloop
  endfacet
  facet normal 0 0 1
    outer loop
      vertex -10.72 -16.9 1.6
      vertex -14.72 -9.1 1.6
      vertex -14.72 -16.9 1.6
    endloop
  endfacet
  facet normal 1 -0 0
    outer loop
      vertex -14.72 -16.9 3.6
      vertex -14.72 -9.1 1.6
      vertex -14.72 -9.1 3.6
    endloop
  endfacet
  facet normal 1 0 0
    outer loop
      vertex -14.72 -9.1 1.6
      vertex -14.72 -16.9 3.6
      vertex -14.72 -16.9 1.6
    endloop
  endfacet
  facet normal 0 -1 0
    outer loop
      vertex -14.72 -9.1 1.6
      vertex -10.72 -9.1 3.6
      vertex -14.72 -9.1 3.6
    endloop
  endfacet
  facet normal 0 -1 -0
    outer loop
      vertex -10.72 -9.1 3.6
      vertex -14.72 -9.1 1.6
      vertex -10.72 -9.1 1.6
    endloop
  endfacet
  facet normal 0 1 -0
    outer loop
      vertex -10.72 -16.9 1.6
      vertex -14.72 -16.9 3.6
      vertex -10.72 -16.9 3.6
    endloop
  endfacet
  facet normal 0 1 0
    outer loop
      vertex -14.72 -16.9 3.6
      vertex -10.72 -16.9 1.6
      vertex -14.72 -16.9 1.6
    endloop
  endfacet
  facet normal -1 0 0
    outer loop
      vertex -10.72 25.1 1.6
      vertex -10.72 32.9 3.6
      vertex -10.72 32.9 1.6
    endloop
  endfacet
  facet normal -1 -0 0
    outer loop
      vertex -10.72 32.9 3.6
      vertex -10.72 25.1 1.6
      vertex -10.72 25.1 3.6
    endloop
  endfacet
  facet normal -0 0 1
    outer loop
      vertex -14.72 32.9 1.6
      vertex -10.72 25.1 1.6
      vertex -10.72 32.9 1.6
    endloop
  endfacet
  facet normal 0 0 1
    outer loop
      vertex -10.72 25.1 1.6
      vertex -14.72 32.9 1.6
      vertex -14.72 25.1 1.6
    endloop
  endfacet
  facet normal 1 -0 0
    outer loop
      vertex -14.72 25.1 3.6
      vertex -14.72 32.9 1.6
      vertex -14.72 32.9 3.6
    endloop
  endfacet
  facet normal 1 0 0
    outer loop
      vertex -14.72 32.9 1.6
      vertex -14.72 25.1 3.6
      vertex -14.72 25.1 1.6
    endloop
  endfacet
  facet normal 0 -1 0
    outer loop
      vertex -14.72 32.9 1.6
      vertex -10.72 32.9 3.6
      vertex -14.72 32.9 3.6
    endloop
  endfacet
  facet normal 0 -1 -0
    outer loop
      vertex -10.72 32.9 3.6
      vertex -14.72 32.9 1.6
      vertex -10.72 32.9 1.6
    endloop
  endfacet
  facet normal 0 1 -0
    outer loop
      vertex -10.72 25.1 1.6
      vertex -14.72 25.1 3.6
      vertex -10.72 25.1 3.6
    endloop
  endfacet
  facet normal 0 1 0
    outer loop
      vertex -14.72 25.1 3.6
      vertex -10.72 25.1 1.6
      vertex -14.72 25.1 1.6
    endloop
  endfacet
  facet normal -1 0 0
    outer loop
      vertex 26.72 -16.9 1.6
      vertex 26.72 -9.1 3.6
      vertex 26.72 -9.1 1.6
    endloop
  endfacet
  facet normal -1 -0 0
    outer loop
      vertex 26.72 -9.1 3.6
      vertex 26.72 -16.9 1.6
      vertex 26.72 -16.9 3.6
    endloop
  endfacet
  facet normal -0 0 1
    outer loop
      vertex 22.72 -9.1 1.6
      vertex 26.72 -16.9 1.6
      vertex 26.72 -9.1 1.6
    endloop
  endfacet
  facet normal 0 0 1
    outer loop
      vertex 26.72 -16.9 1.6
      vertex 22.72 -9.1 1.6
      vertex 22.72 -16.9 1.6
    endloop
  endfacet
  facet normal 1 -0 0
    outer loop
      vertex 22.72 -16.9 3.6
      vertex 22.72 -9.1 1.6
      vertex 22.72 -9.1 3.6
    endloop
  endfacet
  facet normal 1 0 0
    outer loop
      vertex 22.72 -9.1 1.6
      vertex 22.72 -16.9 3.6
      vertex 22.72 -16.9 1.6
    endloop
  endfacet
  facet normal 0 -1 0
    outer loop
      vertex 22.72 -9.1 1.6
      vertex 26.72 -9.1 3.6
      vertex 22.72 -9.1 3.6
    endloop
  endfacet
  facet normal 0 -1 -0
    outer loop
      vertex 26.72 -9.1 3.6
      vertex 22.72 -9.1 1.6
      vertex 26.72 -9.1 1.6
    endloop
  endfacet
  facet normal 0 1 -0
    outer loop
      vertex 26.72 -16.9 1.6
      vertex 22.72 -16.9 3.6
      vertex 26.72 -16.9 3.6
    endloop
  endfacet
  facet normal 0 1 0
    outer loop
      vertex 22.72 -16.9 3.6
      vertex 26.72 -16.9 1.6
      vertex 22.72 -16.9 1.6
    endloop
  endfacet
  facet normal -1 0 0
    outer loop
      vertex 26.72 25.1 1.6
      vertex 26.72 32.9 3.6
      vertex 26.72 32.9 1.6
    endloop
  endfacet
  facet normal -1 -0 0
    outer loop
      vertex 26.72 32.9 3.6
      vertex 26.72 25.1 1.6
      vertex 26.72 25.1 3.6
    endloop
  endfacet
  facet normal -0 0 1
    outer loop
      vertex 22.72 32.9 1.6
      vertex 26.72 25.1 1.6
      vertex 26.72 32.9 1.6
    endloop
  endfacet
  facet normal 0 0 1
    outer loop
      vertex 26.72 25.1 1.6
      vertex 22.72 32.9 1.6
      vertex 22.72 25.1 1.6
    endloop
  endfacet
  facet normal 1 -0 0
    outer loop
      vertex 22.72 25.1 3.6
      vertex 22.72 32.9 1.6
      vertex 22.72 32.9 3.6
    endloop
  endfacet
  facet normal 1 0 0
    outer loop
      vertex 22.72 32.9 1.6
      vertex 22.72 25.1 3.6
      vertex 22.72 25.1 1.6
    endloop
  endfacet
  facet normal 0 -1 0
    outer loop
      vertex 22.72 32.9 1.6
      vertex 26.72 32.9 3.6
      vertex 22.72 32.9 3.6
    endloop
  endfacet
  facet normal 0 -1 -0
    outer loop
      vertex 26.72 32.9 3.6
      vertex 22.72 32.9 1.6
      vertex 26.72 32.9 1.6
    endloop
  endfacet
  facet normal 0 1 -0
    outer loop
      vertex 26.72 25.1 1.6
      vertex 22.72 25.1 3.6
      vertex 26.72 25.1 3.6
    endloop
  endfacet
  facet normal 0 1 0
    outer loop
      vertex 22.72 25.1 3.6
      vertex 26.72 25.1 1.6
      vertex 22.72 25.1 1.6
    endloop
  endfacet
  facet normal -1 0 0
    outer loop
      vertex 64.16 -16.9 1.6
      vertex 64.16 -9.1 3.6
      vertex 64.16 -9.1 1.6
    endloop
  endfacet
  facet normal -1 -0 0
    outer loop
      vertex 64.16 -9.1 3.6
      vertex 64.16 -16.9 1.6
      vertex 64.16 -16.9 3.6
    endloop
  endfacet
  facet normal -0 0 1
    outer loop
      vertex 60.16 -9.1 1.6
      vertex 64.16 -16.9 1.6
      vertex 64.16 -9.1 1.6
    endloop
  endfacet
  facet normal 0 0 1
    outer loop
      vertex 64.16 -16.9 1.6
      vertex 60.16 -9.1 1.6
      vertex 60.16 -16.9 1.6
    endloop
  endfacet
  facet normal 1 -0 0
    outer loop
      vertex 60.16 -16.9 3.6
      vertex 60.16 -9.1 1.6
      vertex 60.16 -9.1 3.6
    endloop
  endfacet
  facet normal 1 0 0
    outer loop
      vertex 60.16 -9.1 1.6
      vertex 60.16 -16.9 3.6
      vertex 60.16 -16.9 1.6
    endloop
  endfacet
  facet normal 0 -1 0
    outer loop
      vertex 60.16 -9.1 1.6
      vertex 64.16 -9.1 3.6
      vertex 60.16 -9.1 3.6
    endloop
  endfacet
  facet normal 0 -1 -0
    outer loop
      vertex 64.16 -9.1 3.6
      vertex 60.16 -9.1 1.6
      vertex 64.16 -9.1 1.6
    endloop
  endfacet
  facet normal 0 1 -0
    outer loop
      vertex 64.16 -16.9 1.6
      vertex 60.16 -16.9 3.6
      vertex 64.16 -16.9 3.6
    endloop
  endfacet
  facet normal 0 1 0
    outer loop
      vertex 60.16 -16.9 3.6
      vertex 64.16 -16.9 1.6
      vertex 60.16 -16.9 1.6
    endloop
  endfacet
  facet normal -1 0 0
    outer loop
      vertex 64.16 25.1 1.6
      vertex 64.16 32.9 3.6
      vertex 64.16 32.9 1.6
    endloop
  endfacet
  facet normal -1 -0 0
    outer loop
      vertex 64.16 32.9 3.6
      vertex 64.16 25.1 1.6
      vertex 64.16 25.1 3.6
    endloop
  endfacet
  facet normal -0 0 1
    outer loop
      vertex 60.16 32.9 1.6
      vertex 64.16 25.1 1.6
      vertex 64.16 32.9 1.6
    endloop
  endfacet
  facet normal 0 0 1
    outer loop
      vertex 64.16 25.1 1.6
      vertex 60.16 32.9 1.6
      vertex 60.16 25.1 1.6
    endloop
  endfacet
  facet normal 1 -0 0
    outer loop
      vertex 60.16 25.1 3.6
      vertex 60.16 32.9 1.6
      vertex 60.16 32.9 3.6
    endloop
  endfacet
  facet normal 1 0 0
    outer loop
      vertex 60.16 32.9 1.6
      vertex 60.16 25.1 3.6
      vertex 60.16 25.1 1.6
    endloop
  endfacet
  facet normal 0 -1 0
    outer loop
      vertex 60.16 32.9 1.6
      vertex 64.16 32.9 3.6
      vertex 60.16 32.9 3.6
    endloop
  endfacet
  facet normal 0 -1 -0
    outer loop
      vertex 64.16 32.9 3.6
      vertex 60.16 32.9 1.6
      vertex 64.16 32.9 1.6
    endloop
  endfacet
  facet normal 0 1 -0
    outer loop
      vertex 64.16 25.1 1.6
      vertex 60.16 25.1 3.6
      vertex 64.16 25.1 3.6
    endloop
  endfacet
  facet normal 0 1 0
    outer loop
      vertex 60.16 25.1 3.6
      vertex 64.16 25.1 1.6
      vertex 60.16 25.1 1.6
    endloop
  endfacet
endsolid OpenSCAD_Model
