solid OpenSCAD_Model
  facet normal -1 0 0
    outer loop
      vertex -73.4 -79.4 3.8147e-07
      vertex -73.4 79.4 2.4
      vertex -73.4 79.4 3.8147e-07
    endloop
  endfacet
  facet normal -1 -0 0
    outer loop
      vertex -73.4 79.4 2.4
      vertex -73.4 -79.4 3.8147e-07
      vertex -73.4 -79.4 2.4
    endloop
  endfacet
  facet normal 0 0 -1
    outer loop
      vertex -73.4 -79.4 3.8147e-07
      vertex -70 -22 3.8147e-07
      vertex -70 -79.4 3.8147e-07
    endloop
  endfacet
  facet normal -0 0 -1
    outer loop
      vertex -70 -22 3.8147e-07
      vertex -73.4 -79.4 3.8147e-07
      vertex -70 -6.7 3.8147e-07
    endloop
  endfacet
  facet normal 0 0 -1
    outer loop
      vertex -73.4 79.4 3.8147e-07
      vertex -70 -6.7 3.8147e-07
      vertex -73.4 -79.4 3.8147e-07
    endloop
  endfacet
  facet normal 0 0 -1
    outer loop
      vertex -70 -6.7 3.8147e-07
      vertex -73.4 79.4 3.8147e-07
      vertex -70 22.7 3.8147e-07
    endloop
  endfacet
  facet normal 0 0 -1
    outer loop
      vertex -70 22.7 3.8147e-07
      vertex -73.4 79.4 3.8147e-07
      vertex -70 35.3 3.8147e-07
    endloop
  endfacet
  facet normal 0 0 -1
    outer loop
      vertex -70 35.3 3.8147e-07
      vertex -73.4 79.4 3.8147e-07
      vertex -70 79.4 3.8147e-07
    endloop
  endfacet
  facet normal 0 0 -1
    outer loop
      vertex -70 22.7 3.8147e-07
      vertex 70 35.3 3.8147e-07
      vertex 70 22.7 3.8147e-07
    endloop
  endfacet
  facet normal -0 0 -1
    outer loop
      vertex 70 35.3 3.8147e-07
      vertex -70 22.7 3.8147e-07
      vertex -70 35.3 3.8147e-07
    endloop
  endfacet
  facet normal 0 0 -1
    outer loop
      vertex -70 -22 3.8147e-07
      vertex 70 -6.7 3.8147e-07
      vertex 70 -22 3.8147e-07
    endloop
  endfacet
  facet normal -0 0 -1
    outer loop
      vertex 70 -6.7 3.8147e-07
      vertex -70 -22 3.8147e-07
      vertex -70 -6.7 3.8147e-07
    endloop
  endfacet
  facet normal 0 0 -1
    outer loop
      vertex 70 -22 3.8147e-07
      vertex 73.4 -79.4 3.8147e-07
      vertex 70 -79.4 3.8147e-07
    endloop
  endfacet
  facet normal 0 0 -1
    outer loop
      vertex 70 -6.7 3.8147e-07
      vertex 73.4 -79.4 3.8147e-07
      vertex 70 -22 3.8147e-07
    endloop
  endfacet
  facet normal 0 0 -1
    outer loop
      vertex 73.4 -79.4 3.8147e-07
      vertex 70 -6.7 3.8147e-07
      vertex 73.4 79.4 3.8147e-07
    endloop
  endfacet
  facet normal 0 0 -1
    outer loop
      vertex 70 22.7 3.8147e-07
      vertex 73.4 79.4 3.8147e-07
      vertex 70 -6.7 3.8147e-07
    endloop
  endfacet
  facet normal 0 0 -1
    outer loop
      vertex 70 35.3 3.8147e-07
      vertex 73.4 79.4 3.8147e-07
      vertex 70 22.7 3.8147e-07
    endloop
  endfacet
  facet normal -0 0 -1
    outer loop
      vertex 73.4 79.4 3.8147e-07
      vertex 70 35.3 3.8147e-07
      vertex 70 79.4 3.8147e-07
    endloop
  endfacet
  facet normal -0 0 1
    outer loop
      vertex -73.4 79.4 2.4
      vertex -70 35.3 2.4
      vertex -70 79.4 2.4
    endloop
  endfacet
  facet normal 0 0 1
    outer loop
      vertex -70 35.3 2.4
      vertex -73.4 79.4 2.4
      vertex -70 22.7 2.4
    endloop
  endfacet
  facet normal 0 0 1
    outer loop
      vertex -70 22.7 2.4
      vertex -73.4 79.4 2.4
      vertex -70 -6.7 2.4
    endloop
  endfacet
  facet normal 0 0 1
    outer loop
      vertex -73.4 -79.4 2.4
      vertex -70 -6.7 2.4
      vertex -73.4 79.4 2.4
    endloop
  endfacet
  facet normal 0 0 1
    outer loop
      vertex -70 -6.7 2.4
      vertex -73.4 -79.4 2.4
      vertex -70 -22 2.4
    endloop
  endfacet
  facet normal 0 0 1
    outer loop
      vertex -70 -22 2.4
      vertex -73.4 -79.4 2.4
      vertex -70 -79.4 2.4
    endloop
  endfacet
  facet normal 0 0 1
    outer loop
      vertex 46.36 -17.7 2.4
      vertex 70 -6.7 2.4
      vertex 46.36 -8.3 2.4
    endloop
  endfacet
  facet normal 0 0 1
    outer loop
      vertex 70 -6.7 2.4
      vertex 41.56 -8.3 2.4
      vertex 46.36 -8.3 2.4
    endloop
  endfacet
  facet normal 0 0 1
    outer loop
      vertex 41.56 -8.3 2.4
      vertex 12.92 -8.3 2.4
      vertex 41.56 -17.7 2.4
    endloop
  endfacet
  facet normal 0 0 1
    outer loop
      vertex 70 -6.7 2.4
      vertex 12.92 -8.3 2.4
      vertex 41.56 -8.3 2.4
    endloop
  endfacet
  facet normal 0 0 1
    outer loop
      vertex 70 -6.7 2.4
      vertex 8.12 -8.3 2.4
      vertex 12.92 -8.3 2.4
    endloop
  endfacet
  facet normal 0 0 1
    outer loop
      vertex 8.12 -8.3 2.4
      vertex -20.52 -8.3 2.4
      vertex 8.12 -17.7 2.4
    endloop
  endfacet
  facet normal 0 0 1
    outer loop
      vertex 70 -6.7 2.4
      vertex -20.52 -8.3 2.4
      vertex 8.12 -8.3 2.4
    endloop
  endfacet
  facet normal -0 0 1
    outer loop
      vertex -70 -6.7 2.4
      vertex -20.52 -8.3 2.4
      vertex 70 -6.7 2.4
    endloop
  endfacet
  facet normal 0 0 1
    outer loop
      vertex -25.32 -8.3 2.4
      vertex -53.96 -8.3 2.4
      vertex -25.32 -17.7 2.4
    endloop
  endfacet
  facet normal 0 0 1
    outer loop
      vertex -20.52 -8.3 2.4
      vertex -70 -6.7 2.4
      vertex -25.32 -8.3 2.4
    endloop
  endfacet
  facet normal 0 0 1
    outer loop
      vertex -25.32 -8.3 2.4
      vertex -70 -6.7 2.4
      vertex -53.96 -8.3 2.4
    endloop
  endfacet
  facet normal 0 0 1
    outer loop
      vertex -58.76 -8.3 2.4
      vertex -70 -6.7 2.4
      vertex -58.76 -17.7 2.4
    endloop
  endfacet
  facet normal 0 0 1
    outer loop
      vertex -53.96 -8.3 2.4
      vertex -70 -6.7 2.4
      vertex -58.76 -8.3 2.4
    endloop
  endfacet
  facet normal 0 0 1
    outer loop
      vertex 70 35.3 2.4
      vertex 46.36 33.7 2.4
      vertex 70 22.7 2.4
    endloop
  endfacet
  facet normal 0 0 1
    outer loop
      vertex 70 35.3 2.4
      vertex 41.56 33.7 2.4
      vertex 46.36 33.7 2.4
    endloop
  endfacet
  facet normal 0 0 1
    outer loop
      vertex 41.56 33.7 2.4
      vertex 12.92 33.7 2.4
      vertex 41.56 24.3 2.4
    endloop
  endfacet
  facet normal 0 0 1
    outer loop
      vertex 70 35.3 2.4
      vertex 12.92 33.7 2.4
      vertex 41.56 33.7 2.4
    endloop
  endfacet
  facet normal 0 0 1
    outer loop
      vertex 70 35.3 2.4
      vertex 8.12 33.7 2.4
      vertex 12.92 33.7 2.4
    endloop
  endfacet
  facet normal 0 0 1
    outer loop
      vertex 8.12 33.7 2.4
      vertex -20.52 33.7 2.4
      vertex 8.12 24.3 2.4
    endloop
  endfacet
  facet normal 0 0 1
    outer loop
      vertex 70 35.3 2.4
      vertex -20.52 33.7 2.4
      vertex 8.12 33.7 2.4
    endloop
  endfacet
  facet normal -0 0 1
    outer loop
      vertex -70 35.3 2.4
      vertex -20.52 33.7 2.4
      vertex 70 35.3 2.4
    endloop
  endfacet
  facet normal 0 0 1
    outer loop
      vertex -25.32 33.7 2.4
      vertex -53.96 33.7 2.4
      vertex -25.32 24.3 2.4
    endloop
  endfacet
  facet normal 0 0 1
    outer loop
      vertex -20.52 33.7 2.4
      vertex -70 35.3 2.4
      vertex -25.32 33.7 2.4
    endloop
  endfacet
  facet normal 0 0 1
    outer loop
      vertex -25.32 33.7 2.4
      vertex -70 35.3 2.4
      vertex -53.96 33.7 2.4
    endloop
  endfacet
  facet normal 0 0 1
    outer loop
      vertex -58.76 33.7 2.4
      vertex -70 35.3 2.4
      vertex -58.76 24.3 2.4
    endloop
  endfacet
  facet normal 0 0 1
    outer loop
      vertex -53.96 33.7 2.4
      vertex -70 35.3 2.4
      vertex -58.76 33.7 2.4
    endloop
  endfacet
  facet normal 0 0 1
    outer loop
      vertex 70 35.3 2.4
      vertex 73.4 79.4 2.4
      vertex 70 79.4 2.4
    endloop
  endfacet
  facet normal 0 0 1
    outer loop
      vertex 70 22.7 2.4
      vertex 73.4 79.4 2.4
      vertex 70 35.3 2.4
    endloop
  endfacet
  facet normal 0 0 1
    outer loop
      vertex 70 -6.7 2.4
      vertex 73.4 79.4 2.4
      vertex 70 22.7 2.4
    endloop
  endfacet
  facet normal 0 0 1
    outer loop
      vertex 73.4 79.4 2.4
      vertex 70 -6.7 2.4
      vertex 73.4 -79.4 2.4
    endloop
  endfacet
  facet normal -0 0 1
    outer loop
      vertex 70 -22 2.4
      vertex 73.4 -79.4 2.4
      vertex 70 -6.7 2.4
    endloop
  endfacet
  facet normal 0 0 1
    outer loop
      vertex 73.4 -79.4 2.4
      vertex 70 -22 2.4
      vertex 70 -79.4 2.4
    endloop
  endfacet
  facet normal -0 0 1
    outer loop
      vertex 46.36 24.3 2.4
      vertex 70 22.7 2.4
      vertex 46.36 33.7 2.4
    endloop
  endfacet
  facet normal -0 0 1
    outer loop
      vertex 41.56 24.3 2.4
      vertex 70 22.7 2.4
      vertex 46.36 24.3 2.4
    endloop
  endfacet
  facet normal 0 0 1
    outer loop
      vertex 12.92 24.3 2.4
      vertex 41.56 24.3 2.4
      vertex 12.92 33.7 2.4
    endloop
  endfacet
  facet normal -0 0 1
    outer loop
      vertex 12.92 24.3 2.4
      vertex 70 22.7 2.4
      vertex 41.56 24.3 2.4
    endloop
  endfacet
  facet normal -0 0 1
    outer loop
      vertex 8.12 24.3 2.4
      vertex 70 22.7 2.4
      vertex 12.92 24.3 2.4
    endloop
  endfacet
  facet normal 0 0 1
    outer loop
      vertex -20.52 24.3 2.4
      vertex 8.12 24.3 2.4
      vertex -20.52 33.7 2.4
    endloop
  endfacet
  facet normal -0 0 1
    outer loop
      vertex -20.52 24.3 2.4
      vertex 70 22.7 2.4
      vertex 8.12 24.3 2.4
    endloop
  endfacet
  facet normal 0 0 1
    outer loop
      vertex -70 22.7 2.4
      vertex -20.52 24.3 2.4
      vertex -25.32 24.3 2.4
    endloop
  endfacet
  facet normal 0 0 1
    outer loop
      vertex -53.96 24.3 2.4
      vertex -25.32 24.3 2.4
      vertex -53.96 33.7 2.4
    endloop
  endfacet
  facet normal 0 0 1
    outer loop
      vertex -70 22.7 2.4
      vertex -25.32 24.3 2.4
      vertex -53.96 24.3 2.4
    endloop
  endfacet
  facet normal 0 0 1
    outer loop
      vertex -70 22.7 2.4
      vertex -53.96 24.3 2.4
      vertex -58.76 24.3 2.4
    endloop
  endfacet
  facet normal 0 0 1
    outer loop
      vertex -20.52 24.3 2.4
      vertex -70 22.7 2.4
      vertex 70 22.7 2.4
    endloop
  endfacet
  facet normal 0 0 1
    outer loop
      vertex -70 22.7 2.4
      vertex -58.76 24.3 2.4
      vertex -70 35.3 2.4
    endloop
  endfacet
  facet normal 0 0 1
    outer loop
      vertex 70 -6.7 2.4
      vertex 46.36 -17.7 2.4
      vertex 70 -22 2.4
    endloop
  endfacet
  facet normal -0 0 1
    outer loop
      vertex 41.56 -17.7 2.4
      vertex 70 -22 2.4
      vertex 46.36 -17.7 2.4
    endloop
  endfacet
  facet normal 0 0 1
    outer loop
      vertex 12.92 -17.7 2.4
      vertex 41.56 -17.7 2.4
      vertex 12.92 -8.3 2.4
    endloop
  endfacet
  facet normal -0 0 1
    outer loop
      vertex 12.92 -17.7 2.4
      vertex 70 -22 2.4
      vertex 41.56 -17.7 2.4
    endloop
  endfacet
  facet normal -0 0 1
    outer loop
      vertex 8.12 -17.7 2.4
      vertex 70 -22 2.4
      vertex 12.92 -17.7 2.4
    endloop
  endfacet
  facet normal 0 0 1
    outer loop
      vertex -20.52 -17.7 2.4
      vertex 8.12 -17.7 2.4
      vertex -20.52 -8.3 2.4
    endloop
  endfacet
  facet normal 0 0 1
    outer loop
      vertex -70 -22 2.4
      vertex 8.12 -17.7 2.4
      vertex -20.52 -17.7 2.4
    endloop
  endfacet
  facet normal 0 0 1
    outer loop
      vertex -70 -22 2.4
      vertex -20.52 -17.7 2.4
      vertex -25.32 -17.7 2.4
    endloop
  endfacet
  facet normal 0 0 1
    outer loop
      vertex -53.96 -17.7 2.4
      vertex -25.32 -17.7 2.4
      vertex -53.96 -8.3 2.4
    endloop
  endfacet
  facet normal 0 0 1
    outer loop
      vertex -70 -22 2.4
      vertex -25.32 -17.7 2.4
      vertex -53.96 -17.7 2.4
    endloop
  endfacet
  facet normal 0 0 1
    outer loop
      vertex -70 -22 2.4
      vertex -53.96 -17.7 2.4
      vertex -58.76 -17.7 2.4
    endloop
  endfacet
  facet normal 0 0 1
    outer loop
      vertex 8.12 -17.7 2.4
      vertex -70 -22 2.4
      vertex 70 -22 2.4
    endloop
  endfacet
  facet normal 0 0 1
    outer loop
      vertex -70 -22 2.4
      vertex -58.76 -17.7 2.4
      vertex -70 -6.7 2.4
    endloop
  endfacet
  facet normal 1 -0 0
    outer loop
      vertex -70 35.3 2.4
      vertex -70 79.4 3.8147e-07
      vertex -70 79.4 2.4
    endloop
  endfacet
  facet normal 1 0 0
    outer loop
      vertex -70 79.4 3.8147e-07
      vertex -70 35.3 2.4
      vertex -70 35.3 3.8147e-07
    endloop
  endfacet
  facet normal 1 -0 0
    outer loop
      vertex -70 -79.4 2.4
      vertex -70 -22 3.8147e-07
      vertex -70 -22 2.4
    endloop
  endfacet
  facet normal 1 0 0
    outer loop
      vertex -70 -22 3.8147e-07
      vertex -70 -79.4 2.4
      vertex -70 -79.4 3.8147e-07
    endloop
  endfacet
  facet normal 1 -0 0
    outer loop
      vertex -70 -6.7 2.4
      vertex -70 22.7 3.8147e-07
      vertex -70 22.7 2.4
    endloop
  endfacet
  facet normal 1 0 0
    outer loop
      vertex -70 22.7 3.8147e-07
      vertex -70 -6.7 2.4
      vertex -70 -6.7 3.8147e-07
    endloop
  endfacet
  facet normal 0 1 -0
    outer loop
      vertex -70 79.4 3.8147e-07
      vertex -73.4 79.4 2.4
      vertex -70 79.4 2.4
    endloop
  endfacet
  facet normal 0 1 0
    outer loop
      vertex -73.4 79.4 2.4
      vertex -70 79.4 3.8147e-07
      vertex -73.4 79.4 3.8147e-07
    endloop
  endfacet
  facet normal 0 -1 0
    outer loop
      vertex -73.4 -79.4 3.8147e-07
      vertex -70 -79.4 2.4
      vertex -73.4 -79.4 2.4
    endloop
  endfacet
  facet normal 0 -1 -0
    outer loop
      vertex -70 -79.4 2.4
      vertex -73.4 -79.4 3.8147e-07
      vertex -70 -79.4 3.8147e-07
    endloop
  endfacet
  facet normal -1 0 0
    outer loop
      vertex 70 35.3 3.8147e-07
      vertex 70 79.4 2.4
      vertex 70 79.4 3.8147e-07
    endloop
  endfacet
  facet normal -1 -0 0
    outer loop
      vertex 70 79.4 2.4
      vertex 70 35.3 3.8147e-07
      vertex 70 35.3 2.4
    endloop
  endfacet
  facet normal -1 0 0
    outer loop
      vertex 70 -79.4 3.8147e-07
      vertex 70 -22 2.4
      vertex 70 -22 3.8147e-07
    endloop
  endfacet
  facet normal -1 -0 0
    outer loop
      vertex 70 -22 2.4
      vertex 70 -79.4 3.8147e-07
      vertex 70 -79.4 2.4
    endloop
  endfacet
  facet normal -1 0 0
    outer loop
      vertex 70 -6.7 3.8147e-07
      vertex 70 22.7 2.4
      vertex 70 22.7 3.8147e-07
    endloop
  endfacet
  facet normal -1 -0 0
    outer loop
      vertex 70 22.7 2.4
      vertex 70 -6.7 3.8147e-07
      vertex 70 -6.7 2.4
    endloop
  endfacet
  facet normal 1 -0 0
    outer loop
      vertex 73.4 -79.4 2.4
      vertex 73.4 79.4 3.8147e-07
      vertex 73.4 79.4 2.4
    endloop
  endfacet
  facet normal 1 0 0
    outer loop
      vertex 73.4 79.4 3.8147e-07
      vertex 73.4 -79.4 2.4
      vertex 73.4 -79.4 3.8147e-07
    endloop
  endfacet
  facet normal 0 1 -0
    outer loop
      vertex 73.4 79.4 3.8147e-07
      vertex 70 79.4 2.4
      vertex 73.4 79.4 2.4
    endloop
  endfacet
  facet normal 0 1 0
    outer loop
      vertex 70 79.4 2.4
      vertex 73.4 79.4 3.8147e-07
      vertex 70 79.4 3.8147e-07
    endloop
  endfacet
  facet normal 0 -1 0
    outer loop
      vertex 70 -79.4 3.8147e-07
      vertex 73.4 -79.4 2.4
      vertex 70 -79.4 2.4
    endloop
  endfacet
  facet normal 0 -1 -0
    outer loop
      vertex 73.4 -79.4 2.4
      vertex 70 -79.4 3.8147e-07
      vertex 73.4 -79.4 3.8147e-07
    endloop
  endfacet
  facet normal 0 1 -0
    outer loop
      vertex 70 -6.7 3.8147e-07
      vertex -70 -6.7 2.4
      vertex 70 -6.7 2.4
    endloop
  endfacet
  facet normal 0 1 0
    outer loop
      vertex -70 -6.7 2.4
      vertex 70 -6.7 3.8147e-07
      vertex -70 -6.7 3.8147e-07
    endloop
  endfacet
  facet normal 0 1 -0
    outer loop
      vertex 70 35.3 3.8147e-07
      vertex -70 35.3 2.4
      vertex 70 35.3 2.4
    endloop
  endfacet
  facet normal 0 1 0
    outer loop
      vertex -70 35.3 2.4
      vertex 70 35.3 3.8147e-07
      vertex -70 35.3 3.8147e-07
    endloop
  endfacet
  facet normal 0 -1 0
    outer loop
      vertex -70 22.7 3.8147e-07
      vertex 70 22.7 2.4
      vertex -70 22.7 2.4
    endloop
  endfacet
  facet normal 0 -1 -0
    outer loop
      vertex 70 22.7 2.4
      vertex -70 22.7 3.8147e-07
      vertex 70 22.7 3.8147e-07
    endloop
  endfacet
  facet normal 0 -1 0
    outer loop
      vertex -70 -22 3.8147e-07
      vertex 70 -22 2.4
      vertex -70 -22 2.4
    endloop
  endfacet
  facet normal 0 -1 -0
    outer loop
      vertex 70 -22 2.4
      vertex -70 -22 3.8147e-07
      vertex 70 -22 3.8147e-07
    endloop
  endfacet
  facet normal 1 -0 0
    outer loop
      vertex 41.56 -17.7 2.4
      vertex 41.56 -8.3 1
      vertex 41.56 -8.3 2.4
    endloop
  endfacet
  facet normal 1 0 0
    outer loop
      vertex 41.56 -8.3 1
      vertex 41.56 -17.7 2.4
      vertex 41.56 -17.7 1
    endloop
  endfacet
  facet normal -0 0 1
    outer loop
      vertex 41.56 -8.3 1
      vertex 46.36 -17.7 1
      vertex 46.36 -8.3 1
    endloop
  endfacet
  facet normal 0 0 1
    outer loop
      vertex 46.36 -17.7 1
      vertex 41.56 -8.3 1
      vertex 41.56 -17.7 1
    endloop
  endfacet
  facet normal -1 0 0
    outer loop
      vertex 46.36 -17.7 1
      vertex 46.36 -8.3 2.4
      vertex 46.36 -8.3 1
    endloop
  endfacet
  facet normal -1 -0 0
    outer loop
      vertex 46.36 -8.3 2.4
      vertex 46.36 -17.7 1
      vertex 46.36 -17.7 2.4
    endloop
  endfacet
  facet normal 0 -1 0
    outer loop
      vertex 41.56 -8.3 1
      vertex 46.36 -8.3 2.4
      vertex 41.56 -8.3 2.4
    endloop
  endfacet
  facet normal 0 -1 -0
    outer loop
      vertex 46.36 -8.3 2.4
      vertex 41.56 -8.3 1
      vertex 46.36 -8.3 1
    endloop
  endfacet
  facet normal 0 1 -0
    outer loop
      vertex 46.36 -17.7 1
      vertex 41.56 -17.7 2.4
      vertex 46.36 -17.7 2.4
    endloop
  endfacet
  facet normal 0 1 0
    outer loop
      vertex 41.56 -17.7 2.4
      vertex 46.36 -17.7 1
      vertex 41.56 -17.7 1
    endloop
  endfacet
  facet normal 1 -0 0
    outer loop
      vertex 41.56 24.3 2.4
      vertex 41.56 33.7 1
      vertex 41.56 33.7 2.4
    endloop
  endfacet
  facet normal 1 0 0
    outer loop
      vertex 41.56 33.7 1
      vertex 41.56 24.3 2.4
      vertex 41.56 24.3 1
    endloop
  endfacet
  facet normal -0 0 1
    outer loop
      vertex 41.56 33.7 1
      vertex 46.36 24.3 1
      vertex 46.36 33.7 1
    endloop
  endfacet
  facet normal 0 0 1
    outer loop
      vertex 46.36 24.3 1
      vertex 41.56 33.7 1
      vertex 41.56 24.3 1
    endloop
  endfacet
  facet normal -1 0 0
    outer loop
      vertex 46.36 24.3 1
      vertex 46.36 33.7 2.4
      vertex 46.36 33.7 1
    endloop
  endfacet
  facet normal -1 -0 0
    outer loop
      vertex 46.36 33.7 2.4
      vertex 46.36 24.3 1
      vertex 46.36 24.3 2.4
    endloop
  endfacet
  facet normal 0 -1 0
    outer loop
      vertex 41.56 33.7 1
      vertex 46.36 33.7 2.4
      vertex 41.56 33.7 2.4
    endloop
  endfacet
  facet normal 0 -1 -0
    outer loop
      vertex 46.36 33.7 2.4
      vertex 41.56 33.7 1
      vertex 46.36 33.7 1
    endloop
  endfacet
  facet normal 0 1 -0
    outer loop
      vertex 46.36 24.3 1
      vertex 41.56 24.3 2.4
      vertex 46.36 24.3 2.4
    endloop
  endfacet
  facet normal 0 1 0
    outer loop
      vertex 41.56 24.3 2.4
      vertex 46.36 24.3 1
      vertex 41.56 24.3 1
    endloop
  endfacet
  facet normal 1 -0 0
    outer loop
      vertex 8.12 -17.7 2.4
      vertex 8.12 -8.3 1
      vertex 8.12 -8.3 2.4
    endloop
  endfacet
  facet normal 1 0 0
    outer loop
      vertex 8.12 -8.3 1
      vertex 8.12 -17.7 2.4
      vertex 8.12 -17.7 1
    endloop
  endfacet
  facet normal -0 0 1
    outer loop
      vertex 8.12 -8.3 1
      vertex 12.92 -17.7 1
      vertex 12.92 -8.3 1
    endloop
  endfacet
  facet normal 0 0 1
    outer loop
      vertex 12.92 -17.7 1
      vertex 8.12 -8.3 1
      vertex 8.12 -17.7 1
    endloop
  endfacet
  facet normal -1 0 0
    outer loop
      vertex 12.92 -17.7 1
      vertex 12.92 -8.3 2.4
      vertex 12.92 -8.3 1
    endloop
  endfacet
  facet normal -1 -0 0
    outer loop
      vertex 12.92 -8.3 2.4
      vertex 12.92 -17.7 1
      vertex 12.92 -17.7 2.4
    endloop
  endfacet
  facet normal 0 -1 0
    outer loop
      vertex 8.12 -8.3 1
      vertex 12.92 -8.3 2.4
      vertex 8.12 -8.3 2.4
    endloop
  endfacet
  facet normal 0 -1 -0
    outer loop
      vertex 12.92 -8.3 2.4
      vertex 8.12 -8.3 1
      vertex 12.92 -8.3 1
    endloop
  endfacet
  facet normal 0 1 -0
    outer loop
      vertex 12.92 -17.7 1
      vertex 8.12 -17.7 2.4
      vertex 12.92 -17.7 2.4
    endloop
  endfacet
  facet normal 0 1 0
    outer loop
      vertex 8.12 -17.7 2.4
      vertex 12.92 -17.7 1
      vertex 8.12 -17.7 1
    endloop
  endfacet
  facet normal 1 -0 0
    outer loop
      vertex 8.12 24.3 2.4
      vertex 8.12 33.7 1
      vertex 8.12 33.7 2.4
    endloop
  endfacet
  facet normal 1 0 0
    outer loop
      vertex 8.12 33.7 1
      vertex 8.12 24.3 2.4
      vertex 8.12 24.3 1
    endloop
  endfacet
  facet normal -0 0 1
    outer loop
      vertex 8.12 33.7 1
      vertex 12.92 24.3 1
      vertex 12.92 33.7 1
    endloop
  endfacet
  facet normal 0 0 1
    outer loop
      vertex 12.92 24.3 1
      vertex 8.12 33.7 1
      vertex 8.12 24.3 1
    endloop
  endfacet
  facet normal -1 0 0
    outer loop
      vertex 12.92 24.3 1
      vertex 12.92 33.7 2.4
      vertex 12.92 33.7 1
    endloop
  endfacet
  facet normal -1 -0 0
    outer loop
      vertex 12.92 33.7 2.4
      vertex 12.92 24.3 1
      vertex 12.92 24.3 2.4
    endloop
  endfacet
  facet normal 0 -1 0
    outer loop
      vertex 8.12 33.7 1
      vertex 12.92 33.7 2.4
      vertex 8.12 33.7 2.4
    endloop
  endfacet
  facet normal 0 -1 -0
    outer loop
      vertex 12.92 33.7 2.4
      vertex 8.12 33.7 1
      vertex 12.92 33.7 1
    endloop
  endfacet
  facet normal 0 1 -0
    outer loop
      vertex 12.92 24.3 1
      vertex 8.12 24.3 2.4
      vertex 12.92 24.3 2.4
    endloop
  endfacet
  facet normal 0 1 0
    outer loop
      vertex 8.12 24.3 2.4
      vertex 12.92 24.3 1
      vertex 8.12 24.3 1
    endloop
  endfacet
  facet normal 1 -0 0
    outer loop
      vertex -25.32 -17.7 2.4
      vertex -25.32 -8.3 1
      vertex -25.32 -8.3 2.4
    endloop
  endfacet
  facet normal 1 0 0
    outer loop
      vertex -25.32 -8.3 1
      vertex -25.32 -17.7 2.4
      vertex -25.32 -17.7 1
    endloop
  endfacet
  facet normal -0 0 1
    outer loop
      vertex -25.32 -8.3 1
      vertex -20.52 -17.7 1
      vertex -20.52 -8.3 1
    endloop
  endfacet
  facet normal 0 0 1
    outer loop
      vertex -20.52 -17.7 1
      vertex -25.32 -8.3 1
      vertex -25.32 -17.7 1
    endloop
  endfacet
  facet normal -1 0 0
    outer loop
      vertex -20.52 -17.7 1
      vertex -20.52 -8.3 2.4
      vertex -20.52 -8.3 1
    endloop
  endfacet
  facet normal -1 -0 0
    outer loop
      vertex -20.52 -8.3 2.4
      vertex -20.52 -17.7 1
      vertex -20.52 -17.7 2.4
    endloop
  endfacet
  facet normal 0 -1 0
    outer loop
      vertex -25.32 -8.3 1
      vertex -20.52 -8.3 2.4
      vertex -25.32 -8.3 2.4
    endloop
  endfacet
  facet normal 0 -1 -0
    outer loop
      vertex -20.52 -8.3 2.4
      vertex -25.32 -8.3 1
      vertex -20.52 -8.3 1
    endloop
  endfacet
  facet normal 0 1 -0
    outer loop
      vertex -20.52 -17.7 1
      vertex -25.32 -17.7 2.4
      vertex -20.52 -17.7 2.4
    endloop
  endfacet
  facet normal 0 1 0
    outer loop
      vertex -25.32 -17.7 2.4
      vertex -20.52 -17.7 1
      vertex -25.32 -17.7 1
    endloop
  endfacet
  facet normal 1 -0 0
    outer loop
      vertex -25.32 24.3 2.4
      vertex -25.32 33.7 1
      vertex -25.32 33.7 2.4
    endloop
  endfacet
  facet normal 1 0 0
    outer loop
      vertex -25.32 33.7 1
      vertex -25.32 24.3 2.4
      vertex -25.32 24.3 1
    endloop
  endfacet
  facet normal -0 0 1
    outer loop
      vertex -25.32 33.7 1
      vertex -20.52 24.3 1
      vertex -20.52 33.7 1
    endloop
  endfacet
  facet normal 0 0 1
    outer loop
      vertex -20.52 24.3 1
      vertex -25.32 33.7 1
      vertex -25.32 24.3 1
    endloop
  endfacet
  facet normal -1 0 0
    outer loop
      vertex -20.52 24.3 1
      vertex -20.52 33.7 2.4
      vertex -20.52 33.7 1
    endloop
  endfacet
  facet normal -1 -0 0
    outer loop
      vertex -20.52 33.7 2.4
      vertex -20.52 24.3 1
      vertex -20.52 24.3 2.4
    endloop
  endfacet
  facet normal 0 -1 0
    outer loop
      vertex -25.32 33.7 1
      vertex -20.52 33.7 2.4
      vertex -25.32 33.7 2.4
    endloop
  endfacet
  facet normal 0 -1 -0
    outer loop
      vertex -20.52 33.7 2.4
      vertex -25.32 33.7 1
      vertex -20.52 33.7 1
    endloop
  endfacet
  facet normal 0 1 -0
    outer loop
      vertex -20.52 24.3 1
      vertex -25.32 24.3 2.4
      vertex -20.52 24.3 2.4
    endloop
  endfacet
  facet normal 0 1 0
    outer loop
      vertex -25.32 24.3 2.4
      vertex -20.52 24.3 1
      vertex -25.32 24.3 1
    endloop
  endfacet
  facet normal 1 -0 0
    outer loop
      vertex -58.76 -17.7 2.4
      vertex -58.76 -8.3 1
      vertex -58.76 -8.3 2.4
    endloop
  endfacet
  facet normal 1 0 0
    outer loop
      vertex -58.76 -8.3 1
      vertex -58.76 -17.7 2.4
      vertex -58.76 -17.7 1
    endloop
  endfacet
  facet normal -0 0 1
    outer loop
      vertex -58.76 -8.3 1
      vertex -53.96 -17.7 1
      vertex -53.96 -8.3 1
    endloop
  endfacet
  facet normal 0 0 1
    outer loop
      vertex -53.96 -17.7 1
      vertex -58.76 -8.3 1
      vertex -58.76 -17.7 1
    endloop
  endfacet
  facet normal -1 0 0
    outer loop
      vertex -53.96 -17.7 1
      vertex -53.96 -8.3 2.4
      vertex -53.96 -8.3 1
    endloop
  endfacet
  facet normal -1 -0 0
    outer loop
      vertex -53.96 -8.3 2.4
      vertex -53.96 -17.7 1
      vertex -53.96 -17.7 2.4
    endloop
  endfacet
  facet normal 0 -1 0
    outer loop
      vertex -58.76 -8.3 1
      vertex -53.96 -8.3 2.4
      vertex -58.76 -8.3 2.4
    endloop
  endfacet
  facet normal 0 -1 -0
    outer loop
      vertex -53.96 -8.3 2.4
      vertex -58.76 -8.3 1
      vertex -53.96 -8.3 1
    endloop
  endfacet
  facet normal 0 1 -0
    outer loop
      vertex -53.96 -17.7 1
      vertex -58.76 -17.7 2.4
      vertex -53.96 -17.7 2.4
    endloop
  endfacet
  facet normal 0 1 0
    outer loop
      vertex -58.76 -17.7 2.4
      vertex -53.96 -17.7 1
      vertex -58.76 -17.7 1
    endloop
  endfacet
  facet normal 1 -0 0
    outer loop
      vertex -58.76 24.3 2.4
      vertex -58.76 33.7 1
      vertex -58.76 33.7 2.4
    endloop
  endfacet
  facet normal 1 0 0
    outer loop
      vertex -58.76 33.7 1
      vertex -58.76 24.3 2.4
      vertex -58.76 24.3 1
    endloop
  endfacet
  facet normal -0 0 1
    outer loop
      vertex -58.76 33.7 1
      vertex -53.96 24.3 1
      vertex -53.96 33.7 1
    endloop
  endfacet
  facet normal 0 0 1
    outer loop
      vertex -53.96 24.3 1
      vertex -58.76 33.7 1
      vertex -58.76 24.3 1
    endloop
  endfacet
  facet normal -1 0 0
    outer loop
      vertex -53.96 24.3 1
      vertex -53.96 33.7 2.4
      vertex -53.96 33.7 1
    endloop
  endfacet
  facet normal -1 -0 0
    outer loop
      vertex -53.96 33.7 2.4
      vertex -53.96 24.3 1
      vertex -53.96 24.3 2.4
    endloop
  endfacet
  facet normal 0 -1 0
    outer loop
      vertex -58.76 33.7 1
      vertex -53.96 33.7 2.4
      vertex -58.76 33.7 2.4
    endloop
  endfacet
  facet normal 0 -1 -0
    outer loop
      vertex -53.96 33.7 2.4
      vertex -58.76 33.7 1
      vertex -53.96 33.7 1
    endloop
  endfacet
  facet normal 0 1 -0
    outer loop
      vertex -53.96 24.3 1
      vertex -58.76 24.3 2.4
      vertex -53.96 24.3 2.4
    endloop
  endfacet
  facet normal 0 1 0
    outer loop
      vertex -58.76 24.3 2.4
      vertex -53.96 24.3 1
      vertex -58.76 24.3 1
    endloop
  endfacet
endsolid OpenSCAD_Model
