solid OpenSCAD_Model
  facet normal -1 0 0
    outer loop
      vertex -78.8 -78.8 5.72205e-07
      vertex -78.8 78.8 3.6
      vertex -78.8 78.8 5.72205e-07
    endloop
  endfacet
  facet normal -1 -0 0
    outer loop
      vertex -78.8 78.8 3.6
      vertex -78.8 -78.8 5.72205e-07
      vertex -78.8 -78.8 3.6
    endloop
  endfacet
  facet normal 0 0 -1
    outer loop
      vertex -78.8 -78.8 5.72205e-07
      vertex -73.8 -12.51 5.72205e-07
      vertex -73.8 -78.8 5.72205e-07
    endloop
  endfacet
  facet normal -0 0 -1
    outer loop
      vertex -73.8 -12.51 5.72205e-07
      vertex -78.8 -78.8 5.72205e-07
      vertex -73.8 -0.73 5.72205e-07
    endloop
  endfacet
  facet normal 0 0 -1
    outer loop
      vertex -78.8 78.8 5.72205e-07
      vertex -73.8 -0.73 5.72205e-07
      vertex -78.8 -78.8 5.72205e-07
    endloop
  endfacet
  facet normal 0 0 -1
    outer loop
      vertex -73.8 -0.73 5.72205e-07
      vertex -78.8 78.8 5.72205e-07
      vertex -73.8 29.49 5.72205e-07
    endloop
  endfacet
  facet normal 0 0 -1
    outer loop
      vertex -73.8 29.49 5.72205e-07
      vertex -78.8 78.8 5.72205e-07
      vertex -73.8 41.27 5.72205e-07
    endloop
  endfacet
  facet normal 0 0 -1
    outer loop
      vertex -73.8 41.27 5.72205e-07
      vertex -78.8 78.8 5.72205e-07
      vertex -73.8 78.8 5.72205e-07
    endloop
  endfacet
  facet normal 0 0 -1
    outer loop
      vertex -73.8 29.49 5.72205e-07
      vertex 73.8 41.27 5.72205e-07
      vertex 73.8 29.49 5.72205e-07
    endloop
  endfacet
  facet normal -0 0 -1
    outer loop
      vertex 73.8 41.27 5.72205e-07
      vertex -73.8 29.49 5.72205e-07
      vertex -73.8 41.27 5.72205e-07
    endloop
  endfacet
  facet normal 0 0 -1
    outer loop
      vertex -73.8 -12.51 5.72205e-07
      vertex 73.8 -0.73 5.72205e-07
      vertex 73.8 -12.51 5.72205e-07
    endloop
  endfacet
  facet normal -0 0 -1
    outer loop
      vertex 73.8 -0.73 5.72205e-07
      vertex -73.8 -12.51 5.72205e-07
      vertex -73.8 -0.73 5.72205e-07
    endloop
  endfacet
  facet normal 0 0 -1
    outer loop
      vertex 73.8 -12.51 5.72205e-07
      vertex 78.8 -78.8 5.72205e-07
      vertex 73.8 -78.8 5.72205e-07
    endloop
  endfacet
  facet normal 0 0 -1
    outer loop
      vertex 73.8 -0.73 5.72205e-07
      vertex 78.8 -78.8 5.72205e-07
      vertex 73.8 -12.51 5.72205e-07
    endloop
  endfacet
  facet normal 0 0 -1
    outer loop
      vertex 78.8 -78.8 5.72205e-07
      vertex 73.8 -0.73 5.72205e-07
      vertex 78.8 78.8 5.72205e-07
    endloop
  endfacet
  facet normal 0 0 -1
    outer loop
      vertex 73.8 29.49 5.72205e-07
      vertex 78.8 78.8 5.72205e-07
      vertex 73.8 -0.73 5.72205e-07
    endloop
  endfacet
  facet normal 0 0 -1
    outer loop
      vertex 73.8 41.27 5.72205e-07
      vertex 78.8 78.8 5.72205e-07
      vertex 73.8 29.49 5.72205e-07
    endloop
  endfacet
  facet normal -0 0 -1
    outer loop
      vertex 78.8 78.8 5.72205e-07
      vertex 73.8 41.27 5.72205e-07
      vertex 73.8 78.8 5.72205e-07
    endloop
  endfacet
  facet normal -0 0 1
    outer loop
      vertex -78.8 78.8 3.6
      vertex -73.8 41.27 3.6
      vertex -73.8 78.8 3.6
    endloop
  endfacet
  facet normal 0 0 1
    outer loop
      vertex -73.8 41.27 3.6
      vertex -78.8 78.8 3.6
      vertex -73.8 29.49 3.6
    endloop
  endfacet
  facet normal 0 0 1
    outer loop
      vertex -73.8 29.49 3.6
      vertex -78.8 78.8 3.6
      vertex -73.8 -0.73 3.6
    endloop
  endfacet
  facet normal 0 0 1
    outer loop
      vertex -78.8 -78.8 3.6
      vertex -73.8 -0.73 3.6
      vertex -78.8 78.8 3.6
    endloop
  endfacet
  facet normal 0 0 1
    outer loop
      vertex -73.8 -0.73 3.6
      vertex -78.8 -78.8 3.6
      vertex -73.8 -12.51 3.6
    endloop
  endfacet
  facet normal 0 0 1
    outer loop
      vertex -73.8 -12.51 3.6
      vertex -78.8 -78.8 3.6
      vertex -73.8 -78.8 3.6
    endloop
  endfacet
  facet normal 0 0 1
    outer loop
      vertex 73.8 -0.73 3.6
      vertex 49.28 -3.13 3.6
      vertex 73.8 -12.51 3.6
    endloop
  endfacet
  facet normal 0 0 1
    outer loop
      vertex 73.8 -0.73 3.6
      vertex 45.28 -3.13 3.6
      vertex 49.28 -3.13 3.6
    endloop
  endfacet
  facet normal 0 0 1
    outer loop
      vertex 45.28 -3.13 3.6
      vertex 13.76 -3.13 3.6
      vertex 45.28 -10.11 3.6
    endloop
  endfacet
  facet normal 0 0 1
    outer loop
      vertex 73.8 -0.73 3.6
      vertex 13.76 -3.13 3.6
      vertex 45.28 -3.13 3.6
    endloop
  endfacet
  facet normal 0 0 1
    outer loop
      vertex 73.8 -0.73 3.6
      vertex 9.76 -3.13 3.6
      vertex 13.76 -3.13 3.6
    endloop
  endfacet
  facet normal 0 0 1
    outer loop
      vertex 9.76 -3.13 3.6
      vertex -21.76 -3.13 3.6
      vertex 9.76 -10.11 3.6
    endloop
  endfacet
  facet normal 0 0 1
    outer loop
      vertex 73.8 -0.73 3.6
      vertex -21.76 -3.13 3.6
      vertex 9.76 -3.13 3.6
    endloop
  endfacet
  facet normal -0 0 1
    outer loop
      vertex -73.8 -0.73 3.6
      vertex -21.76 -3.13 3.6
      vertex 73.8 -0.73 3.6
    endloop
  endfacet
  facet normal 0 0 1
    outer loop
      vertex -25.76 -3.13 3.6
      vertex -57.28 -3.13 3.6
      vertex -25.76 -10.11 3.6
    endloop
  endfacet
  facet normal 0 0 1
    outer loop
      vertex -21.76 -3.13 3.6
      vertex -73.8 -0.73 3.6
      vertex -25.76 -3.13 3.6
    endloop
  endfacet
  facet normal 0 0 1
    outer loop
      vertex -25.76 -3.13 3.6
      vertex -73.8 -0.73 3.6
      vertex -57.28 -3.13 3.6
    endloop
  endfacet
  facet normal 0 0 1
    outer loop
      vertex -61.28 -3.13 3.6
      vertex -73.8 -0.73 3.6
      vertex -61.28 -10.11 3.6
    endloop
  endfacet
  facet normal 0 0 1
    outer loop
      vertex -57.28 -3.13 3.6
      vertex -73.8 -0.73 3.6
      vertex -61.28 -3.13 3.6
    endloop
  endfacet
  facet normal 0 0 1
    outer loop
      vertex 73.8 41.27 3.6
      vertex 49.28 38.87 3.6
      vertex 73.8 29.49 3.6
    endloop
  endfacet
  facet normal 0 0 1
    outer loop
      vertex 73.8 41.27 3.6
      vertex 45.28 38.87 3.6
      vertex 49.28 38.87 3.6
    endloop
  endfacet
  facet normal 0 0 1
    outer loop
      vertex 45.28 38.87 3.6
      vertex 13.76 38.87 3.6
      vertex 45.28 31.89 3.6
    endloop
  endfacet
  facet normal 0 0 1
    outer loop
      vertex 73.8 41.27 3.6
      vertex 13.76 38.87 3.6
      vertex 45.28 38.87 3.6
    endloop
  endfacet
  facet normal 0 0 1
    outer loop
      vertex 73.8 41.27 3.6
      vertex 9.76 38.87 3.6
      vertex 13.76 38.87 3.6
    endloop
  endfacet
  facet normal 0 0 1
    outer loop
      vertex 9.76 38.87 3.6
      vertex -21.76 38.87 3.6
      vertex 9.76 31.89 3.6
    endloop
  endfacet
  facet normal 0 0 1
    outer loop
      vertex 73.8 41.27 3.6
      vertex -21.76 38.87 3.6
      vertex 9.76 38.87 3.6
    endloop
  endfacet
  facet normal -0 0 1
    outer loop
      vertex -73.8 41.27 3.6
      vertex -21.76 38.87 3.6
      vertex 73.8 41.27 3.6
    endloop
  endfacet
  facet normal 0 0 1
    outer loop
      vertex -25.76 38.87 3.6
      vertex -57.28 38.87 3.6
      vertex -25.76 31.89 3.6
    endloop
  endfacet
  facet normal 0 0 1
    outer loop
      vertex -21.76 38.87 3.6
      vertex -73.8 41.27 3.6
      vertex -25.76 38.87 3.6
    endloop
  endfacet
  facet normal 0 0 1
    outer loop
      vertex -25.76 38.87 3.6
      vertex -73.8 41.27 3.6
      vertex -57.28 38.87 3.6
    endloop
  endfacet
  facet normal 0 0 1
    outer loop
      vertex -61.28 38.87 3.6
      vertex -73.8 41.27 3.6
      vertex -61.28 31.89 3.6
    endloop
  endfacet
  facet normal 0 0 1
    outer loop
      vertex -57.28 38.87 3.6
      vertex -73.8 41.27 3.6
      vertex -61.28 38.87 3.6
    endloop
  endfacet
  facet normal 0 0 1
    outer loop
      vertex 73.8 41.27 3.6
      vertex 78.8 78.8 3.6
      vertex 73.8 78.8 3.6
    endloop
  endfacet
  facet normal 0 0 1
    outer loop
      vertex 73.8 29.49 3.6
      vertex 78.8 78.8 3.6
      vertex 73.8 41.27 3.6
    endloop
  endfacet
  facet normal 0 0 1
    outer loop
      vertex 73.8 -0.73 3.6
      vertex 78.8 78.8 3.6
      vertex 73.8 29.49 3.6
    endloop
  endfacet
  facet normal 0 0 1
    outer loop
      vertex 78.8 78.8 3.6
      vertex 73.8 -0.73 3.6
      vertex 78.8 -78.8 3.6
    endloop
  endfacet
  facet normal -0 0 1
    outer loop
      vertex 73.8 -12.51 3.6
      vertex 78.8 -78.8 3.6
      vertex 73.8 -0.73 3.6
    endloop
  endfacet
  facet normal 0 0 1
    outer loop
      vertex 78.8 -78.8 3.6
      vertex 73.8 -12.51 3.6
      vertex 73.8 -78.8 3.6
    endloop
  endfacet
  facet normal -0 0 1
    outer loop
      vertex 49.28 31.89 3.6
      vertex 73.8 29.49 3.6
      vertex 49.28 38.87 3.6
    endloop
  endfacet
  facet normal -0 0 1
    outer loop
      vertex 45.28 31.89 3.6
      vertex 73.8 29.49 3.6
      vertex 49.28 31.89 3.6
    endloop
  endfacet
  facet normal 0 0 1
    outer loop
      vertex 13.76 31.89 3.6
      vertex 45.28 31.89 3.6
      vertex 13.76 38.87 3.6
    endloop
  endfacet
  facet normal -0 0 1
    outer loop
      vertex 13.76 31.89 3.6
      vertex 73.8 29.49 3.6
      vertex 45.28 31.89 3.6
    endloop
  endfacet
  facet normal -0 0 1
    outer loop
      vertex 9.76 31.89 3.6
      vertex 73.8 29.49 3.6
      vertex 13.76 31.89 3.6
    endloop
  endfacet
  facet normal 0 0 1
    outer loop
      vertex -21.76 31.89 3.6
      vertex 9.76 31.89 3.6
      vertex -21.76 38.87 3.6
    endloop
  endfacet
  facet normal -0 0 1
    outer loop
      vertex -21.76 31.89 3.6
      vertex 73.8 29.49 3.6
      vertex 9.76 31.89 3.6
    endloop
  endfacet
  facet normal 0 0 1
    outer loop
      vertex -73.8 29.49 3.6
      vertex -21.76 31.89 3.6
      vertex -25.76 31.89 3.6
    endloop
  endfacet
  facet normal 0 0 1
    outer loop
      vertex -57.28 31.89 3.6
      vertex -25.76 31.89 3.6
      vertex -57.28 38.87 3.6
    endloop
  endfacet
  facet normal 0 0 1
    outer loop
      vertex -73.8 29.49 3.6
      vertex -25.76 31.89 3.6
      vertex -57.28 31.89 3.6
    endloop
  endfacet
  facet normal 0 0 1
    outer loop
      vertex -73.8 29.49 3.6
      vertex -57.28 31.89 3.6
      vertex -61.28 31.89 3.6
    endloop
  endfacet
  facet normal 0 0 1
    outer loop
      vertex -21.76 31.89 3.6
      vertex -73.8 29.49 3.6
      vertex 73.8 29.49 3.6
    endloop
  endfacet
  facet normal 0 0 1
    outer loop
      vertex -73.8 29.49 3.6
      vertex -61.28 31.89 3.6
      vertex -73.8 41.27 3.6
    endloop
  endfacet
  facet normal -0 0 1
    outer loop
      vertex 49.28 -10.11 3.6
      vertex 73.8 -12.51 3.6
      vertex 49.28 -3.13 3.6
    endloop
  endfacet
  facet normal -0 0 1
    outer loop
      vertex 45.28 -10.11 3.6
      vertex 73.8 -12.51 3.6
      vertex 49.28 -10.11 3.6
    endloop
  endfacet
  facet normal 0 0 1
    outer loop
      vertex 13.76 -10.11 3.6
      vertex 45.28 -10.11 3.6
      vertex 13.76 -3.13 3.6
    endloop
  endfacet
  facet normal -0 0 1
    outer loop
      vertex 13.76 -10.11 3.6
      vertex 73.8 -12.51 3.6
      vertex 45.28 -10.11 3.6
    endloop
  endfacet
  facet normal -0 0 1
    outer loop
      vertex 9.76 -10.11 3.6
      vertex 73.8 -12.51 3.6
      vertex 13.76 -10.11 3.6
    endloop
  endfacet
  facet normal 0 0 1
    outer loop
      vertex -21.76 -10.11 3.6
      vertex 9.76 -10.11 3.6
      vertex -21.76 -3.13 3.6
    endloop
  endfacet
  facet normal -0 0 1
    outer loop
      vertex -21.76 -10.11 3.6
      vertex 73.8 -12.51 3.6
      vertex 9.76 -10.11 3.6
    endloop
  endfacet
  facet normal 0 0 1
    outer loop
      vertex -73.8 -12.51 3.6
      vertex -21.76 -10.11 3.6
      vertex -25.76 -10.11 3.6
    endloop
  endfacet
  facet normal 0 0 1
    outer loop
      vertex -57.28 -10.11 3.6
      vertex -25.76 -10.11 3.6
      vertex -57.28 -3.13 3.6
    endloop
  endfacet
  facet normal 0 0 1
    outer loop
      vertex -73.8 -12.51 3.6
      vertex -25.76 -10.11 3.6
      vertex -57.28 -10.11 3.6
    endloop
  endfacet
  facet normal 0 0 1
    outer loop
      vertex -73.8 -12.51 3.6
      vertex -57.28 -10.11 3.6
      vertex -61.28 -10.11 3.6
    endloop
  endfacet
  facet normal 0 0 1
    outer loop
      vertex -21.76 -10.11 3.6
      vertex -73.8 -12.51 3.6
      vertex 73.8 -12.51 3.6
    endloop
  endfacet
  facet normal 0 0 1
    outer loop
      vertex -73.8 -12.51 3.6
      vertex -61.28 -10.11 3.6
      vertex -73.8 -0.73 3.6
    endloop
  endfacet
  facet normal 1 -0 0
    outer loop
      vertex -73.8 41.27 3.6
      vertex -73.8 78.8 5.72205e-07
      vertex -73.8 78.8 3.6
    endloop
  endfacet
  facet normal 1 0 0
    outer loop
      vertex -73.8 78.8 5.72205e-07
      vertex -73.8 41.27 3.6
      vertex -73.8 41.27 5.72205e-07
    endloop
  endfacet
  facet normal 1 -0 0
    outer loop
      vertex -73.8 -78.8 3.6
      vertex -73.8 -12.51 5.72205e-07
      vertex -73.8 -12.51 3.6
    endloop
  endfacet
  facet normal 1 0 0
    outer loop
      vertex -73.8 -12.51 5.72205e-07
      vertex -73.8 -78.8 3.6
      vertex -73.8 -78.8 5.72205e-07
    endloop
  endfacet
  facet normal 1 -0 0
    outer loop
      vertex -73.8 -0.73 3.6
      vertex -73.8 29.49 5.72205e-07
      vertex -73.8 29.49 3.6
    endloop
  endfacet
  facet normal 1 0 0
    outer loop
      vertex -73.8 29.49 5.72205e-07
      vertex -73.8 -0.73 3.6
      vertex -73.8 -0.73 5.72205e-07
    endloop
  endfacet
  facet normal 0 1 -0
    outer loop
      vertex -73.8 78.8 5.72205e-07
      vertex -78.8 78.8 3.6
      vertex -73.8 78.8 3.6
    endloop
  endfacet
  facet normal 0 1 0
    outer loop
      vertex -78.8 78.8 3.6
      vertex -73.8 78.8 5.72205e-07
      vertex -78.8 78.8 5.72205e-07
    endloop
  endfacet
  facet normal 0 -1 0
    outer loop
      vertex -78.8 -78.8 5.72205e-07
      vertex -73.8 -78.8 3.6
      vertex -78.8 -78.8 3.6
    endloop
  endfacet
  facet normal 0 -1 -0
    outer loop
      vertex -73.8 -78.8 3.6
      vertex -78.8 -78.8 5.72205e-07
      vertex -73.8 -78.8 5.72205e-07
    endloop
  endfacet
  facet normal -1 0 0
    outer loop
      vertex 73.8 41.27 5.72205e-07
      vertex 73.8 78.8 3.6
      vertex 73.8 78.8 5.72205e-07
    endloop
  endfacet
  facet normal -1 -0 0
    outer loop
      vertex 73.8 78.8 3.6
      vertex 73.8 41.27 5.72205e-07
      vertex 73.8 41.27 3.6
    endloop
  endfacet
  facet normal -1 0 0
    outer loop
      vertex 73.8 -78.8 5.72205e-07
      vertex 73.8 -12.51 3.6
      vertex 73.8 -12.51 5.72205e-07
    endloop
  endfacet
  facet normal -1 -0 0
    outer loop
      vertex 73.8 -12.51 3.6
      vertex 73.8 -78.8 5.72205e-07
      vertex 73.8 -78.8 3.6
    endloop
  endfacet
  facet normal -1 0 0
    outer loop
      vertex 73.8 -0.73 5.72205e-07
      vertex 73.8 29.49 3.6
      vertex 73.8 29.49 5.72205e-07
    endloop
  endfacet
  facet normal -1 -0 0
    outer loop
      vertex 73.8 29.49 3.6
      vertex 73.8 -0.73 5.72205e-07
      vertex 73.8 -0.73 3.6
    endloop
  endfacet
  facet normal 1 -0 0
    outer loop
      vertex 78.8 -78.8 3.6
      vertex 78.8 78.8 5.72205e-07
      vertex 78.8 78.8 3.6
    endloop
  endfacet
  facet normal 1 0 0
    outer loop
      vertex 78.8 78.8 5.72205e-07
      vertex 78.8 -78.8 3.6
      vertex 78.8 -78.8 5.72205e-07
    endloop
  endfacet
  facet normal 0 1 -0
    outer loop
      vertex 78.8 78.8 5.72205e-07
      vertex 73.8 78.8 3.6
      vertex 78.8 78.8 3.6
    endloop
  endfacet
  facet normal 0 1 0
    outer loop
      vertex 73.8 78.8 3.6
      vertex 78.8 78.8 5.72205e-07
      vertex 73.8 78.8 5.72205e-07
    endloop
  endfacet
  facet normal 0 -1 0
    outer loop
      vertex 73.8 -78.8 5.72205e-07
      vertex 78.8 -78.8 3.6
      vertex 73.8 -78.8 3.6
    endloop
  endfacet
  facet normal 0 -1 -0
    outer loop
      vertex 78.8 -78.8 3.6
      vertex 73.8 -78.8 5.72205e-07
      vertex 78.8 -78.8 5.72205e-07
    endloop
  endfacet
  facet normal 0 1 -0
    outer loop
      vertex 73.8 -0.73 5.72205e-07
      vertex -73.8 -0.73 3.6
      vertex 73.8 -0.73 3.6
    endloop
  endfacet
  facet normal 0 1 0
    outer loop
      vertex -73.8 -0.73 3.6
      vertex 73.8 -0.73 5.72205e-07
      vertex -73.8 -0.73 5.72205e-07
    endloop
  endfacet
  facet normal 0 -1 0
    outer loop
      vertex -73.8 -12.51 5.72205e-07
      vertex 73.8 -12.51 3.6
      vertex -73.8 -12.51 3.6
    endloop
  endfacet
  facet normal 0 -1 -0
    outer loop
      vertex 73.8 -12.51 3.6
      vertex -73.8 -12.51 5.72205e-07
      vertex 73.8 -12.51 5.72205e-07
    endloop
  endfacet
  facet normal 0 1 -0
    outer loop
      vertex 73.8 41.27 5.72205e-07
      vertex -73.8 41.27 3.6
      vertex 73.8 41.27 3.6
    endloop
  endfacet
  facet normal 0 1 0
    outer loop
      vertex -73.8 41.27 3.6
      vertex 73.8 41.27 5.72205e-07
      vertex -73.8 41.27 5.72205e-07
    endloop
  endfacet
  facet normal 0 -1 0
    outer loop
      vertex -73.8 29.49 5.72205e-07
      vertex 73.8 29.49 3.6
      vertex -73.8 29.49 3.6
    endloop
  endfacet
  facet normal 0 -1 -0
    outer loop
      vertex 73.8 29.49 3.6
      vertex -73.8 29.49 5.72205e-07
      vertex 73.8 29.49 5.72205e-07
    endloop
  endfacet
  facet normal 1 -0 0
    outer loop
      vertex 45.28 -10.11 3.6
      vertex 45.28 -3.13 1.6
      vertex 45.28 -3.13 3.6
    endloop
  endfacet
  facet normal 1 0 0
    outer loop
      vertex 45.28 -3.13 1.6
      vertex 45.28 -10.11 3.6
      vertex 45.28 -10.11 1.6
    endloop
  endfacet
  facet normal -0 0 1
    outer loop
      vertex 45.28 -3.13 1.6
      vertex 49.28 -10.11 1.6
      vertex 49.28 -3.13 1.6
    endloop
  endfacet
  facet normal 0 0 1
    outer loop
      vertex 49.28 -10.11 1.6
      vertex 45.28 -3.13 1.6
      vertex 45.28 -10.11 1.6
    endloop
  endfacet
  facet normal -1 0 0
    outer loop
      vertex 49.28 -10.11 1.6
      vertex 49.28 -3.13 3.6
      vertex 49.28 -3.13 1.6
    endloop
  endfacet
  facet normal -1 -0 0
    outer loop
      vertex 49.28 -3.13 3.6
      vertex 49.28 -10.11 1.6
      vertex 49.28 -10.11 3.6
    endloop
  endfacet
  facet normal 0 -1 0
    outer loop
      vertex 45.28 -3.13 1.6
      vertex 49.28 -3.13 3.6
      vertex 45.28 -3.13 3.6
    endloop
  endfacet
  facet normal 0 -1 -0
    outer loop
      vertex 49.28 -3.13 3.6
      vertex 45.28 -3.13 1.6
      vertex 49.28 -3.13 1.6
    endloop
  endfacet
  facet normal 0 1 -0
    outer loop
      vertex 49.28 -10.11 1.6
      vertex 45.28 -10.11 3.6
      vertex 49.28 -10.11 3.6
    endloop
  endfacet
  facet normal 0 1 0
    outer loop
      vertex 45.28 -10.11 3.6
      vertex 49.28 -10.11 1.6
      vertex 45.28 -10.11 1.6
    endloop
  endfacet
  facet normal 1 -0 0
    outer loop
      vertex 45.28 31.89 3.6
      vertex 45.28 38.87 1.6
      vertex 45.28 38.87 3.6
    endloop
  endfacet
  facet normal 1 0 0
    outer loop
      vertex 45.28 38.87 1.6
      vertex 45.28 31.89 3.6
      vertex 45.28 31.89 1.6
    endloop
  endfacet
  facet normal -0 0 1
    outer loop
      vertex 45.28 38.87 1.6
      vertex 49.28 31.89 1.6
      vertex 49.28 38.87 1.6
    endloop
  endfacet
  facet normal 0 0 1
    outer loop
      vertex 49.28 31.89 1.6
      vertex 45.28 38.87 1.6
      vertex 45.28 31.89 1.6
    endloop
  endfacet
  facet normal -1 0 0
    outer loop
      vertex 49.28 31.89 1.6
      vertex 49.28 38.87 3.6
      vertex 49.28 38.87 1.6
    endloop
  endfacet
  facet normal -1 -0 0
    outer loop
      vertex 49.28 38.87 3.6
      vertex 49.28 31.89 1.6
      vertex 49.28 31.89 3.6
    endloop
  endfacet
  facet normal 0 -1 0
    outer loop
      vertex 45.28 38.87 1.6
      vertex 49.28 38.87 3.6
      vertex 45.28 38.87 3.6
    endloop
  endfacet
  facet normal 0 -1 -0
    outer loop
      vertex 49.28 38.87 3.6
      vertex 45.28 38.87 1.6
      vertex 49.28 38.87 1.6
    endloop
  endfacet
  facet normal 0 1 -0
    outer loop
      vertex 49.28 31.89 1.6
      vertex 45.28 31.89 3.6
      vertex 49.28 31.89 3.6
    endloop
  endfacet
  facet normal 0 1 0
    outer loop
      vertex 45.28 31.89 3.6
      vertex 49.28 31.89 1.6
      vertex 45.28 31.89 1.6
    endloop
  endfacet
  facet normal 1 -0 0
    outer loop
      vertex 9.76 -10.11 3.6
      vertex 9.76 -3.13 1.6
      vertex 9.76 -3.13 3.6
    endloop
  endfacet
  facet normal 1 0 0
    outer loop
      vertex 9.76 -3.13 1.6
      vertex 9.76 -10.11 3.6
      vertex 9.76 -10.11 1.6
    endloop
  endfacet
  facet normal -0 0 1
    outer loop
      vertex 9.76 -3.13 1.6
      vertex 13.76 -10.11 1.6
      vertex 13.76 -3.13 1.6
    endloop
  endfacet
  facet normal 0 0 1
    outer loop
      vertex 13.76 -10.11 1.6
      vertex 9.76 -3.13 1.6
      vertex 9.76 -10.11 1.6
    endloop
  endfacet
  facet normal -1 0 0
    outer loop
      vertex 13.76 -10.11 1.6
      vertex 13.76 -3.13 3.6
      vertex 13.76 -3.13 1.6
    endloop
  endfacet
  facet normal -1 -0 0
    outer loop
      vertex 13.76 -3.13 3.6
      vertex 13.76 -10.11 1.6
      vertex 13.76 -10.11 3.6
    endloop
  endfacet
  facet normal 0 -1 0
    outer loop
      vertex 9.76 -3.13 1.6
      vertex 13.76 -3.13 3.6
      vertex 9.76 -3.13 3.6
    endloop
  endfacet
  facet normal 0 -1 -0
    outer loop
      vertex 13.76 -3.13 3.6
      vertex 9.76 -3.13 1.6
      vertex 13.76 -3.13 1.6
    endloop
  endfacet
  facet normal 0 1 -0
    outer loop
      vertex 13.76 -10.11 1.6
      vertex 9.76 -10.11 3.6
      vertex 13.76 -10.11 3.6
    endloop
  endfacet
  facet normal 0 1 0
    outer loop
      vertex 9.76 -10.11 3.6
      vertex 13.76 -10.11 1.6
      vertex 9.76 -10.11 1.6
    endloop
  endfacet
  facet normal 1 -0 0
    outer loop
      vertex 9.76 31.89 3.6
      vertex 9.76 38.87 1.6
      vertex 9.76 38.87 3.6
    endloop
  endfacet
  facet normal 1 0 0
    outer loop
      vertex 9.76 38.87 1.6
      vertex 9.76 31.89 3.6
      vertex 9.76 31.89 1.6
    endloop
  endfacet
  facet normal -0 0 1
    outer loop
      vertex 9.76 38.87 1.6
      vertex 13.76 31.89 1.6
      vertex 13.76 38.87 1.6
    endloop
  endfacet
  facet normal 0 0 1
    outer loop
      vertex 13.76 31.89 1.6
      vertex 9.76 38.87 1.6
      vertex 9.76 31.89 1.6
    endloop
  endfacet
  facet normal -1 0 0
    outer loop
      vertex 13.76 31.89 1.6
      vertex 13.76 38.87 3.6
      vertex 13.76 38.87 1.6
    endloop
  endfacet
  facet normal -1 -0 0
    outer loop
      vertex 13.76 38.87 3.6
      vertex 13.76 31.89 1.6
      vertex 13.76 31.89 3.6
    endloop
  endfacet
  facet normal 0 -1 0
    outer loop
      vertex 9.76 38.87 1.6
      vertex 13.76 38.87 3.6
      vertex 9.76 38.87 3.6
    endloop
  endfacet
  facet normal 0 -1 -0
    outer loop
      vertex 13.76 38.87 3.6
      vertex 9.76 38.87 1.6
      vertex 13.76 38.87 1.6
    endloop
  endfacet
  facet normal 0 1 -0
    outer loop
      vertex 13.76 31.89 1.6
      vertex 9.76 31.89 3.6
      vertex 13.76 31.89 3.6
    endloop
  endfacet
  facet normal 0 1 0
    outer loop
      vertex 9.76 31.89 3.6
      vertex 13.76 31.89 1.6
      vertex 9.76 31.89 1.6
    endloop
  endfacet
  facet normal 1 -0 0
    outer loop
      vertex -25.76 -10.11 3.6
      vertex -25.76 -3.13 1.6
      vertex -25.76 -3.13 3.6
    endloop
  endfacet
  facet normal 1 0 0
    outer loop
      vertex -25.76 -3.13 1.6
      vertex -25.76 -10.11 3.6
      vertex -25.76 -10.11 1.6
    endloop
  endfacet
  facet normal -0 0 1
    outer loop
      vertex -25.76 -3.13 1.6
      vertex -21.76 -10.11 1.6
      vertex -21.76 -3.13 1.6
    endloop
  endfacet
  facet normal 0 0 1
    outer loop
      vertex -21.76 -10.11 1.6
      vertex -25.76 -3.13 1.6
      vertex -25.76 -10.11 1.6
    endloop
  endfacet
  facet normal -1 0 0
    outer loop
      vertex -21.76 -10.11 1.6
      vertex -21.76 -3.13 3.6
      vertex -21.76 -3.13 1.6
    endloop
  endfacet
  facet normal -1 -0 0
    outer loop
      vertex -21.76 -3.13 3.6
      vertex -21.76 -10.11 1.6
      vertex -21.76 -10.11 3.6
    endloop
  endfacet
  facet normal 0 -1 0
    outer loop
      vertex -25.76 -3.13 1.6
      vertex -21.76 -3.13 3.6
      vertex -25.76 -3.13 3.6
    endloop
  endfacet
  facet normal 0 -1 -0
    outer loop
      vertex -21.76 -3.13 3.6
      vertex -25.76 -3.13 1.6
      vertex -21.76 -3.13 1.6
    endloop
  endfacet
  facet normal 0 1 -0
    outer loop
      vertex -21.76 -10.11 1.6
      vertex -25.76 -10.11 3.6
      vertex -21.76 -10.11 3.6
    endloop
  endfacet
  facet normal 0 1 0
    outer loop
      vertex -25.76 -10.11 3.6
      vertex -21.76 -10.11 1.6
      vertex -25.76 -10.11 1.6
    endloop
  endfacet
  facet normal 1 -0 0
    outer loop
      vertex -25.76 31.89 3.6
      vertex -25.76 38.87 1.6
      vertex -25.76 38.87 3.6
    endloop
  endfacet
  facet normal 1 0 0
    outer loop
      vertex -25.76 38.87 1.6
      vertex -25.76 31.89 3.6
      vertex -25.76 31.89 1.6
    endloop
  endfacet
  facet normal -0 0 1
    outer loop
      vertex -25.76 38.87 1.6
      vertex -21.76 31.89 1.6
      vertex -21.76 38.87 1.6
    endloop
  endfacet
  facet normal 0 0 1
    outer loop
      vertex -21.76 31.89 1.6
      vertex -25.76 38.87 1.6
      vertex -25.76 31.89 1.6
    endloop
  endfacet
  facet normal -1 0 0
    outer loop
      vertex -21.76 31.89 1.6
      vertex -21.76 38.87 3.6
      vertex -21.76 38.87 1.6
    endloop
  endfacet
  facet normal -1 -0 0
    outer loop
      vertex -21.76 38.87 3.6
      vertex -21.76 31.89 1.6
      vertex -21.76 31.89 3.6
    endloop
  endfacet
  facet normal 0 -1 0
    outer loop
      vertex -25.76 38.87 1.6
      vertex -21.76 38.87 3.6
      vertex -25.76 38.87 3.6
    endloop
  endfacet
  facet normal 0 -1 -0
    outer loop
      vertex -21.76 38.87 3.6
      vertex -25.76 38.87 1.6
      vertex -21.76 38.87 1.6
    endloop
  endfacet
  facet normal 0 1 -0
    outer loop
      vertex -21.76 31.89 1.6
      vertex -25.76 31.89 3.6
      vertex -21.76 31.89 3.6
    endloop
  endfacet
  facet normal 0 1 0
    outer loop
      vertex -25.76 31.89 3.6
      vertex -21.76 31.89 1.6
      vertex -25.76 31.89 1.6
    endloop
  endfacet
  facet normal 1 -0 0
    outer loop
      vertex -61.28 -10.11 3.6
      vertex -61.28 -3.13 1.6
      vertex -61.28 -3.13 3.6
    endloop
  endfacet
  facet normal 1 0 0
    outer loop
      vertex -61.28 -3.13 1.6
      vertex -61.28 -10.11 3.6
      vertex -61.28 -10.11 1.6
    endloop
  endfacet
  facet normal -0 0 1
    outer loop
      vertex -61.28 -3.13 1.6
      vertex -57.28 -10.11 1.6
      vertex -57.28 -3.13 1.6
    endloop
  endfacet
  facet normal 0 0 1
    outer loop
      vertex -57.28 -10.11 1.6
      vertex -61.28 -3.13 1.6
      vertex -61.28 -10.11 1.6
    endloop
  endfacet
  facet normal -1 0 0
    outer loop
      vertex -57.28 -10.11 1.6
      vertex -57.28 -3.13 3.6
      vertex -57.28 -3.13 1.6
    endloop
  endfacet
  facet normal -1 -0 0
    outer loop
      vertex -57.28 -3.13 3.6
      vertex -57.28 -10.11 1.6
      vertex -57.28 -10.11 3.6
    endloop
  endfacet
  facet normal 0 -1 0
    outer loop
      vertex -61.28 -3.13 1.6
      vertex -57.28 -3.13 3.6
      vertex -61.28 -3.13 3.6
    endloop
  endfacet
  facet normal 0 -1 -0
    outer loop
      vertex -57.28 -3.13 3.6
      vertex -61.28 -3.13 1.6
      vertex -57.28 -3.13 1.6
    endloop
  endfacet
  facet normal 0 1 -0
    outer loop
      vertex -57.28 -10.11 1.6
      vertex -61.28 -10.11 3.6
      vertex -57.28 -10.11 3.6
    endloop
  endfacet
  facet normal 0 1 0
    outer loop
      vertex -61.28 -10.11 3.6
      vertex -57.28 -10.11 1.6
      vertex -61.28 -10.11 1.6
    endloop
  endfacet
  facet normal 1 -0 0
    outer loop
      vertex -61.28 31.89 3.6
      vertex -61.28 38.87 1.6
      vertex -61.28 38.87 3.6
    endloop
  endfacet
  facet normal 1 0 0
    outer loop
      vertex -61.28 38.87 1.6
      vertex -61.28 31.89 3.6
      vertex -61.28 31.89 1.6
    endloop
  endfacet
  facet normal -0 0 1
    outer loop
      vertex -61.28 38.87 1.6
      vertex -57.28 31.89 1.6
      vertex -57.28 38.87 1.6
    endloop
  endfacet
  facet normal 0 0 1
    outer loop
      vertex -57.28 31.89 1.6
      vertex -61.28 38.87 1.6
      vertex -61.28 31.89 1.6
    endloop
  endfacet
  facet normal -1 0 0
    outer loop
      vertex -57.28 31.89 1.6
      vertex -57.28 38.87 3.6
      vertex -57.28 38.87 1.6
    endloop
  endfacet
  facet normal -1 -0 0
    outer loop
      vertex -57.28 38.87 3.6
      vertex -57.28 31.89 1.6
      vertex -57.28 31.89 3.6
    endloop
  endfacet
  facet normal 0 -1 0
    outer loop
      vertex -61.28 38.87 1.6
      vertex -57.28 38.87 3.6
      vertex -61.28 38.87 3.6
    endloop
  endfacet
  facet normal 0 -1 -0
    outer loop
      vertex -57.28 38.87 3.6
      vertex -61.28 38.87 1.6
      vertex -57.28 38.87 1.6
    endloop
  endfacet
  facet normal 0 1 -0
    outer loop
      vertex -57.28 31.89 1.6
      vertex -61.28 31.89 3.6
      vertex -57.28 31.89 3.6
    endloop
  endfacet
  facet normal 0 1 0
    outer loop
      vertex -61.28 31.89 3.6
      vertex -57.28 31.89 1.6
      vertex -61.28 31.89 1.6
    endloop
  endfacet
endsolid OpenSCAD_Model
