solid OpenSCAD_Model
  facet normal 1 -0 0
    outer loop
      vertex 73.4 -79.4 2.4
      vertex 73.4 79.4 0
      vertex 73.4 79.4 2.4
    endloop
  endfacet
  facet normal 1 0 0
    outer loop
      vertex 73.4 79.4 0
      vertex 73.4 -79.4 2.4
      vertex 73.4 -79.4 0
    endloop
  endfacet
  facet normal -0 0 1
    outer loop
      vertex -73.4 79.4 2.4
      vertex -70 32.9 2.4
      vertex -70 79.4 2.4
    endloop
  endfacet
  facet normal 0 0 1
    outer loop
      vertex -70 32.9 2.4
      vertex -73.4 79.4 2.4
      vertex -70 21.9 2.4
    endloop
  endfacet
  facet normal 0 0 1
    outer loop
      vertex -70 21.9 2.4
      vertex -73.4 79.4 2.4
      vertex -70 -9.1 2.4
    endloop
  endfacet
  facet normal 0 0 1
    outer loop
      vertex -73.4 -79.4 2.4
      vertex -70 -9.1 2.4
      vertex -73.4 79.4 2.4
    endloop
  endfacet
  facet normal 0 0 1
    outer loop
      vertex -70 -9.1 2.4
      vertex -73.4 -79.4 2.4
      vertex -70 -22 2.4
    endloop
  endfacet
  facet normal 0 0 1
    outer loop
      vertex -70 -22 2.4
      vertex -73.4 -79.4 2.4
      vertex -70 -79.4 2.4
    endloop
  endfacet
  facet normal 0 0 1
    outer loop
      vertex 58.76 -18.5 2.4
      vertex 70 -9.1 2.4
      vertex 58.76 -10.7 2.4
    endloop
  endfacet
  facet normal 0 0 1
    outer loop
      vertex 70 -9.1 2.4
      vertex 53.96 -10.7 2.4
      vertex 58.76 -10.7 2.4
    endloop
  endfacet
  facet normal 0 0 1
    outer loop
      vertex 53.96 -10.7 2.4
      vertex 25.32 -10.7 2.4
      vertex 53.96 -18.5 2.4
    endloop
  endfacet
  facet normal 0 0 1
    outer loop
      vertex 70 -9.1 2.4
      vertex 25.32 -10.7 2.4
      vertex 53.96 -10.7 2.4
    endloop
  endfacet
  facet normal 0 0 1
    outer loop
      vertex 70 -9.1 2.4
      vertex 20.52 -10.7 2.4
      vertex 25.32 -10.7 2.4
    endloop
  endfacet
  facet normal 0 0 1
    outer loop
      vertex 20.52 -10.7 2.4
      vertex -8.12 -10.7 2.4
      vertex 20.52 -18.5 2.4
    endloop
  endfacet
  facet normal 0 0 1
    outer loop
      vertex 70 -9.1 2.4
      vertex -8.12 -10.7 2.4
      vertex 20.52 -10.7 2.4
    endloop
  endfacet
  facet normal 0 0 1
    outer loop
      vertex 70 -9.1 2.4
      vertex -12.92 -10.7 2.4
      vertex -8.12 -10.7 2.4
    endloop
  endfacet
  facet normal 0 0 1
    outer loop
      vertex -12.92 -10.7 2.4
      vertex -41.56 -10.7 2.4
      vertex -12.92 -18.5 2.4
    endloop
  endfacet
  facet normal -0 0 1
    outer loop
      vertex -70 -9.1 2.4
      vertex -12.92 -10.7 2.4
      vertex 70 -9.1 2.4
    endloop
  endfacet
  facet normal 0 0 1
    outer loop
      vertex -12.92 -10.7 2.4
      vertex -70 -9.1 2.4
      vertex -41.56 -10.7 2.4
    endloop
  endfacet
  facet normal 0 0 1
    outer loop
      vertex -46.36 -10.7 2.4
      vertex -70 -9.1 2.4
      vertex -46.36 -18.5 2.4
    endloop
  endfacet
  facet normal 0 0 1
    outer loop
      vertex -41.56 -10.7 2.4
      vertex -70 -9.1 2.4
      vertex -46.36 -10.7 2.4
    endloop
  endfacet
  facet normal 0 0 1
    outer loop
      vertex 70 32.9 2.4
      vertex 58.76 31.3 2.4
      vertex 70 21.9 2.4
    endloop
  endfacet
  facet normal 0 0 1
    outer loop
      vertex 70 32.9 2.4
      vertex 53.96 31.3 2.4
      vertex 58.76 31.3 2.4
    endloop
  endfacet
  facet normal 0 0 1
    outer loop
      vertex 53.96 31.3 2.4
      vertex 25.32 31.3 2.4
      vertex 53.96 23.5 2.4
    endloop
  endfacet
  facet normal 0 0 1
    outer loop
      vertex 70 32.9 2.4
      vertex 25.32 31.3 2.4
      vertex 53.96 31.3 2.4
    endloop
  endfacet
  facet normal 0 0 1
    outer loop
      vertex 70 32.9 2.4
      vertex 20.52 31.3 2.4
      vertex 25.32 31.3 2.4
    endloop
  endfacet
  facet normal 0 0 1
    outer loop
      vertex 20.52 31.3 2.4
      vertex -8.12 31.3 2.4
      vertex 20.52 23.5 2.4
    endloop
  endfacet
  facet normal 0 0 1
    outer loop
      vertex 70 32.9 2.4
      vertex -8.12 31.3 2.4
      vertex 20.52 31.3 2.4
    endloop
  endfacet
  facet normal 0 0 1
    outer loop
      vertex 70 32.9 2.4
      vertex -12.92 31.3 2.4
      vertex -8.12 31.3 2.4
    endloop
  endfacet
  facet normal 0 0 1
    outer loop
      vertex -12.92 31.3 2.4
      vertex -41.56 31.3 2.4
      vertex -12.92 23.5 2.4
    endloop
  endfacet
  facet normal -0 0 1
    outer loop
      vertex -70 32.9 2.4
      vertex -12.92 31.3 2.4
      vertex 70 32.9 2.4
    endloop
  endfacet
  facet normal 0 0 1
    outer loop
      vertex -12.92 31.3 2.4
      vertex -70 32.9 2.4
      vertex -41.56 31.3 2.4
    endloop
  endfacet
  facet normal 0 0 1
    outer loop
      vertex -46.36 31.3 2.4
      vertex -70 32.9 2.4
      vertex -46.36 23.5 2.4
    endloop
  endfacet
  facet normal 0 0 1
    outer loop
      vertex -41.56 31.3 2.4
      vertex -70 32.9 2.4
      vertex -46.36 31.3 2.4
    endloop
  endfacet
  facet normal 0 0 1
    outer loop
      vertex 70 32.9 2.4
      vertex 73.4 79.4 2.4
      vertex 70 79.4 2.4
    endloop
  endfacet
  facet normal 0 0 1
    outer loop
      vertex 70 21.9 2.4
      vertex 73.4 79.4 2.4
      vertex 70 32.9 2.4
    endloop
  endfacet
  facet normal 0 0 1
    outer loop
      vertex 70 -9.1 2.4
      vertex 73.4 79.4 2.4
      vertex 70 21.9 2.4
    endloop
  endfacet
  facet normal 0 0 1
    outer loop
      vertex 73.4 79.4 2.4
      vertex 70 -9.1 2.4
      vertex 73.4 -79.4 2.4
    endloop
  endfacet
  facet normal -0 0 1
    outer loop
      vertex 70 -22 2.4
      vertex 73.4 -79.4 2.4
      vertex 70 -9.1 2.4
    endloop
  endfacet
  facet normal 0 0 1
    outer loop
      vertex 73.4 -79.4 2.4
      vertex 70 -22 2.4
      vertex 70 -79.4 2.4
    endloop
  endfacet
  facet normal -0 0 1
    outer loop
      vertex 58.76 23.5 2.4
      vertex 70 21.9 2.4
      vertex 58.76 31.3 2.4
    endloop
  endfacet
  facet normal -0 0 1
    outer loop
      vertex 53.96 23.5 2.4
      vertex 70 21.9 2.4
      vertex 58.76 23.5 2.4
    endloop
  endfacet
  facet normal 0 0 1
    outer loop
      vertex 25.32 23.5 2.4
      vertex 53.96 23.5 2.4
      vertex 25.32 31.3 2.4
    endloop
  endfacet
  facet normal -0 0 1
    outer loop
      vertex 25.32 23.5 2.4
      vertex 70 21.9 2.4
      vertex 53.96 23.5 2.4
    endloop
  endfacet
  facet normal -0 0 1
    outer loop
      vertex 20.52 23.5 2.4
      vertex 70 21.9 2.4
      vertex 25.32 23.5 2.4
    endloop
  endfacet
  facet normal 0 0 1
    outer loop
      vertex -8.12 23.5 2.4
      vertex 20.52 23.5 2.4
      vertex -8.12 31.3 2.4
    endloop
  endfacet
  facet normal -0 0 1
    outer loop
      vertex -8.12 23.5 2.4
      vertex 70 21.9 2.4
      vertex 20.52 23.5 2.4
    endloop
  endfacet
  facet normal -0 0 1
    outer loop
      vertex -12.92 23.5 2.4
      vertex 70 21.9 2.4
      vertex -8.12 23.5 2.4
    endloop
  endfacet
  facet normal 0 0 1
    outer loop
      vertex -41.56 23.5 2.4
      vertex -12.92 23.5 2.4
      vertex -41.56 31.3 2.4
    endloop
  endfacet
  facet normal 0 0 1
    outer loop
      vertex -70 21.9 2.4
      vertex -12.92 23.5 2.4
      vertex -41.56 23.5 2.4
    endloop
  endfacet
  facet normal 0 0 1
    outer loop
      vertex -70 21.9 2.4
      vertex -41.56 23.5 2.4
      vertex -46.36 23.5 2.4
    endloop
  endfacet
  facet normal 0 0 1
    outer loop
      vertex -12.92 23.5 2.4
      vertex -70 21.9 2.4
      vertex 70 21.9 2.4
    endloop
  endfacet
  facet normal 0 0 1
    outer loop
      vertex -70 21.9 2.4
      vertex -46.36 23.5 2.4
      vertex -70 32.9 2.4
    endloop
  endfacet
  facet normal 0 0 1
    outer loop
      vertex 70 -9.1 2.4
      vertex 58.76 -18.5 2.4
      vertex 70 -22 2.4
    endloop
  endfacet
  facet normal -0 0 1
    outer loop
      vertex 53.96 -18.5 2.4
      vertex 70 -22 2.4
      vertex 58.76 -18.5 2.4
    endloop
  endfacet
  facet normal 0 0 1
    outer loop
      vertex 25.32 -18.5 2.4
      vertex 53.96 -18.5 2.4
      vertex 25.32 -10.7 2.4
    endloop
  endfacet
  facet normal -0 0 1
    outer loop
      vertex 25.32 -18.5 2.4
      vertex 70 -22 2.4
      vertex 53.96 -18.5 2.4
    endloop
  endfacet
  facet normal -0 0 1
    outer loop
      vertex 20.52 -18.5 2.4
      vertex 70 -22 2.4
      vertex 25.32 -18.5 2.4
    endloop
  endfacet
  facet normal 0 0 1
    outer loop
      vertex -8.12 -18.5 2.4
      vertex 20.52 -18.5 2.4
      vertex -8.12 -10.7 2.4
    endloop
  endfacet
  facet normal -0 0 1
    outer loop
      vertex -8.12 -18.5 2.4
      vertex 70 -22 2.4
      vertex 20.52 -18.5 2.4
    endloop
  endfacet
  facet normal 0 0 1
    outer loop
      vertex -70 -22 2.4
      vertex -8.12 -18.5 2.4
      vertex -12.92 -18.5 2.4
    endloop
  endfacet
  facet normal 0 0 1
    outer loop
      vertex -41.56 -18.5 2.4
      vertex -12.92 -18.5 2.4
      vertex -41.56 -10.7 2.4
    endloop
  endfacet
  facet normal 0 0 1
    outer loop
      vertex -70 -22 2.4
      vertex -12.92 -18.5 2.4
      vertex -41.56 -18.5 2.4
    endloop
  endfacet
  facet normal 0 0 1
    outer loop
      vertex -70 -22 2.4
      vertex -41.56 -18.5 2.4
      vertex -46.36 -18.5 2.4
    endloop
  endfacet
  facet normal 0 0 1
    outer loop
      vertex -8.12 -18.5 2.4
      vertex -70 -22 2.4
      vertex 70 -22 2.4
    endloop
  endfacet
  facet normal 0 0 1
    outer loop
      vertex -70 -22 2.4
      vertex -46.36 -18.5 2.4
      vertex -70 -9.1 2.4
    endloop
  endfacet
  facet normal 0 0 -1
    outer loop
      vertex -73.4 -79.4 0
      vertex -70 -22 0
      vertex -70 -79.4 0
    endloop
  endfacet
  facet normal -0 0 -1
    outer loop
      vertex -70 -22 0
      vertex -73.4 -79.4 0
      vertex -70 -9.1 0
    endloop
  endfacet
  facet normal 0 0 -1
    outer loop
      vertex -73.4 79.4 0
      vertex -70 -9.1 0
      vertex -73.4 -79.4 0
    endloop
  endfacet
  facet normal 0 0 -1
    outer loop
      vertex -70 -9.1 0
      vertex -73.4 79.4 0
      vertex -70 21.9 0
    endloop
  endfacet
  facet normal 0 0 -1
    outer loop
      vertex -70 21.9 0
      vertex -73.4 79.4 0
      vertex -70 32.9 0
    endloop
  endfacet
  facet normal 0 0 -1
    outer loop
      vertex -70 32.9 0
      vertex -73.4 79.4 0
      vertex -70 79.4 0
    endloop
  endfacet
  facet normal 0 0 -1
    outer loop
      vertex -70 21.9 0
      vertex 70 32.9 0
      vertex 70 21.9 0
    endloop
  endfacet
  facet normal -0 0 -1
    outer loop
      vertex 70 32.9 0
      vertex -70 21.9 0
      vertex -70 32.9 0
    endloop
  endfacet
  facet normal 0 0 -1
    outer loop
      vertex -70 -22 0
      vertex 70 -9.1 0
      vertex 70 -22 0
    endloop
  endfacet
  facet normal -0 0 -1
    outer loop
      vertex 70 -9.1 0
      vertex -70 -22 0
      vertex -70 -9.1 0
    endloop
  endfacet
  facet normal 0 0 -1
    outer loop
      vertex 70 -22 0
      vertex 73.4 -79.4 0
      vertex 70 -79.4 0
    endloop
  endfacet
  facet normal 0 0 -1
    outer loop
      vertex 70 -9.1 0
      vertex 73.4 -79.4 0
      vertex 70 -22 0
    endloop
  endfacet
  facet normal 0 0 -1
    outer loop
      vertex 73.4 -79.4 0
      vertex 70 -9.1 0
      vertex 73.4 79.4 0
    endloop
  endfacet
  facet normal 0 0 -1
    outer loop
      vertex 70 21.9 0
      vertex 73.4 79.4 0
      vertex 70 -9.1 0
    endloop
  endfacet
  facet normal 0 0 -1
    outer loop
      vertex 70 32.9 0
      vertex 73.4 79.4 0
      vertex 70 21.9 0
    endloop
  endfacet
  facet normal -0 0 -1
    outer loop
      vertex 73.4 79.4 0
      vertex 70 32.9 0
      vertex 70 79.4 0
    endloop
  endfacet
  facet normal -1 0 0
    outer loop
      vertex 70 32.9 0
      vertex 70 79.4 2.4
      vertex 70 79.4 0
    endloop
  endfacet
  facet normal -1 -0 0
    outer loop
      vertex 70 79.4 2.4
      vertex 70 32.9 0
      vertex 70 32.9 2.4
    endloop
  endfacet
  facet normal -1 0 0
    outer loop
      vertex 70 -79.4 0
      vertex 70 -22 2.4
      vertex 70 -22 0
    endloop
  endfacet
  facet normal -1 -0 0
    outer loop
      vertex 70 -22 2.4
      vertex 70 -79.4 0
      vertex 70 -79.4 2.4
    endloop
  endfacet
  facet normal -1 0 0
    outer loop
      vertex 70 -9.1 0
      vertex 70 21.9 2.4
      vertex 70 21.9 0
    endloop
  endfacet
  facet normal -1 -0 0
    outer loop
      vertex 70 21.9 2.4
      vertex 70 -9.1 0
      vertex 70 -9.1 2.4
    endloop
  endfacet
  facet normal 0 1 -0
    outer loop
      vertex 73.4 79.4 0
      vertex 70 79.4 2.4
      vertex 73.4 79.4 2.4
    endloop
  endfacet
  facet normal 0 1 0
    outer loop
      vertex 70 79.4 2.4
      vertex 73.4 79.4 0
      vertex 70 79.4 0
    endloop
  endfacet
  facet normal 0 -1 0
    outer loop
      vertex 70 -79.4 0
      vertex 73.4 -79.4 2.4
      vertex 70 -79.4 2.4
    endloop
  endfacet
  facet normal 0 -1 -0
    outer loop
      vertex 73.4 -79.4 2.4
      vertex 70 -79.4 0
      vertex 73.4 -79.4 0
    endloop
  endfacet
  facet normal 1 -0 0
    outer loop
      vertex -70 32.9 2.4
      vertex -70 79.4 0
      vertex -70 79.4 2.4
    endloop
  endfacet
  facet normal 1 0 0
    outer loop
      vertex -70 79.4 0
      vertex -70 32.9 2.4
      vertex -70 32.9 0
    endloop
  endfacet
  facet normal 1 -0 0
    outer loop
      vertex -70 -79.4 2.4
      vertex -70 -22 0
      vertex -70 -22 2.4
    endloop
  endfacet
  facet normal 1 0 0
    outer loop
      vertex -70 -22 0
      vertex -70 -79.4 2.4
      vertex -70 -79.4 0
    endloop
  endfacet
  facet normal 1 -0 0
    outer loop
      vertex -70 -9.1 2.4
      vertex -70 21.9 0
      vertex -70 21.9 2.4
    endloop
  endfacet
  facet normal 1 0 0
    outer loop
      vertex -70 21.9 0
      vertex -70 -9.1 2.4
      vertex -70 -9.1 0
    endloop
  endfacet
  facet normal -1 0 0
    outer loop
      vertex -73.4 -79.4 0
      vertex -73.4 79.4 2.4
      vertex -73.4 79.4 0
    endloop
  endfacet
  facet normal -1 -0 0
    outer loop
      vertex -73.4 79.4 2.4
      vertex -73.4 -79.4 0
      vertex -73.4 -79.4 2.4
    endloop
  endfacet
  facet normal 0 1 -0
    outer loop
      vertex -70 79.4 0
      vertex -73.4 79.4 2.4
      vertex -70 79.4 2.4
    endloop
  endfacet
  facet normal 0 1 0
    outer loop
      vertex -73.4 79.4 2.4
      vertex -70 79.4 0
      vertex -73.4 79.4 0
    endloop
  endfacet
  facet normal 0 -1 0
    outer loop
      vertex -73.4 -79.4 0
      vertex -70 -79.4 2.4
      vertex -73.4 -79.4 2.4
    endloop
  endfacet
  facet normal 0 -1 -0
    outer loop
      vertex -70 -79.4 2.4
      vertex -73.4 -79.4 0
      vertex -70 -79.4 0
    endloop
  endfacet
  facet normal 0 1 -0
    outer loop
      vertex 70 -9.1 0
      vertex -70 -9.1 2.4
      vertex 70 -9.1 2.4
    endloop
  endfacet
  facet normal 0 1 0
    outer loop
      vertex -70 -9.1 2.4
      vertex 70 -9.1 0
      vertex -70 -9.1 0
    endloop
  endfacet
  facet normal 0 1 -0
    outer loop
      vertex 70 32.9 0
      vertex -70 32.9 2.4
      vertex 70 32.9 2.4
    endloop
  endfacet
  facet normal 0 1 0
    outer loop
      vertex -70 32.9 2.4
      vertex 70 32.9 0
      vertex -70 32.9 0
    endloop
  endfacet
  facet normal 0 -1 0
    outer loop
      vertex -70 21.9 0
      vertex 70 21.9 2.4
      vertex -70 21.9 2.4
    endloop
  endfacet
  facet normal 0 -1 -0
    outer loop
      vertex 70 21.9 2.4
      vertex -70 21.9 0
      vertex 70 21.9 0
    endloop
  endfacet
  facet normal 0 -1 0
    outer loop
      vertex -70 -22 0
      vertex 70 -22 2.4
      vertex -70 -22 2.4
    endloop
  endfacet
  facet normal 0 -1 -0
    outer loop
      vertex 70 -22 2.4
      vertex -70 -22 0
      vertex 70 -22 0
    endloop
  endfacet
  facet normal -1 0 0
    outer loop
      vertex -41.56 -18.5 1
      vertex -41.56 -10.7 2.4
      vertex -41.56 -10.7 1
    endloop
  endfacet
  facet normal -1 -0 0
    outer loop
      vertex -41.56 -10.7 2.4
      vertex -41.56 -18.5 1
      vertex -41.56 -18.5 2.4
    endloop
  endfacet
  facet normal -0 0 1
    outer loop
      vertex -46.36 -10.7 1
      vertex -41.56 -18.5 1
      vertex -41.56 -10.7 1
    endloop
  endfacet
  facet normal 0 0 1
    outer loop
      vertex -41.56 -18.5 1
      vertex -46.36 -10.7 1
      vertex -46.36 -18.5 1
    endloop
  endfacet
  facet normal 1 -0 0
    outer loop
      vertex -46.36 -18.5 2.4
      vertex -46.36 -10.7 1
      vertex -46.36 -10.7 2.4
    endloop
  endfacet
  facet normal 1 0 0
    outer loop
      vertex -46.36 -10.7 1
      vertex -46.36 -18.5 2.4
      vertex -46.36 -18.5 1
    endloop
  endfacet
  facet normal 0 -1 0
    outer loop
      vertex -46.36 -10.7 1
      vertex -41.56 -10.7 2.4
      vertex -46.36 -10.7 2.4
    endloop
  endfacet
  facet normal 0 -1 -0
    outer loop
      vertex -41.56 -10.7 2.4
      vertex -46.36 -10.7 1
      vertex -41.56 -10.7 1
    endloop
  endfacet
  facet normal 0 1 -0
    outer loop
      vertex -41.56 -18.5 1
      vertex -46.36 -18.5 2.4
      vertex -41.56 -18.5 2.4
    endloop
  endfacet
  facet normal 0 1 0
    outer loop
      vertex -46.36 -18.5 2.4
      vertex -41.56 -18.5 1
      vertex -46.36 -18.5 1
    endloop
  endfacet
  facet normal -1 0 0
    outer loop
      vertex -41.56 23.5 1
      vertex -41.56 31.3 2.4
      vertex -41.56 31.3 1
    endloop
  endfacet
  facet normal -1 -0 0
    outer loop
      vertex -41.56 31.3 2.4
      vertex -41.56 23.5 1
      vertex -41.56 23.5 2.4
    endloop
  endfacet
  facet normal -0 0 1
    outer loop
      vertex -46.36 31.3 1
      vertex -41.56 23.5 1
      vertex -41.56 31.3 1
    endloop
  endfacet
  facet normal 0 0 1
    outer loop
      vertex -41.56 23.5 1
      vertex -46.36 31.3 1
      vertex -46.36 23.5 1
    endloop
  endfacet
  facet normal 1 -0 0
    outer loop
      vertex -46.36 23.5 2.4
      vertex -46.36 31.3 1
      vertex -46.36 31.3 2.4
    endloop
  endfacet
  facet normal 1 0 0
    outer loop
      vertex -46.36 31.3 1
      vertex -46.36 23.5 2.4
      vertex -46.36 23.5 1
    endloop
  endfacet
  facet normal 0 -1 0
    outer loop
      vertex -46.36 31.3 1
      vertex -41.56 31.3 2.4
      vertex -46.36 31.3 2.4
    endloop
  endfacet
  facet normal 0 -1 -0
    outer loop
      vertex -41.56 31.3 2.4
      vertex -46.36 31.3 1
      vertex -41.56 31.3 1
    endloop
  endfacet
  facet normal 0 1 -0
    outer loop
      vertex -41.56 23.5 1
      vertex -46.36 23.5 2.4
      vertex -41.56 23.5 2.4
    endloop
  endfacet
  facet normal 0 1 0
    outer loop
      vertex -46.36 23.5 2.4
      vertex -41.56 23.5 1
      vertex -46.36 23.5 1
    endloop
  endfacet
  facet normal -1 0 0
    outer loop
      vertex -8.12 -18.5 1
      vertex -8.12 -10.7 2.4
      vertex -8.12 -10.7 1
    endloop
  endfacet
  facet normal -1 -0 0
    outer loop
      vertex -8.12 -10.7 2.4
      vertex -8.12 -18.5 1
      vertex -8.12 -18.5 2.4
    endloop
  endfacet
  facet normal -0 0 1
    outer loop
      vertex -12.92 -10.7 1
      vertex -8.12 -18.5 1
      vertex -8.12 -10.7 1
    endloop
  endfacet
  facet normal 0 0 1
    outer loop
      vertex -8.12 -18.5 1
      vertex -12.92 -10.7 1
      vertex -12.92 -18.5 1
    endloop
  endfacet
  facet normal 1 -0 0
    outer loop
      vertex -12.92 -18.5 2.4
      vertex -12.92 -10.7 1
      vertex -12.92 -10.7 2.4
    endloop
  endfacet
  facet normal 1 0 0
    outer loop
      vertex -12.92 -10.7 1
      vertex -12.92 -18.5 2.4
      vertex -12.92 -18.5 1
    endloop
  endfacet
  facet normal 0 -1 0
    outer loop
      vertex -12.92 -10.7 1
      vertex -8.12 -10.7 2.4
      vertex -12.92 -10.7 2.4
    endloop
  endfacet
  facet normal 0 -1 -0
    outer loop
      vertex -8.12 -10.7 2.4
      vertex -12.92 -10.7 1
      vertex -8.12 -10.7 1
    endloop
  endfacet
  facet normal 0 1 -0
    outer loop
      vertex -8.12 -18.5 1
      vertex -12.92 -18.5 2.4
      vertex -8.12 -18.5 2.4
    endloop
  endfacet
  facet normal 0 1 0
    outer loop
      vertex -12.92 -18.5 2.4
      vertex -8.12 -18.5 1
      vertex -12.92 -18.5 1
    endloop
  endfacet
  facet normal -1 0 0
    outer loop
      vertex -8.12 23.5 1
      vertex -8.12 31.3 2.4
      vertex -8.12 31.3 1
    endloop
  endfacet
  facet normal -1 -0 0
    outer loop
      vertex -8.12 31.3 2.4
      vertex -8.12 23.5 1
      vertex -8.12 23.5 2.4
    endloop
  endfacet
  facet normal -0 0 1
    outer loop
      vertex -12.92 31.3 1
      vertex -8.12 23.5 1
      vertex -8.12 31.3 1
    endloop
  endfacet
  facet normal 0 0 1
    outer loop
      vertex -8.12 23.5 1
      vertex -12.92 31.3 1
      vertex -12.92 23.5 1
    endloop
  endfacet
  facet normal 1 -0 0
    outer loop
      vertex -12.92 23.5 2.4
      vertex -12.92 31.3 1
      vertex -12.92 31.3 2.4
    endloop
  endfacet
  facet normal 1 0 0
    outer loop
      vertex -12.92 31.3 1
      vertex -12.92 23.5 2.4
      vertex -12.92 23.5 1
    endloop
  endfacet
  facet normal 0 -1 0
    outer loop
      vertex -12.92 31.3 1
      vertex -8.12 31.3 2.4
      vertex -12.92 31.3 2.4
    endloop
  endfacet
  facet normal 0 -1 -0
    outer loop
      vertex -8.12 31.3 2.4
      vertex -12.92 31.3 1
      vertex -8.12 31.3 1
    endloop
  endfacet
  facet normal 0 1 -0
    outer loop
      vertex -8.12 23.5 1
      vertex -12.92 23.5 2.4
      vertex -8.12 23.5 2.4
    endloop
  endfacet
  facet normal 0 1 0
    outer loop
      vertex -12.92 23.5 2.4
      vertex -8.12 23.5 1
      vertex -12.92 23.5 1
    endloop
  endfacet
  facet normal -1 0 0
    outer loop
      vertex 25.32 -18.5 1
      vertex 25.32 -10.7 2.4
      vertex 25.32 -10.7 1
    endloop
  endfacet
  facet normal -1 -0 0
    outer loop
      vertex 25.32 -10.7 2.4
      vertex 25.32 -18.5 1
      vertex 25.32 -18.5 2.4
    endloop
  endfacet
  facet normal -0 0 1
    outer loop
      vertex 20.52 -10.7 1
      vertex 25.32 -18.5 1
      vertex 25.32 -10.7 1
    endloop
  endfacet
  facet normal 0 0 1
    outer loop
      vertex 25.32 -18.5 1
      vertex 20.52 -10.7 1
      vertex 20.52 -18.5 1
    endloop
  endfacet
  facet normal 1 -0 0
    outer loop
      vertex 20.52 -18.5 2.4
      vertex 20.52 -10.7 1
      vertex 20.52 -10.7 2.4
    endloop
  endfacet
  facet normal 1 0 0
    outer loop
      vertex 20.52 -10.7 1
      vertex 20.52 -18.5 2.4
      vertex 20.52 -18.5 1
    endloop
  endfacet
  facet normal 0 -1 0
    outer loop
      vertex 20.52 -10.7 1
      vertex 25.32 -10.7 2.4
      vertex 20.52 -10.7 2.4
    endloop
  endfacet
  facet normal 0 -1 -0
    outer loop
      vertex 25.32 -10.7 2.4
      vertex 20.52 -10.7 1
      vertex 25.32 -10.7 1
    endloop
  endfacet
  facet normal 0 1 -0
    outer loop
      vertex 25.32 -18.5 1
      vertex 20.52 -18.5 2.4
      vertex 25.32 -18.5 2.4
    endloop
  endfacet
  facet normal 0 1 0
    outer loop
      vertex 20.52 -18.5 2.4
      vertex 25.32 -18.5 1
      vertex 20.52 -18.5 1
    endloop
  endfacet
  facet normal -1 0 0
    outer loop
      vertex 25.32 23.5 1
      vertex 25.32 31.3 2.4
      vertex 25.32 31.3 1
    endloop
  endfacet
  facet normal -1 -0 0
    outer loop
      vertex 25.32 31.3 2.4
      vertex 25.32 23.5 1
      vertex 25.32 23.5 2.4
    endloop
  endfacet
  facet normal -0 0 1
    outer loop
      vertex 20.52 31.3 1
      vertex 25.32 23.5 1
      vertex 25.32 31.3 1
    endloop
  endfacet
  facet normal 0 0 1
    outer loop
      vertex 25.32 23.5 1
      vertex 20.52 31.3 1
      vertex 20.52 23.5 1
    endloop
  endfacet
  facet normal 1 -0 0
    outer loop
      vertex 20.52 23.5 2.4
      vertex 20.52 31.3 1
      vertex 20.52 31.3 2.4
    endloop
  endfacet
  facet normal 1 0 0
    outer loop
      vertex 20.52 31.3 1
      vertex 20.52 23.5 2.4
      vertex 20.52 23.5 1
    endloop
  endfacet
  facet normal 0 -1 0
    outer loop
      vertex 20.52 31.3 1
      vertex 25.32 31.3 2.4
      vertex 20.52 31.3 2.4
    endloop
  endfacet
  facet normal 0 -1 -0
    outer loop
      vertex 25.32 31.3 2.4
      vertex 20.52 31.3 1
      vertex 25.32 31.3 1
    endloop
  endfacet
  facet normal 0 1 -0
    outer loop
      vertex 25.32 23.5 1
      vertex 20.52 23.5 2.4
      vertex 25.32 23.5 2.4
    endloop
  endfacet
  facet normal 0 1 0
    outer loop
      vertex 20.52 23.5 2.4
      vertex 25.32 23.5 1
      vertex 20.52 23.5 1
    endloop
  endfacet
  facet normal -1 0 0
    outer loop
      vertex 58.76 -18.5 1
      vertex 58.76 -10.7 2.4
      vertex 58.76 -10.7 1
    endloop
  endfacet
  facet normal -1 -0 0
    outer loop
      vertex 58.76 -10.7 2.4
      vertex 58.76 -18.5 1
      vertex 58.76 -18.5 2.4
    endloop
  endfacet
  facet normal -0 0 1
    outer loop
      vertex 53.96 -10.7 1
      vertex 58.76 -18.5 1
      vertex 58.76 -10.7 1
    endloop
  endfacet
  facet normal 0 0 1
    outer loop
      vertex 58.76 -18.5 1
      vertex 53.96 -10.7 1
      vertex 53.96 -18.5 1
    endloop
  endfacet
  facet normal 1 -0 0
    outer loop
      vertex 53.96 -18.5 2.4
      vertex 53.96 -10.7 1
      vertex 53.96 -10.7 2.4
    endloop
  endfacet
  facet normal 1 0 0
    outer loop
      vertex 53.96 -10.7 1
      vertex 53.96 -18.5 2.4
      vertex 53.96 -18.5 1
    endloop
  endfacet
  facet normal 0 -1 0
    outer loop
      vertex 53.96 -10.7 1
      vertex 58.76 -10.7 2.4
      vertex 53.96 -10.7 2.4
    endloop
  endfacet
  facet normal 0 -1 -0
    outer loop
      vertex 58.76 -10.7 2.4
      vertex 53.96 -10.7 1
      vertex 58.76 -10.7 1
    endloop
  endfacet
  facet normal 0 1 -0
    outer loop
      vertex 58.76 -18.5 1
      vertex 53.96 -18.5 2.4
      vertex 58.76 -18.5 2.4
    endloop
  endfacet
  facet normal 0 1 0
    outer loop
      vertex 53.96 -18.5 2.4
      vertex 58.76 -18.5 1
      vertex 53.96 -18.5 1
    endloop
  endfacet
  facet normal -1 0 0
    outer loop
      vertex 58.76 23.5 1
      vertex 58.76 31.3 2.4
      vertex 58.76 31.3 1
    endloop
  endfacet
  facet normal -1 -0 0
    outer loop
      vertex 58.76 31.3 2.4
      vertex 58.76 23.5 1
      vertex 58.76 23.5 2.4
    endloop
  endfacet
  facet normal -0 0 1
    outer loop
      vertex 53.96 31.3 1
      vertex 58.76 23.5 1
      vertex 58.76 31.3 1
    endloop
  endfacet
  facet normal 0 0 1
    outer loop
      vertex 58.76 23.5 1
      vertex 53.96 31.3 1
      vertex 53.96 23.5 1
    endloop
  endfacet
  facet normal 1 -0 0
    outer loop
      vertex 53.96 23.5 2.4
      vertex 53.96 31.3 1
      vertex 53.96 31.3 2.4
    endloop
  endfacet
  facet normal 1 0 0
    outer loop
      vertex 53.96 31.3 1
      vertex 53.96 23.5 2.4
      vertex 53.96 23.5 1
    endloop
  endfacet
  facet normal 0 -1 0
    outer loop
      vertex 53.96 31.3 1
      vertex 58.76 31.3 2.4
      vertex 53.96 31.3 2.4
    endloop
  endfacet
  facet normal 0 -1 -0
    outer loop
      vertex 58.76 31.3 2.4
      vertex 53.96 31.3 1
      vertex 58.76 31.3 1
    endloop
  endfacet
  facet normal 0 1 -0
    outer loop
      vertex 58.76 23.5 1
      vertex 53.96 23.5 2.4
      vertex 58.76 23.5 2.4
    endloop
  endfacet
  facet normal 0 1 0
    outer loop
      vertex 53.96 23.5 2.4
      vertex 58.76 23.5 1
      vertex 53.96 23.5 1
    endloop
  endfacet
endsolid OpenSCAD_Model
